<svg width="96" height="33" fill="none" xmlns="http://www.w3.org/2000/svg"><path fill-rule="evenodd" clip-rule="evenodd" d="M19.303 16.08h-4.2l1.406-1.38H24l-1.103 1.09c-.205.186-.342.398-.342.706v6.027C19.06 23.485 16.033 24 12.624 24 5.594 24 0 19.424 0 11.83 0 6.492 4.195 0 13.372 0c4.181 0 7.106 1.284 9.126 2.636l-3.194 3.158V3.891c-1.703-1.527-3.607-2.623-6.878-2.623-5.17 0-8.877 3.966-8.877 9.621 0 5.766 4.098 11.67 11.069 11.67 1.72 0 3.374-.23 4.685-.646V16.08ZM33.413 8C28.219 8 25 11.69 25 15.606 25 18.986 27.593 23 32.846 23 37.9 23 41 19.303 41 15.318c0-3.712-3.03-7.317-7.587-7.317V8Zm-.862 1.076c3.662 0 5.293 4.638 5.293 7.946 0 4.92-3.797 5.017-4.25 5.017-1.738 0-2.952-1.02-3.861-2.36-.8-1.233-1.582-3.526-1.582-5.766 0-2.23.75-3.32 1.933-4.122a4.629 4.629 0 0 1 2.466-.715h.001ZM67.416 8c-4.384 0-6.755 2.895-6.755 6.128 0 2.461 1.69 5.238 5.176 5.238h.882s-.24.608-.241 1.197c0 .867.298 1.354.933 2.104-6 .381-8.411 2.906-8.411 5.619C59 30.662 61.18 33 65.764 33 71.19 33 74 29.858 74 26.774c0-2.175-1.038-3.366-3.668-5.422-.773-.626-.923-1.026-.923-1.495 0-.66.372-1.1.519-1.275l.008-.01c.164-.18.407-.378.6-.534.1-.082.186-.151.241-.203.884-.78 2.131-1.936 2.131-4.242 0-1.582-.63-2.943-2.068-4.217h1.755L73.913 8h-6.497Zm-1.21 1.029c.796 0 1.46.293 2.161.902.778.732 2.021 2.698 2.021 5.13 0 2.626-1.955 3.344-3.013 3.344a2.918 2.918 0 0 1-1.664-.526c-1.167-.79-2.326-2.891-2.326-5.392 0-2.257 1.289-3.458 2.822-3.458Zm2.311 14.663s-.24-.029-.575-.029c-4.501.066-6.142 1.837-6.142 3.895 0 2.485 2.394 4.006 5.527 4.006 2.853 0 4.615-1.554 4.615-3.535 0-1.442-.8-2.25-2.084-3.31-.551-.439-1.34-1.027-1.34-1.027ZM81.03 23h-6.367l1.167-1.154a.877.877 0 0 0 .28-.669V1.403H74L75.413 0h5.43l-1.149 1.14a.881.881 0 0 0-.304.69v19.09c0 .41.292.831.784.89l1.826.227-.97.963Zm.97-7.798C82 10.576 85.822 8 89.42 8h.002c3.817 0 5.478 1.987 6.067 3.96L85.29 15.833c.974 3.597 3.758 5.554 6.645 5.554 1.519 0 2.663-.436 4.065-1.1-.743.933-1.76 1.676-2.818 2.134-.986.425-2.038.579-3.316.579C84.742 23 82 19.022 82 15.202Zm10.08-3.484c0-1.168-1.395-2.66-3.326-2.66-1.276 0-3.863.899-3.863 4.26 0 .802.17 1.544.17 1.544l6.269-2.382c.499-.185.75-.384.75-.762ZM51.414 8C46.219 8 43 11.69 43 15.606 43 18.986 45.593 23 50.846 23 55.9 23 59 19.303 59 15.318c0-3.712-3.03-7.317-7.587-7.317V8Zm-.862 1.076c3.662 0 5.293 4.638 5.293 7.946 0 4.92-3.797 5.017-4.25 5.017-1.738 0-2.952-1.02-3.861-2.36-.8-1.233-1.582-3.526-1.582-5.766 0-2.23.75-3.32 1.933-4.122a4.629 4.629 0 0 1 2.466-.715h.001Z" fill="#fff"/></svg>