<svg width="838" height="1320" fill="none" xmlns="http://www.w3.org/2000/svg"><g filter="url(#a)"><path fill-rule="evenodd" clip-rule="evenodd" d="M177.552 111.139h382.466c36.681 0 66.417 28.471 66.417 63.591v870.54c0 35.12-29.736 63.59-66.417 63.59H177.552c-36.681 0-66.416-28.47-66.416-63.59V174.73c0-35.12 29.735-63.591 66.416-63.591Z" fill="#213648"/></g><g fill-rule="evenodd" clip-rule="evenodd"><path opacity=".596" d="M561.497 110H175.845c-18.005 1.098-34.61 9.314-49.816 24.648 9.779-8.536 27.221-19.959 50.28-19.959h384.724c23.06 0 40.501 11.423 50.28 19.959-15.205-15.334-31.811-23.55-49.816-24.648Z" fill="url(#b)" fill-opacity=".65"/><path opacity=".75" d="M615.999 1035.34V179.964c0-22.951-8.435-31.435-13.467-36.883-5.032-5.448-5.246-8.227 1.984-4.113 7.23 4.113 21.691 16.093 21.691 40.996v855.376c0 24.9-14.461 36.88-21.691 41-7.23 4.11-7.016 1.33-1.984-4.12 5.032-5.44 13.467-13.93 13.467-36.88Z" fill="url(#c)"/><path opacity=".75" d="M121.344 1035.34V179.964c0-22.951 8.435-31.435 13.467-36.883 5.031-5.448 5.246-8.227-1.984-4.113-7.23 4.113-21.691 16.093-21.691 40.996v855.376c0 24.9 14.461 36.88 21.691 41 7.23 4.11 7.015 1.33 1.984-4.12-5.032-5.44-13.467-13.93-13.467-36.88Z" fill="url(#d)"/></g><g fill-rule="evenodd" clip-rule="evenodd" fill="#2E423C"><path d="M106 317.113a4 4 0 0 1 4-4h1.929a4 4 0 0 1 4 4v120.701a4 4 0 0 1-4 4H110a4 4 0 0 1-4-4V317.113ZM621.071 422.086a4 4 0 0 1 4-4H627a4 4 0 0 1 4 4v85.901a4 4 0 0 1-4 4h-1.929a4 4 0 0 1-4-4v-85.901Z"/></g><g clip-path="url(#e)"><path fill-rule="evenodd" clip-rule="evenodd" d="M323.352 134.889H174.54c-22.209 0-38.392 15.127-38.392 34.883v844.778c0 25.76 25.005 48.58 53.279 48.58h358.666c27.235 0 53.278-23 53.278-48.58V172.055c0-23.679-17.579-37.025-38.391-37.166H411.808c-.573.094-10.957 4.363-15.346 15.127-4.389 10.763-13.22 19.343-22.889 19.343h-11.23c-4.596 0-16.696-4.46-22.822-19.343-6.127-14.884-15.596-15.033-16.169-15.127Z" fill="#fff"/><mask id="f" style="mask-type:alpha" maskUnits="userSpaceOnUse" x="136" y="134" width="466" height="930"><path fill-rule="evenodd" clip-rule="evenodd" d="M323.352 134.889H174.54c-22.209 0-38.392 15.127-38.392 34.883v844.778c0 25.76 25.005 48.58 53.279 48.58h358.666c27.235 0 53.278-23 53.278-48.58V172.055c0-23.679-17.579-37.025-38.391-37.166H411.808c-.573.094-10.957 4.363-15.346 15.127-4.389 10.763-13.22 19.343-22.889 19.343h-11.23c-4.596 0-16.696-4.46-22.822-19.343-6.127-14.884-15.596-15.033-16.169-15.127Z" fill="#fff"/></mask><g mask="url(#f)"><path fill="url(#g)" d="M136 134.889h466v930H136z"/><path d="M295.008 392v-34.656h-8.256v-5.28c2.645 0 4.779-.245 6.4-.736 1.643-.512 2.869-1.237 3.68-2.176.811-.96 1.291-2.101 1.44-3.424h6.208V392h-9.472Zm19.983 0V385.024c0-2.347.437-4.373 1.312-6.08a14.853 14.853 0 0 1 3.456-4.48 27.55 27.55 0 0 1 4.736-3.36c1.728-.96 3.456-1.867 5.184-2.72a67.885 67.885 0 0 0 4.736-2.56c1.451-.875 2.613-1.845 3.488-2.912s1.312-2.325 1.312-3.776c0-1.856-.651-3.371-1.952-4.544-1.28-1.173-3.04-1.76-5.28-1.76-2.325 0-4.299.672-5.92 2.016-1.621 1.344-2.624 3.371-3.008 6.08h-8.928c.043-2.944.725-5.611 2.048-8 1.344-2.411 3.349-4.32 6.016-5.728 2.667-1.408 6.016-2.112 10.048-2.112 3.456 0 6.432.587 8.928 1.76 2.517 1.173 4.459 2.805 5.824 4.896 1.365 2.091 2.048 4.533 2.048 7.328 0 2.325-.427 4.331-1.28 6.016a13.743 13.743 0 0 1-3.392 4.32 26.026 26.026 0 0 1-4.64 3.136 92.35 92.35 0 0 1-5.056 2.496 57.605 57.605 0 0 0-4.608 2.368c-1.408.789-2.539 1.685-3.392 2.688-.853 1.003-1.28 2.208-1.28 3.616v.416h23.584V392h-33.984Zm50.417-32.288v10.016h-10.24v-10.016h10.24Zm0 22.112v9.984h-10.24v-9.984h10.24Zm27.495-36.096h9.184v28.192h7.136v7.84h-7.136V392h-8.992l.032-10.24h-21.312v-7.68l21.088-28.352Zm-12.448 28.192h12.672v-16.96l-12.672 16.96Zm50.416 18.784c-2.88 0-5.568-.555-8.064-1.664-2.496-1.109-4.534-2.667-6.112-4.672-1.579-2.027-2.464-4.395-2.656-7.104h8.896c.384 1.792 1.237 3.253 2.56 4.384 1.322 1.109 2.986 1.664 4.992 1.664 2.218 0 4.16-.523 5.824-1.568 1.685-1.045 2.944-2.709 3.776-4.992.853-2.283 1.152-5.269.896-8.96-.598 1.131-1.43 2.123-2.496 2.976-1.046.832-2.272 1.483-3.68 1.952-1.408.448-2.976.672-4.704.672-3.136 0-5.92-.587-8.352-1.76-2.411-1.195-4.31-2.88-5.696-5.056-1.366-2.197-2.048-4.8-2.048-7.808 0-3.029.725-5.728 2.176-8.096 1.45-2.368 3.477-4.224 6.08-5.568 2.602-1.344 5.653-2.016 9.152-2.016 3.925 0 7.306.939 10.144 2.816 2.858 1.856 5.045 4.501 6.56 7.936 1.536 3.413 2.304 7.435 2.304 12.064 0 5.525-.79 10.133-2.368 13.824-1.558 3.669-3.798 6.421-6.72 8.256-2.923 1.813-6.411 2.72-10.464 2.72Zm.832-24.736c1.301 0 2.56-.288 3.776-.864 1.237-.597 2.25-1.344 3.04-2.24.789-.896 1.184-1.824 1.184-2.784.021-2.069-.31-3.84-.992-5.312-.662-1.493-1.6-2.635-2.816-3.424-1.195-.789-2.592-1.184-4.192-1.184-1.472 0-2.784.341-3.936 1.024-1.152.683-2.059 1.643-2.72 2.88-.662 1.237-.992 2.667-.992 4.288 0 2.411.704 4.288 2.112 5.632 1.408 1.323 3.253 1.984 5.536 1.984Z" fill="#fff"/></g></g><g clip-path="url(#h)"><g filter="url(#i)"><rect x="150" y="444" width="436" height="174" rx="5" fill="#FBFCFE"/></g><g clip-path="url(#j)"><path d="M183.62 496v-14.46h5.32c1.053 0 1.997.183 2.83.55.833.36 1.49.893 1.97 1.6.487.707.73 1.57.73 2.59 0 .96-.213 1.78-.64 2.46-.427.68-1.027 1.2-1.8 1.56-.767.36-1.67.54-2.71.54h-2.76V496h-2.94Zm2.91-7.42h2.71c.733 0 1.333-.233 1.8-.7.467-.473.7-1.057.7-1.75 0-.72-.247-1.29-.74-1.71-.493-.427-1.093-.64-1.8-.64h-2.67v4.8Zm12.493 7.62c-.66 0-1.253-.123-1.78-.37a2.973 2.973 0 0 1-1.25-1.07c-.306-.473-.46-1.047-.46-1.72 0-1.133.424-1.993 1.27-2.58.847-.593 2.184-.9 4.01-.92l1.29-.02v-.62c0-.473-.14-.837-.42-1.09-.273-.26-.7-.387-1.28-.38a2.806 2.806 0 0 0-1.22.3c-.38.193-.64.53-.78 1.01h-2.43c.04-.747.257-1.36.65-1.84.394-.487.927-.847 1.6-1.08.68-.24 1.45-.36 2.31-.36 1.06 0 1.91.133 2.55.4.64.26 1.104.637 1.39 1.13.287.487.43 1.067.43 1.74V496h-2.44l-.24-1.78c-.353.747-.796 1.263-1.33 1.55-.526.287-1.15.43-1.87.43Zm.98-1.92c.267 0 .524-.047.77-.14.254-.1.477-.23.67-.39.2-.167.36-.353.48-.56.12-.207.18-.42.18-.64v-1.53l-1.05.02c-.486.007-.94.067-1.36.18-.42.107-.76.283-1.02.53-.253.247-.38.58-.38 1 0 .48.167.857.5 1.13.334.267.737.4 1.21.4Zm8.724 5.02c-.706 0-1.206-.06-1.5-.18l-.43-.17v-1.86l1.02.04c.447.027.807.003 1.08-.07.274-.067.48-.157.62-.27.147-.113.25-.233.31-.36.06-.12.104-.217.13-.29l.19-.57-4.02-9.91h2.89l2.48 6.74 2.51-6.74h2.85l-4.19 10.4c-.36.88-.74 1.553-1.14 2.02-.4.467-.833.787-1.3.96-.46.173-.96.26-1.5.26Zm7.729-3.3 5.18-14.46h3.08l5.17 14.46h-2.91l-1.18-3.35h-5.2l-1.21 3.35h-2.93Zm4.79-5.9h3.85l-1.91-5.74-1.94 5.74Zm10.812 5.9v-14.46h5.32c1.053 0 1.996.183 2.83.55.833.36 1.49.893 1.97 1.6.486.707.73 1.57.73 2.59 0 .96-.214 1.78-.64 2.46-.427.68-1.027 1.2-1.8 1.56-.767.36-1.67.54-2.71.54h-2.76V496h-2.94Zm2.91-7.42h2.71c.733 0 1.333-.233 1.8-.7.466-.473.7-1.057.7-1.75 0-.72-.247-1.29-.74-1.71-.494-.427-1.094-.64-1.8-.64h-2.67v4.8Zm10.136-7.04h2.91V496h-2.91v-14.46Z" fill="#BA4270"/><path opacity=".5" d="M477.218 492.59c0 .767-.087 1.42-.26 1.96-.173.54-.483.95-.93 1.23-.44.28-1.067.42-1.88.42-.513 0-.997-.06-1.45-.18a9.137 9.137 0 0 1-.89-.27l.13-1.77c.207.073.443.167.71.28.273.107.61.16 1.01.16.653 0 1.1-.18 1.34-.54.247-.36.37-.967.37-1.82v-10.52h1.85v11.05Zm6.863 3.61a5.44 5.44 0 0 1-1.53-.23 3.947 3.947 0 0 1-1.26-.67 3.184 3.184 0 0 1-.87-1.09c-.206-.44-.31-.95-.31-1.53v-7.02h1.85v6.83c0 .673.207 1.22.62 1.64.42.42 1.05.63 1.89.63.76 0 1.37-.197 1.83-.59.467-.4.7-.993.7-1.78v-6.73h1.84V496h-1.47l-.19-1.98c-.126.52-.343.94-.65 1.26-.3.32-.663.557-1.09.71-.42.147-.873.217-1.36.21Zm11.316 0c-.72 0-1.39-.11-2.01-.33a3.64 3.64 0 0 1-1.53-1.05c-.407-.48-.664-1.09-.77-1.83h1.68c.093.407.26.747.5 1.02.246.267.553.47.92.61.366.133.766.2 1.2.2.693 0 1.253-.13 1.68-.39.426-.26.64-.66.64-1.2 0-.38-.114-.683-.34-.91-.22-.233-.564-.403-1.03-.51l-2.14-.53c-.834-.2-1.5-.513-2-.94-.5-.427-.75-1.023-.75-1.79-.007-.607.136-1.14.43-1.6.293-.46.733-.823 1.32-1.09.586-.267 1.316-.4 2.19-.4 1.12 0 2.023.253 2.71.76.693.5 1.053 1.237 1.08 2.21h-1.63a1.69 1.69 0 0 0-.67-1.17c-.374-.293-.877-.44-1.51-.44-.66 0-1.197.133-1.61.4-.414.26-.62.667-.62 1.22 0 .367.146.657.44.87.293.207.726.38 1.3.52l2.07.52c.48.127.873.293 1.18.5.313.207.56.437.74.69.186.253.316.52.39.8.08.273.12.537.12.79 0 .633-.16 1.18-.48 1.64-.314.453-.767.807-1.36 1.06-.587.247-1.3.37-2.14.37ZM507 487.01h-2.33v6.43c0 .367.036.637.11.81.08.167.21.273.39.32.186.047.44.07.76.07h1.13v1.24a2.81 2.81 0 0 1-.58.12c-.254.033-.57.05-.95.05-.714 0-1.267-.097-1.66-.29a1.652 1.652 0 0 1-.83-.86c-.154-.38-.23-.847-.23-1.4v-6.49h-1.68v-1.35h1.73l.45-3.01h1.36v3H507v1.36Zm17.056-5.47h1.85V496h-1.65l-7.76-11.4V496h-1.85v-14.46h1.77l7.64 11.24v-11.24Zm9.261 14.66c-.953 0-1.786-.203-2.5-.61-.713-.413-1.266-1.017-1.66-1.81-.393-.793-.59-1.763-.59-2.91 0-1.08.184-2.027.55-2.84.367-.813.904-1.443 1.61-1.89.714-.453 1.577-.68 2.59-.68.954 0 1.78.21 2.48.63.707.413 1.254 1.023 1.64 1.83.387.807.58 1.79.58 2.95 0 1.053-.18 1.98-.54 2.78-.353.8-.88 1.427-1.58 1.88-.693.447-1.553.67-2.58.67Zm0-1.46c.62 0 1.144-.157 1.57-.47.427-.313.75-.763.97-1.35.22-.587.33-1.283.33-2.09 0-.74-.096-1.403-.29-1.99-.193-.593-.503-1.063-.93-1.41-.42-.347-.97-.52-1.65-.52-.626 0-1.156.157-1.59.47-.433.307-.763.753-.99 1.34-.22.587-.33 1.29-.33 2.11 0 .727.1 1.387.3 1.98.2.593.514 1.063.94 1.41.427.347.984.52 1.67.52Zm20.35-9.08-3.13 10.34h-1.82l-2.36-7.63-2.24 7.63h-1.81l-3.19-10.34h1.71l2.37 7.95h.16l2.33-7.95h1.4l2.42 7.93h.16l2.27-7.93h1.73Z" fill="#36536B"/></g><path d="M182.46 515.24v-1.7h10.94v1.7h-4.41V528h-1.86v-12.76h-4.67ZM195.405 528v-14.86h1.8v6.04c.173-.287.407-.553.7-.8a3.4 3.4 0 0 1 1.07-.61c.42-.16.907-.24 1.46-.24.673 0 1.283.127 1.83.38.547.247.98.6 1.3 1.06.32.46.48 1.007.48 1.64V528h-1.85v-7.02c0-.62-.213-1.097-.64-1.43-.42-.34-.97-.51-1.65-.51-.46 0-.893.077-1.3.23a2.235 2.235 0 0 0-.99.68c-.247.3-.37.683-.37 1.15v6.9h-1.84Zm12.843-4.74c0 .653.107 1.247.32 1.78.22.527.55.947.99 1.26.447.313 1.004.47 1.67.47.66 0 1.227-.153 1.7-.46.48-.307.787-.75.92-1.33h1.75c-.126.7-.406 1.29-.84 1.77-.433.48-.956.843-1.57 1.09a5.22 5.22 0 0 1-1.92.36c-.966 0-1.816-.21-2.55-.63-.733-.42-1.306-1.023-1.72-1.81-.413-.787-.62-1.73-.62-2.83 0-1.087.187-2.04.56-2.86.374-.82.914-1.46 1.62-1.92.714-.46 1.57-.69 2.57-.69.974 0 1.797.21 2.47.63.674.42 1.184 1.013 1.53 1.78.354.76.53 1.663.53 2.71v.68h-7.41Zm.01-1.25h5.62c0-.593-.1-1.127-.3-1.6-.2-.48-.506-.857-.92-1.13-.406-.28-.92-.42-1.54-.42-.646 0-1.183.157-1.61.47a2.88 2.88 0 0 0-.95 1.19c-.206.48-.306.977-.3 1.49Zm14.413 9.21v-13.56h1.84l.02 1.8a5.01 5.01 0 0 1 .46-.67c.193-.233.426-.45.7-.65.28-.2.603-.363.97-.49.373-.127.796-.19 1.27-.19.826 0 1.553.19 2.18.57.633.373 1.126.947 1.48 1.72.353.773.53 1.753.53 2.94s-.174 2.19-.52 3.01c-.34.813-.834 1.433-1.48 1.86-.647.427-1.427.64-2.34.64-.46 0-.87-.067-1.23-.2a3.333 3.333 0 0 1-.93-.5c-.26-.213-.48-.44-.66-.68a5.346 5.346 0 0 1-.43-.69v5.09h-1.86Zm4.76-4.46c.853 0 1.55-.323 2.09-.97.54-.653.81-1.667.81-3.04 0-1.18-.247-2.117-.74-2.81-.494-.693-1.214-1.04-2.16-1.04-.96 0-1.687.357-2.18 1.07-.494.707-.74 1.633-.74 2.78 0 .74.11 1.413.33 2.02.22.607.546 1.09.98 1.45.433.36.97.54 1.61.54Zm9.838 1.44c-.667 0-1.257-.117-1.77-.35a2.859 2.859 0 0 1-1.21-1.03c-.287-.447-.43-.987-.43-1.62 0-1.147.4-2 1.2-2.56.8-.56 2.083-.86 3.85-.9l1.85-.05v-.81c0-.633-.19-1.133-.57-1.5-.38-.373-.97-.56-1.77-.56-.593.007-1.117.147-1.57.42-.447.273-.737.72-.87 1.34h-1.63c.04-.673.23-1.24.57-1.7.34-.467.813-.82 1.42-1.06.613-.24 1.337-.36 2.17-.36.9 0 1.647.127 2.24.38.6.253 1.047.627 1.34 1.12.3.493.45 1.1.45 1.82V528h-1.58l-.13-1.94c-.4.807-.91 1.367-1.53 1.68a4.47 4.47 0 0 1-2.03.46Zm.56-1.33c.347 0 .69-.063 1.03-.19a3.74 3.74 0 0 0 .95-.51c.287-.22.513-.463.68-.73.173-.273.263-.553.27-.84v-1.77l-1.54.03c-.787.013-1.447.093-1.98.24-.527.147-.923.377-1.19.69-.26.313-.39.723-.39 1.23 0 .58.2 1.033.6 1.36.407.327.93.49 1.57.49Zm8.557 4.43c-.607 0-1.023-.043-1.25-.13l-.34-.13v-1.2l1.05.02c.387.013.707-.013.96-.08a1.8 1.8 0 0 0 .61-.27c.153-.113.27-.24.35-.38.087-.14.157-.273.21-.4l.36-.98-4.04-10.09h1.87l3.05 7.98 3.03-7.98h1.81l-4.36 11.12c-.267.653-.567 1.163-.9 1.53a2.697 2.697 0 0 1-1.1.77c-.4.147-.837.22-1.31.22Zm9.644-3.3v-10.34h1.78v1.5c.287-.453.68-.85 1.18-1.19.5-.34 1.15-.51 1.95-.51.373 0 .753.063 1.14.19.393.127.753.317 1.08.57.327.253.58.563.76.93.32-.507.753-.913 1.3-1.22.547-.313 1.163-.47 1.85-.47.36 0 .737.057 1.13.17.393.107.757.3 1.09.58.34.273.617.657.83 1.15.213.487.32 1.113.32 1.88V528h-1.86v-6.58c0-.627-.1-1.11-.3-1.45-.2-.347-.463-.59-.79-.73a2.54 2.54 0 0 0-1.03-.21c-.32 0-.66.063-1.02.19a2.1 2.1 0 0 0-.92.64c-.253.3-.38.71-.38 1.23V528h-1.84v-7.12c0-.407-.11-.747-.33-1.02a2.016 2.016 0 0 0-.81-.62c-.32-.14-.64-.21-.96-.21-.353 0-.71.07-1.07.21-.353.14-.653.363-.9.67-.24.3-.36.693-.36 1.18V528h-1.84Zm18.625-4.74c0 .653.106 1.247.32 1.78.22.527.55.947.99 1.26.446.313 1.003.47 1.67.47.66 0 1.226-.153 1.7-.46.48-.307.786-.75.92-1.33h1.75c-.127.7-.407 1.29-.84 1.77-.434.48-.957.843-1.57 1.09-.614.24-1.254.36-1.92.36-.967 0-1.817-.21-2.55-.63-.734-.42-1.307-1.023-1.72-1.81-.414-.787-.62-1.73-.62-2.83 0-1.087.186-2.04.56-2.86.373-.82.913-1.46 1.62-1.92.713-.46 1.57-.69 2.57-.69.973 0 1.796.21 2.47.63.673.42 1.183 1.013 1.53 1.78.353.76.53 1.663.53 2.71v.68h-7.41Zm.01-1.25h5.62c0-.593-.1-1.127-.3-1.6-.2-.48-.507-.857-.92-1.13-.407-.28-.92-.42-1.54-.42-.647 0-1.184.157-1.61.47-.42.307-.737.703-.95 1.19a3.6 3.6 0 0 0-.3 1.49Zm9.939 5.99v-10.34h1.79v1.5c.167-.287.397-.557.69-.81.3-.253.66-.457 1.08-.61.427-.153.917-.23 1.47-.23.654 0 1.254.13 1.8.39.554.26.994.667 1.32 1.22.334.547.5 1.253.5 2.12V528h-1.85v-6.58c0-.807-.213-1.403-.64-1.79-.42-.393-.966-.59-1.64-.59-.466 0-.903.077-1.31.23a2.246 2.246 0 0 0-.99.68c-.253.3-.38.68-.38 1.14V528h-1.84Zm16.308-8.99h-2.33v6.43c0 .367.037.637.11.81.08.167.21.273.39.32.187.047.44.07.76.07h1.13v1.24c-.126.047-.32.087-.58.12-.253.033-.57.05-.95.05-.713 0-1.266-.097-1.66-.29a1.656 1.656 0 0 1-.83-.86c-.153-.38-.23-.847-.23-1.4v-6.49h-1.68v-1.35h1.73l.45-3.01h1.36v3h2.33v1.36Zm7.266 8.99v-14.86h1.8v6.04c.174-.287.407-.553.7-.8.294-.253.65-.457 1.07-.61.42-.16.907-.24 1.46-.24.674 0 1.284.127 1.83.38.547.247.98.6 1.3 1.06.32.46.48 1.007.48 1.64V528h-1.85v-7.02c0-.62-.213-1.097-.64-1.43-.42-.34-.97-.51-1.65-.51-.46 0-.893.077-1.3.23a2.246 2.246 0 0 0-.99.68c-.246.3-.37.683-.37 1.15v6.9h-1.84Zm14.345.2c-.667 0-1.257-.117-1.77-.35a2.853 2.853 0 0 1-1.21-1.03c-.287-.447-.43-.987-.43-1.62 0-1.147.4-2 1.2-2.56.8-.56 2.083-.86 3.85-.9l1.85-.05v-.81c0-.633-.19-1.133-.57-1.5-.38-.373-.97-.56-1.77-.56-.594.007-1.117.147-1.57.42-.447.273-.737.72-.87 1.34h-1.63c.04-.673.23-1.24.57-1.7.34-.467.813-.82 1.42-1.06.613-.24 1.336-.36 2.17-.36.9 0 1.646.127 2.24.38.6.253 1.046.627 1.34 1.12.3.493.45 1.1.45 1.82V528h-1.58l-.13-1.94c-.4.807-.91 1.367-1.53 1.68-.614.307-1.29.46-2.03.46Zm.56-1.33c.346 0 .69-.063 1.03-.19.346-.127.663-.297.95-.51.286-.22.513-.463.68-.73.173-.273.263-.553.27-.84v-1.77l-1.54.03c-.787.013-1.447.093-1.98.24-.527.147-.924.377-1.19.69-.26.313-.39.723-.39 1.23 0 .58.2 1.033.6 1.36.406.327.93.49 1.57.49Zm11.363 1.33c-.72 0-1.39-.11-2.01-.33a3.653 3.653 0 0 1-1.53-1.05c-.407-.48-.663-1.09-.77-1.83h1.68c.093.407.26.747.5 1.02.247.267.553.47.92.61.367.133.767.2 1.2.2.693 0 1.253-.13 1.68-.39.427-.26.64-.66.64-1.2 0-.38-.113-.683-.34-.91-.22-.233-.563-.403-1.03-.51l-2.14-.53c-.833-.2-1.5-.513-2-.94-.5-.427-.75-1.023-.75-1.79-.007-.607.137-1.14.43-1.6.293-.46.733-.823 1.32-1.09.587-.267 1.317-.4 2.19-.4 1.12 0 2.023.253 2.71.76.693.5 1.053 1.237 1.08 2.21h-1.63a1.69 1.69 0 0 0-.67-1.17c-.373-.293-.877-.44-1.51-.44-.66 0-1.197.133-1.61.4-.413.26-.62.667-.62 1.22 0 .367.147.657.44.87.293.207.727.38 1.3.52l2.07.52c.48.127.873.293 1.18.5.313.207.56.437.74.69.187.253.317.52.39.8.08.273.12.537.12.79 0 .633-.16 1.18-.48 1.64-.313.453-.767.807-1.36 1.06-.587.247-1.3.37-2.14.37Zm16.206 0c-.607 0-1.12-.08-1.54-.24a3.146 3.146 0 0 1-1.02-.61 3.312 3.312 0 0 1-.62-.77 4.283 4.283 0 0 1-.32-.7l-.2 2.12h-1.41v-14.86h1.86v6.16c.086-.173.216-.363.39-.57.18-.207.41-.407.69-.6.28-.193.61-.353.99-.48.386-.127.826-.19 1.32-.19 1.293 0 2.32.45 3.08 1.35.766.9 1.15 2.227 1.15 3.98 0 1.087-.164 2.037-.49 2.85-.327.807-.814 1.437-1.46 1.89-.647.447-1.454.67-2.42.67Zm-.33-1.42c.84 0 1.523-.323 2.05-.97.526-.653.79-1.69.79-3.11 0-1.207-.247-2.14-.74-2.8-.487-.667-1.2-1-2.14-1-.687 0-1.24.15-1.66.45-.414.293-.72.723-.92 1.29-.194.567-.294 1.253-.3 2.06 0 1.447.223 2.49.67 3.13.453.633 1.203.95 2.25.95Zm8.434-3.52c0 .653.107 1.247.32 1.78.22.527.55.947.99 1.26.447.313 1.004.47 1.67.47.66 0 1.227-.153 1.7-.46.48-.307.787-.75.92-1.33h1.75c-.126.7-.406 1.29-.84 1.77-.433.48-.956.843-1.57 1.09a5.22 5.22 0 0 1-1.92.36c-.966 0-1.816-.21-2.55-.63-.733-.42-1.306-1.023-1.72-1.81-.413-.787-.62-1.73-.62-2.83 0-1.087.187-2.04.56-2.86.374-.82.914-1.46 1.62-1.92.714-.46 1.57-.69 2.57-.69.974 0 1.797.21 2.47.63.674.42 1.184 1.013 1.53 1.78.354.76.53 1.663.53 2.71v.68h-7.41Zm.01-1.25h5.62c0-.593-.1-1.127-.3-1.6-.2-.48-.506-.857-.92-1.13-.406-.28-.92-.42-1.54-.42-.646 0-1.183.157-1.61.47a2.88 2.88 0 0 0-.95 1.19c-.206.48-.306.977-.3 1.49Zm11.26 1.25c0 .653.106 1.247.32 1.78.22.527.55.947.99 1.26.446.313 1.003.47 1.67.47.66 0 1.226-.153 1.7-.46.48-.307.786-.75.92-1.33h1.75c-.127.7-.407 1.29-.84 1.77-.434.48-.957.843-1.57 1.09-.614.24-1.254.36-1.92.36-.967 0-1.817-.21-2.55-.63-.734-.42-1.307-1.023-1.72-1.81-.414-.787-.62-1.73-.62-2.83 0-1.087.186-2.04.56-2.86.373-.82.913-1.46 1.62-1.92.713-.46 1.57-.69 2.57-.69.973 0 1.796.21 2.47.63.673.42 1.183 1.013 1.53 1.78.353.76.53 1.663.53 2.71v.68h-7.41Zm.01-1.25h5.62c0-.593-.1-1.127-.3-1.6-.2-.48-.507-.857-.92-1.13-.407-.28-.92-.42-1.54-.42-.647 0-1.184.157-1.61.47-.42.307-.737.703-.95 1.19a3.6 3.6 0 0 0-.3 1.49Zm9.939 5.99v-10.34h1.79v1.5c.167-.287.397-.557.69-.81.3-.253.66-.457 1.08-.61.427-.153.917-.23 1.47-.23.654 0 1.254.13 1.8.39.554.26.994.667 1.32 1.22.334.547.5 1.253.5 2.12V528h-1.85v-6.58c0-.807-.213-1.403-.64-1.79-.42-.393-.966-.59-1.64-.59-.466 0-.903.077-1.31.23a2.246 2.246 0 0 0-.99.68c-.253.3-.38.68-.38 1.14V528h-1.84Zm16.153 3.22v-13.56h1.84l.02 1.8a5.01 5.01 0 0 1 .46-.67c.193-.233.426-.45.7-.65.28-.2.603-.363.97-.49.373-.127.796-.19 1.27-.19.826 0 1.553.19 2.18.57.633.373 1.126.947 1.48 1.72.353.773.53 1.753.53 2.94s-.174 2.19-.52 3.01c-.34.813-.834 1.433-1.48 1.86-.647.427-1.427.64-2.34.64-.46 0-.87-.067-1.23-.2a3.333 3.333 0 0 1-.93-.5c-.26-.213-.48-.44-.66-.68a5.346 5.346 0 0 1-.43-.69v5.09h-1.86Zm4.76-4.46c.853 0 1.55-.323 2.09-.97.54-.653.81-1.667.81-3.04 0-1.18-.247-2.117-.74-2.81-.494-.693-1.214-1.04-2.16-1.04-.96 0-1.687.357-2.18 1.07-.494.707-.74 1.633-.74 2.78 0 .74.11 1.413.33 2.02.22.607.546 1.09.98 1.45.433.36.97.54 1.61.54Zm7.115 1.24v-10.34h1.76v1.99c.173-.493.416-.9.73-1.22.313-.327.67-.57 1.07-.73a3.407 3.407 0 0 1 1.71-.21c.146.02.26.053.34.1v1.79c-.1-.047-.23-.077-.39-.09a3.112 3.112 0 0 0-.39-.03c-.414-.027-.8 0-1.16.08-.36.073-.677.203-.95.39-.274.187-.49.433-.65.74-.154.3-.23.667-.23 1.1V528h-1.84Zm11.629.2c-.953 0-1.786-.203-2.5-.61-.713-.413-1.266-1.017-1.66-1.81-.393-.793-.59-1.763-.59-2.91 0-1.08.184-2.027.55-2.84.367-.813.904-1.443 1.61-1.89.714-.453 1.577-.68 2.59-.68.954 0 1.78.21 2.48.63.707.413 1.254 1.023 1.64 1.83.387.807.58 1.79.58 2.95 0 1.053-.18 1.98-.54 2.78-.353.8-.88 1.427-1.58 1.88-.693.447-1.553.67-2.58.67Zm0-1.46c.62 0 1.144-.157 1.57-.47.427-.313.75-.763.97-1.35.22-.587.33-1.283.33-2.09 0-.74-.096-1.403-.29-1.99-.193-.593-.503-1.063-.93-1.41-.42-.347-.97-.52-1.65-.52-.626 0-1.156.157-1.59.47-.433.307-.763.753-.99 1.34-.22.587-.33 1.29-.33 2.11 0 .727.1 1.387.3 1.98.2.593.514 1.063.94 1.41.427.347.984.52 1.67.52Zm11.241-9.28c.74 0 1.406.143 2 .43a3.7 3.7 0 0 1 1.45 1.2c.38.52.616 1.133.71 1.84h-1.64c-.06-.36-.2-.69-.42-.99-.214-.3-.497-.54-.85-.72-.354-.18-.767-.27-1.24-.27-.887 0-1.607.32-2.16.96-.554.64-.83 1.62-.83 2.94 0 1.193.253 2.15.76 2.87.513.713 1.266 1.07 2.26 1.07.473 0 .883-.09 1.23-.27.353-.187.636-.43.85-.73.213-.307.35-.633.41-.98h1.61c-.087.693-.32 1.293-.7 1.8-.38.507-.867.9-1.46 1.18-.587.273-1.247.41-1.98.41-.927 0-1.75-.203-2.47-.61-.714-.407-1.274-1.007-1.68-1.8-.407-.793-.61-1.767-.61-2.92 0-1.08.183-2.023.55-2.83.373-.813.913-1.447 1.62-1.9.713-.453 1.576-.68 2.59-.68Zm7.981 5.8c0 .653.107 1.247.32 1.78.22.527.55.947.99 1.26.447.313 1.003.47 1.67.47.66 0 1.227-.153 1.7-.46.48-.307.787-.75.92-1.33h1.75c-.127.7-.407 1.29-.84 1.77s-.957.843-1.57 1.09a5.22 5.22 0 0 1-1.92.36c-.967 0-1.817-.21-2.55-.63a4.377 4.377 0 0 1-1.72-1.81c-.413-.787-.62-1.73-.62-2.83 0-1.087.187-2.04.56-2.86.373-.82.913-1.46 1.62-1.92.713-.46 1.57-.69 2.57-.69.973 0 1.797.21 2.47.63.673.42 1.183 1.013 1.53 1.78.353.76.53 1.663.53 2.71v.68h-7.41Zm.01-1.25h5.62c0-.593-.1-1.127-.3-1.6-.2-.48-.507-.857-.92-1.13-.407-.28-.92-.42-1.54-.42-.647 0-1.183.157-1.61.47-.42.307-.737.703-.95 1.19a3.6 3.6 0 0 0-.3 1.49Zm13.531 6.19c-.72 0-1.39-.11-2.01-.33a3.653 3.653 0 0 1-1.53-1.05c-.406-.48-.663-1.09-.77-1.83h1.68c.094.407.26.747.5 1.02.247.267.554.47.92.61.367.133.767.2 1.2.2.694 0 1.254-.13 1.68-.39.427-.26.64-.66.64-1.2 0-.38-.113-.683-.34-.91-.22-.233-.563-.403-1.03-.51l-2.14-.53c-.833-.2-1.5-.513-2-.94-.5-.427-.75-1.023-.75-1.79-.006-.607.137-1.14.43-1.6.294-.46.734-.823 1.32-1.09.587-.267 1.317-.4 2.19-.4 1.12 0 2.024.253 2.71.76.694.5 1.054 1.237 1.08 2.21h-1.63a1.686 1.686 0 0 0-.67-1.17c-.373-.293-.876-.44-1.51-.44-.66 0-1.196.133-1.61.4-.413.26-.62.667-.62 1.22 0 .367.147.657.44.87.294.207.727.38 1.3.52l2.07.52c.48.127.874.293 1.18.5.314.207.56.437.74.69.187.253.317.52.39.8.08.273.12.537.12.79 0 .633-.16 1.18-.48 1.64-.313.453-.766.807-1.36 1.06-.586.247-1.3.37-2.14.37Zm10.059 0c-.72 0-1.39-.11-2.01-.33a3.653 3.653 0 0 1-1.53-1.05c-.407-.48-.663-1.09-.77-1.83h1.68c.093.407.26.747.5 1.02.247.267.553.47.92.61.367.133.767.2 1.2.2.693 0 1.253-.13 1.68-.39.427-.26.64-.66.64-1.2 0-.38-.113-.683-.34-.91-.22-.233-.563-.403-1.03-.51l-2.14-.53c-.833-.2-1.5-.513-2-.94-.5-.427-.75-1.023-.75-1.79-.007-.607.137-1.14.43-1.6.293-.46.733-.823 1.32-1.09.587-.267 1.317-.4 2.19-.4 1.12 0 2.023.253 2.71.76.693.5 1.053 1.237 1.08 2.21h-1.63a1.69 1.69 0 0 0-.67-1.17c-.373-.293-.877-.44-1.51-.44-.66 0-1.197.133-1.61.4-.413.26-.62.667-.62 1.22 0 .367.147.657.44.87.293.207.727.38 1.3.52l2.07.52c.48.127.873.293 1.18.5.313.207.56.437.74.69.187.253.317.52.39.8.08.273.12.537.12.79 0 .633-.16 1.18-.48 1.64-.313.453-.767.807-1.36 1.06-.587.247-1.3.37-2.14.37Zm7.884-4.94c0 .653.107 1.247.32 1.78.22.527.55.947.99 1.26.447.313 1.004.47 1.67.47.66 0 1.227-.153 1.7-.46.48-.307.787-.75.92-1.33h1.75c-.126.7-.406 1.29-.84 1.77-.433.48-.956.843-1.57 1.09a5.22 5.22 0 0 1-1.92.36c-.966 0-1.816-.21-2.55-.63-.733-.42-1.306-1.023-1.72-1.81-.413-.787-.62-1.73-.62-2.83 0-1.087.187-2.04.56-2.86.374-.82.914-1.46 1.62-1.92.714-.46 1.57-.69 2.57-.69.974 0 1.797.21 2.47.63.674.42 1.184 1.013 1.53 1.78.354.76.53 1.663.53 2.71v.68h-7.41Zm.01-1.25h5.62c0-.593-.1-1.127-.3-1.6-.2-.48-.506-.857-.92-1.13-.406-.28-.92-.42-1.54-.42-.646 0-1.183.157-1.61.47a2.88 2.88 0 0 0-.95 1.19c-.206.48-.306.977-.3 1.49Zm13.67 6.19c-1.34 0-2.404-.46-3.19-1.38-.787-.92-1.18-2.263-1.18-4.03 0-1.073.156-2.01.47-2.81.32-.8.793-1.42 1.42-1.86.626-.44 1.406-.66 2.34-.66.493 0 .93.063 1.31.19.386.127.72.287 1 .48s.506.393.68.6c.18.207.313.397.4.57v-6.16h1.86V528h-1.41l-.2-2.12a4.46 4.46 0 0 1-.32.7c-.147.26-.354.517-.62.77-.267.247-.61.45-1.03.61-.414.16-.924.24-1.53.24Zm.33-1.42c1.046 0 1.793-.317 2.24-.95.453-.64.68-1.683.68-3.13-.007-.807-.11-1.493-.31-2.06-.194-.567-.5-.997-.92-1.29-.414-.3-.964-.45-1.65-.45-.854 0-1.547.303-2.08.91-.534.607-.8 1.57-.8 2.89 0 1.293.24 2.297.72 3.01.486.713 1.193 1.07 2.12 1.07Zm7.404 1.22v-2.36h2.2V528h-2.2Zm8.345-12.76v-1.7h10.94v1.7h-4.41V528h-1.86v-12.76h-4.67ZM513.042 528v-14.86h1.8v6.04c.173-.287.406-.553.7-.8a3.4 3.4 0 0 1 1.07-.61c.42-.16.906-.24 1.46-.24.673 0 1.283.127 1.83.38.546.247.98.6 1.3 1.06.32.46.48 1.007.48 1.64V528h-1.85v-7.02c0-.62-.214-1.097-.64-1.43-.42-.34-.97-.51-1.65-.51-.46 0-.894.077-1.3.23a2.235 2.235 0 0 0-.99.68c-.247.3-.37.683-.37 1.15v6.9h-1.84Zm12.843-4.74c0 .653.107 1.247.32 1.78.22.527.55.947.99 1.26.447.313 1.003.47 1.67.47.66 0 1.227-.153 1.7-.46.48-.307.787-.75.92-1.33h1.75c-.127.7-.407 1.29-.84 1.77s-.957.843-1.57 1.09a5.22 5.22 0 0 1-1.92.36c-.967 0-1.817-.21-2.55-.63a4.377 4.377 0 0 1-1.72-1.81c-.413-.787-.62-1.73-.62-2.83 0-1.087.187-2.04.56-2.86.373-.82.913-1.46 1.62-1.92.713-.46 1.57-.69 2.57-.69.973 0 1.797.21 2.47.63.673.42 1.183 1.013 1.53 1.78.353.76.53 1.663.53 2.71v.68h-7.41Zm.01-1.25h5.62c0-.593-.1-1.127-.3-1.6-.2-.48-.507-.857-.92-1.13-.407-.28-.92-.42-1.54-.42-.647 0-1.183.157-1.61.47-.42.307-.737.703-.95 1.19a3.6 3.6 0 0 0-.3 1.49Zm-336.975 25h-2.33v6.43c0 .367.037.637.11.81.08.167.21.273.39.32.187.047.44.07.76.07h1.13v1.24a2.81 2.81 0 0 1-.58.12c-.253.033-.57.05-.95.05-.713 0-1.267-.097-1.66-.29a1.656 1.656 0 0 1-.83-.86c-.153-.38-.23-.847-.23-1.4v-6.49h-1.68v-1.35h1.73l.45-3.01h1.36v3h2.33v1.36Zm6.493 9.19c-.953 0-1.786-.203-2.5-.61-.713-.413-1.266-1.017-1.66-1.81-.393-.793-.59-1.763-.59-2.91 0-1.08.184-2.027.55-2.84.367-.813.904-1.443 1.61-1.89.714-.453 1.577-.68 2.59-.68.954 0 1.78.21 2.48.63.707.413 1.254 1.023 1.64 1.83.387.807.58 1.79.58 2.95 0 1.053-.18 1.98-.54 2.78-.353.8-.88 1.427-1.58 1.88-.693.447-1.553.67-2.58.67Zm0-1.46c.62 0 1.144-.157 1.57-.47.427-.313.75-.763.97-1.35.22-.587.33-1.283.33-2.09 0-.74-.096-1.403-.29-1.99-.193-.593-.503-1.063-.93-1.41-.42-.347-.97-.52-1.65-.52-.626 0-1.156.157-1.59.47-.433.307-.763.753-.99 1.34-.22.587-.33 1.29-.33 2.11 0 .727.1 1.387.3 1.98.2.593.514 1.063.94 1.41.427.347.984.52 1.67.52Zm12.042-7.73h-2.33v6.43c0 .367.037.637.11.81.08.167.21.273.39.32.187.047.44.07.76.07h1.13v1.24a2.81 2.81 0 0 1-.58.12c-.253.033-.57.05-.95.05-.713 0-1.267-.097-1.66-.29a1.656 1.656 0 0 1-.83-.86c-.153-.38-.23-.847-.23-1.4v-6.49h-1.68v-1.35h1.73l.45-3.01h1.36v3h2.33v1.36Zm5.439 9.19c-.667 0-1.257-.117-1.77-.35a2.859 2.859 0 0 1-1.21-1.03c-.287-.447-.43-.987-.43-1.62 0-1.147.4-2 1.2-2.56.8-.56 2.083-.86 3.85-.9l1.85-.05v-.81c0-.633-.19-1.133-.57-1.5-.38-.373-.97-.56-1.77-.56-.593.007-1.117.147-1.57.42-.447.273-.737.72-.87 1.34h-1.63c.04-.673.23-1.24.57-1.7.34-.467.813-.82 1.42-1.06.613-.24 1.337-.36 2.17-.36.9 0 1.647.127 2.24.38.6.253 1.047.627 1.34 1.12.3.493.45 1.1.45 1.82V556h-1.58l-.13-1.94c-.4.807-.91 1.367-1.53 1.68a4.47 4.47 0 0 1-2.03.46Zm.56-1.33c.347 0 .69-.063 1.03-.19a3.74 3.74 0 0 0 .95-.51c.287-.22.513-.463.68-.73.173-.273.263-.553.27-.84v-1.77l-1.54.03c-.787.013-1.447.093-1.98.24-.527.147-.923.377-1.19.69-.26.313-.39.723-.39 1.23 0 .58.2 1.033.6 1.36.407.327.93.49 1.57.49Zm10.479 1.26c-.56 0-1.013-.077-1.36-.23a1.912 1.912 0 0 1-.79-.62 2.363 2.363 0 0 1-.37-.89c-.06-.34-.09-.69-.09-1.05v-12.2h1.82v12.02c0 .52.1.91.3 1.17.207.26.493.403.86.43l.56.01v1.2a3.577 3.577 0 0 1-.48.11 2.35 2.35 0 0 1-.45.05Zm10.816.07c-.666 0-1.256-.117-1.77-.35a2.865 2.865 0 0 1-1.21-1.03c-.286-.447-.43-.987-.43-1.62 0-1.147.4-2 1.2-2.56.8-.56 2.084-.86 3.85-.9l1.85-.05v-.81c0-.633-.19-1.133-.57-1.5-.38-.373-.97-.56-1.77-.56-.593.007-1.116.147-1.57.42-.446.273-.736.72-.87 1.34h-1.63c.04-.673.23-1.24.57-1.7.34-.467.814-.82 1.42-1.06.614-.24 1.337-.36 2.17-.36.9 0 1.647.127 2.24.38.6.253 1.047.627 1.34 1.12.3.493.45 1.1.45 1.82V556h-1.58l-.13-1.94c-.4.807-.91 1.367-1.53 1.68a4.47 4.47 0 0 1-2.03.46Zm.56-1.33c.347 0 .69-.063 1.03-.19.347-.127.664-.297.95-.51a2.77 2.77 0 0 0 .68-.73 1.61 1.61 0 0 0 .27-.84v-1.77l-1.54.03c-.786.013-1.446.093-1.98.24-.526.147-.923.377-1.19.69-.26.313-.39.723-.39 1.23 0 .58.2 1.033.6 1.36.407.327.93.49 1.57.49Zm7.869 1.13v-10.34h1.78v1.5c.287-.453.68-.85 1.18-1.19.5-.34 1.15-.51 1.95-.51.374 0 .754.063 1.14.19.394.127.754.317 1.08.57.327.253.58.563.76.93.32-.507.754-.913 1.3-1.22a3.659 3.659 0 0 1 1.85-.47c.36 0 .737.057 1.13.17.394.107.757.3 1.09.58.34.273.617.657.83 1.15.214.487.32 1.113.32 1.88V556h-1.86v-6.58c0-.627-.1-1.11-.3-1.45-.2-.347-.463-.59-.79-.73a2.54 2.54 0 0 0-1.03-.21c-.32 0-.66.063-1.02.19s-.666.34-.92.64c-.253.3-.38.71-.38 1.23V556h-1.84v-7.12c0-.407-.11-.747-.33-1.02a2.016 2.016 0 0 0-.81-.62c-.32-.14-.64-.21-.96-.21-.353 0-.71.07-1.07.21-.353.14-.653.363-.9.67-.24.3-.36.693-.36 1.18V556h-1.84Zm21.415.2c-.953 0-1.787-.203-2.5-.61-.713-.413-1.267-1.017-1.66-1.81-.393-.793-.59-1.763-.59-2.91 0-1.08.183-2.027.55-2.84.367-.813.903-1.443 1.61-1.89.713-.453 1.577-.68 2.59-.68.953 0 1.78.21 2.48.63.707.413 1.253 1.023 1.64 1.83.387.807.58 1.79.58 2.95 0 1.053-.18 1.98-.54 2.78-.353.8-.88 1.427-1.58 1.88-.693.447-1.553.67-2.58.67Zm0-1.46c.62 0 1.143-.157 1.57-.47.427-.313.75-.763.97-1.35.22-.587.33-1.283.33-2.09 0-.74-.097-1.403-.29-1.99-.193-.593-.503-1.063-.93-1.41-.42-.347-.97-.52-1.65-.52-.627 0-1.157.157-1.59.47-.433.307-.763.753-.99 1.34-.22.587-.33 1.29-.33 2.11 0 .727.1 1.387.3 1.98.2.593.513 1.063.94 1.41.427.347.983.52 1.67.52Zm10.745 1.46a5.44 5.44 0 0 1-1.53-.23 3.926 3.926 0 0 1-1.26-.67 3.16 3.16 0 0 1-.87-1.09c-.207-.44-.31-.95-.31-1.53v-7.02h1.85v6.83c0 .673.206 1.22.62 1.64.42.42 1.05.63 1.89.63.76 0 1.37-.197 1.83-.59.466-.4.7-.993.7-1.78v-6.73h1.84V556h-1.47l-.19-1.98c-.127.52-.344.94-.65 1.26-.3.32-.664.557-1.09.71-.42.147-.874.217-1.36.21Zm7.782-.2v-10.34h1.79v1.5c.167-.287.397-.557.69-.81.3-.253.66-.457 1.08-.61.427-.153.917-.23 1.47-.23.653 0 1.253.13 1.8.39.553.26.993.667 1.32 1.22.333.547.5 1.253.5 2.12V556h-1.85v-6.58c0-.807-.213-1.403-.64-1.79-.42-.393-.967-.59-1.64-.59a3.69 3.69 0 0 0-1.31.23 2.235 2.235 0 0 0-.99.68c-.253.3-.38.68-.38 1.14V556h-1.84Zm16.308-8.99h-2.33v6.43c0 .367.036.637.11.81.08.167.21.273.39.32.186.047.44.07.76.07h1.13v1.24a2.81 2.81 0 0 1-.58.12c-.254.033-.57.05-.95.05-.714 0-1.267-.097-1.66-.29a1.652 1.652 0 0 1-.83-.86c-.154-.38-.23-.847-.23-1.4v-6.49h-1.68v-1.35h1.73l.45-3.01h1.36v3h2.33v1.36Zm10.742 9.19c-1.34 0-2.403-.46-3.19-1.38-.787-.92-1.18-2.263-1.18-4.03 0-1.073.157-2.01.47-2.81.32-.8.793-1.42 1.42-1.86.627-.44 1.407-.66 2.34-.66.493 0 .93.063 1.31.19.387.127.72.287 1 .48s.507.393.68.6c.18.207.313.397.4.57v-6.16h1.86V556h-1.41l-.2-2.12a4.37 4.37 0 0 1-.32.7c-.147.26-.353.517-.62.77-.267.247-.61.45-1.03.61-.413.16-.923.24-1.53.24Zm.33-1.42c1.047 0 1.793-.317 2.24-.95.453-.64.68-1.683.68-3.13-.007-.807-.11-1.493-.31-2.06-.193-.567-.5-.997-.92-1.29-.413-.3-.963-.45-1.65-.45-.853 0-1.547.303-2.08.91-.533.607-.8 1.57-.8 2.89 0 1.293.24 2.297.72 3.01.487.713 1.193 1.07 2.12 1.07Zm9.155-3.52c0 .653.106 1.247.32 1.78.22.527.55.947.99 1.26.446.313 1.003.47 1.67.47.66 0 1.226-.153 1.7-.46.48-.307.786-.75.92-1.33h1.75c-.127.7-.407 1.29-.84 1.77-.434.48-.957.843-1.57 1.09-.614.24-1.254.36-1.92.36-.967 0-1.817-.21-2.55-.63-.734-.42-1.307-1.023-1.72-1.81-.414-.787-.62-1.73-.62-2.83 0-1.087.186-2.04.56-2.86.373-.82.913-1.46 1.62-1.92.713-.46 1.57-.69 2.57-.69.973 0 1.796.21 2.47.63.673.42 1.183 1.013 1.53 1.78.353.76.53 1.663.53 2.71v.68h-7.41Zm.01-1.25h5.62c0-.593-.1-1.127-.3-1.6-.2-.48-.507-.857-.92-1.13-.407-.28-.92-.42-1.54-.42-.647 0-1.184.157-1.61.47-.42.307-.737.703-.95 1.19a3.6 3.6 0 0 0-.3 1.49Zm13.669 6.19c-1.34 0-2.403-.46-3.19-1.38-.786-.92-1.18-2.263-1.18-4.03 0-1.073.157-2.01.47-2.81.32-.8.794-1.42 1.42-1.86.627-.44 1.407-.66 2.34-.66.494 0 .93.063 1.31.19.387.127.72.287 1 .48s.507.393.68.6c.18.207.314.397.4.57v-6.16h1.86V556h-1.41l-.2-2.12c-.066.2-.173.433-.32.7-.146.26-.353.517-.62.77-.266.247-.61.45-1.03.61-.413.16-.923.24-1.53.24Zm.33-1.42c1.047 0 1.794-.317 2.24-.95.454-.64.68-1.683.68-3.13-.006-.807-.11-1.493-.31-2.06-.193-.567-.5-.997-.92-1.29-.413-.3-.963-.45-1.65-.45-.853 0-1.546.303-2.08.91-.533.607-.8 1.57-.8 2.89 0 1.293.24 2.297.72 3.01.487.713 1.194 1.07 2.12 1.07Zm11.635 1.42a5.44 5.44 0 0 1-1.53-.23 3.926 3.926 0 0 1-1.26-.67 3.16 3.16 0 0 1-.87-1.09c-.207-.44-.31-.95-.31-1.53v-7.02h1.85v6.83c0 .673.206 1.22.62 1.64.42.42 1.05.63 1.89.63.76 0 1.37-.197 1.83-.59.466-.4.7-.993.7-1.78v-6.73h1.84V556h-1.47l-.19-1.98c-.127.52-.344.94-.65 1.26-.3.32-.664.557-1.09.71-.42.147-.874.217-1.36.21Zm11.765-10.74c.74 0 1.407.143 2 .43.593.28 1.077.68 1.45 1.2.38.52.617 1.133.71 1.84h-1.64c-.06-.36-.2-.69-.42-.99-.213-.3-.497-.54-.85-.72-.353-.18-.767-.27-1.24-.27-.887 0-1.607.32-2.16.96-.553.64-.83 1.62-.83 2.94 0 1.193.253 2.15.76 2.87.513.713 1.267 1.07 2.26 1.07.473 0 .883-.09 1.23-.27.353-.187.637-.43.85-.73.213-.307.35-.633.41-.98h1.61c-.087.693-.32 1.293-.7 1.8-.38.507-.867.9-1.46 1.18-.587.273-1.247.41-1.98.41-.927 0-1.75-.203-2.47-.61-.713-.407-1.273-1.007-1.68-1.8-.407-.793-.61-1.767-.61-2.92 0-1.08.183-2.023.55-2.83.373-.813.913-1.447 1.62-1.9.713-.453 1.577-.68 2.59-.68Zm11.583 1.55h-2.33v6.43c0 .367.036.637.11.81.08.167.21.273.39.32.186.047.44.07.76.07h1.13v1.24a2.81 2.81 0 0 1-.58.12c-.254.033-.57.05-.95.05-.714 0-1.267-.097-1.66-.29a1.652 1.652 0 0 1-.83-.86c-.154-.38-.23-.847-.23-1.4v-6.49h-1.68v-1.35h1.73l.45-3.01h1.36v3h2.33v1.36Zm3.703 4.25c0 .653.107 1.247.32 1.78.22.527.55.947.99 1.26.447.313 1.003.47 1.67.47.66 0 1.227-.153 1.7-.46.48-.307.787-.75.92-1.33h1.75c-.127.7-.407 1.29-.84 1.77s-.957.843-1.57 1.09a5.22 5.22 0 0 1-1.92.36c-.967 0-1.817-.21-2.55-.63a4.377 4.377 0 0 1-1.72-1.81c-.413-.787-.62-1.73-.62-2.83 0-1.087.187-2.04.56-2.86.373-.82.913-1.46 1.62-1.92.713-.46 1.57-.69 2.57-.69.973 0 1.797.21 2.47.63.673.42 1.183 1.013 1.53 1.78.353.76.53 1.663.53 2.71v.68h-7.41Zm.01-1.25h5.62c0-.593-.1-1.127-.3-1.6-.2-.48-.507-.857-.92-1.13-.407-.28-.92-.42-1.54-.42-.647 0-1.183.157-1.61.47-.42.307-.737.703-.95 1.19a3.6 3.6 0 0 0-.3 1.49Zm13.67 6.19c-1.34 0-2.404-.46-3.19-1.38-.787-.92-1.18-2.263-1.18-4.03 0-1.073.156-2.01.47-2.81.32-.8.793-1.42 1.42-1.86.626-.44 1.406-.66 2.34-.66.493 0 .93.063 1.31.19.386.127.72.287 1 .48s.506.393.68.6c.18.207.313.397.4.57v-6.16h1.86V556h-1.41l-.2-2.12a4.46 4.46 0 0 1-.32.7c-.147.26-.354.517-.62.77-.267.247-.61.45-1.03.61-.414.16-.924.24-1.53.24Zm.33-1.42c1.046 0 1.793-.317 2.24-.95.453-.64.68-1.683.68-3.13-.007-.807-.11-1.493-.31-2.06-.194-.567-.5-.997-.92-1.29-.414-.3-.964-.45-1.65-.45-.854 0-1.547.303-2.08.91-.534.607-.8 1.57-.8 2.89 0 1.293.24 2.297.72 3.01.486.713 1.193 1.07 2.12 1.07Zm18.283-9.12v1.35h-2.51V556h-1.86v-8.99h-2.18v-1.35h2.18v-1.6c0-.82.21-1.443.63-1.87.42-.433 1.047-.65 1.88-.65h1.95l.01 1.31h-1.55c-.42 0-.706.113-.86.34-.153.227-.23.57-.23 1.03v1.44h2.54Zm2.285 10.34v-10.34h1.76v1.99c.174-.493.417-.9.73-1.22.314-.327.67-.57 1.07-.73a3.415 3.415 0 0 1 1.71-.21.93.93 0 0 1 .34.1v1.79c-.1-.047-.23-.077-.39-.09a3.085 3.085 0 0 0-.39-.03 4.1 4.1 0 0 0-1.16.08 2.57 2.57 0 0 0-.95.39c-.273.187-.49.433-.65.74-.153.3-.23.667-.23 1.1V556h-1.84Zm11.63.2c-.953 0-1.787-.203-2.5-.61-.713-.413-1.267-1.017-1.66-1.81-.393-.793-.59-1.763-.59-2.91 0-1.08.183-2.027.55-2.84.367-.813.903-1.443 1.61-1.89.713-.453 1.577-.68 2.59-.68.953 0 1.78.21 2.48.63.707.413 1.253 1.023 1.64 1.83.387.807.58 1.79.58 2.95 0 1.053-.18 1.98-.54 2.78-.353.8-.88 1.427-1.58 1.88-.693.447-1.553.67-2.58.67Zm0-1.46c.62 0 1.143-.157 1.57-.47.427-.313.75-.763.97-1.35.22-.587.33-1.283.33-2.09 0-.74-.097-1.403-.29-1.99-.193-.593-.503-1.063-.93-1.41-.42-.347-.97-.52-1.65-.52-.627 0-1.157.157-1.59.47-.433.307-.763.753-.99 1.34-.22.587-.33 1.29-.33 2.11 0 .727.1 1.387.3 1.98.2.593.513 1.063.94 1.41.427.347.983.52 1.67.52Zm7.12 1.26v-10.34h1.78v1.5c.287-.453.68-.85 1.18-1.19.5-.34 1.15-.51 1.95-.51.374 0 .754.063 1.14.19.394.127.754.317 1.08.57.327.253.58.563.76.93.32-.507.754-.913 1.3-1.22a3.659 3.659 0 0 1 1.85-.47c.36 0 .737.057 1.13.17.394.107.757.3 1.09.58.34.273.617.657.83 1.15.214.487.32 1.113.32 1.88V556h-1.86v-6.58c0-.627-.1-1.11-.3-1.45-.2-.347-.463-.59-.79-.73a2.54 2.54 0 0 0-1.03-.21c-.32 0-.66.063-1.02.19s-.666.34-.92.64c-.253.3-.38.71-.38 1.23V556h-1.84v-7.12c0-.407-.11-.747-.33-1.02a2.016 2.016 0 0 0-.81-.62c-.32-.14-.64-.21-.96-.21-.353 0-.71.07-1.07.21-.353.14-.653.363-.9.67-.24.3-.36.693-.36 1.18V556h-1.84Zm22.798 3.3c-.607 0-1.024-.043-1.25-.13l-.34-.13v-1.2l1.05.02c.386.013.706-.013.96-.08a1.81 1.81 0 0 0 .61-.27c.153-.113.27-.24.35-.38a3.05 3.05 0 0 0 .21-.4l.36-.98-4.04-10.09h1.87l3.05 7.98 3.03-7.98h1.81l-4.36 11.12c-.267.653-.567 1.163-.9 1.53a2.704 2.704 0 0 1-1.1.77c-.4.147-.837.22-1.31.22Zm13.383-3.1c-.954 0-1.787-.203-2.5-.61-.714-.413-1.267-1.017-1.66-1.81-.394-.793-.59-1.763-.59-2.91 0-1.08.183-2.027.55-2.84.366-.813.903-1.443 1.61-1.89.713-.453 1.576-.68 2.59-.68.953 0 1.78.21 2.48.63.706.413 1.253 1.023 1.64 1.83.386.807.58 1.79.58 2.95 0 1.053-.18 1.98-.54 2.78-.354.8-.88 1.427-1.58 1.88-.694.447-1.554.67-2.58.67Zm0-1.46c.62 0 1.143-.157 1.57-.47.426-.313.75-.763.97-1.35.22-.587.33-1.283.33-2.09 0-.74-.097-1.403-.29-1.99-.194-.593-.504-1.063-.93-1.41-.42-.347-.97-.52-1.65-.52-.627 0-1.157.157-1.59.47-.434.307-.764.753-.99 1.34-.22.587-.33 1.29-.33 2.11 0 .727.1 1.387.3 1.98.2.593.513 1.063.94 1.41.426.347.983.52 1.67.52Zm10.744 1.46a5.44 5.44 0 0 1-1.53-.23 3.947 3.947 0 0 1-1.26-.67 3.184 3.184 0 0 1-.87-1.09c-.206-.44-.31-.95-.31-1.53v-7.02h1.85v6.83c0 .673.207 1.22.62 1.64.42.42 1.05.63 1.89.63.76 0 1.37-.197 1.83-.59.467-.4.7-.993.7-1.78v-6.73h1.84V556h-1.47l-.19-1.98c-.126.52-.343.94-.65 1.26-.3.32-.663.557-1.09.71-.42.147-.873.217-1.36.21Zm7.782-.2v-10.34h1.76v1.99c.174-.493.417-.9.73-1.22.314-.327.67-.57 1.07-.73a3.415 3.415 0 0 1 1.71-.21.93.93 0 0 1 .34.1v1.79c-.1-.047-.23-.077-.39-.09a3.085 3.085 0 0 0-.39-.03 4.1 4.1 0 0 0-1.16.08 2.57 2.57 0 0 0-.95.39c-.273.187-.49.433-.65.74-.153.3-.23.667-.23 1.1V556h-1.84ZM186.39 584.2c-.667 0-1.257-.117-1.77-.35a2.859 2.859 0 0 1-1.21-1.03c-.287-.447-.43-.987-.43-1.62 0-1.147.4-2 1.2-2.56.8-.56 2.083-.86 3.85-.9l1.85-.05v-.81c0-.633-.19-1.133-.57-1.5-.38-.373-.97-.56-1.77-.56-.593.007-1.117.147-1.57.42-.447.273-.737.72-.87 1.34h-1.63c.04-.673.23-1.24.57-1.7.34-.467.813-.82 1.42-1.06.613-.24 1.337-.36 2.17-.36.9 0 1.647.127 2.24.38.6.253 1.047.627 1.34 1.12.3.493.45 1.1.45 1.82V584h-1.58l-.13-1.94c-.4.807-.91 1.367-1.53 1.68a4.47 4.47 0 0 1-2.03.46Zm.56-1.33c.347 0 .69-.063 1.03-.19a3.74 3.74 0 0 0 .95-.51c.287-.22.513-.463.68-.73.173-.273.263-.553.27-.84v-1.77l-1.54.03c-.787.013-1.447.093-1.98.24-.527.147-.923.377-1.19.69-.26.313-.39.723-.39 1.23 0 .58.2 1.033.6 1.36.407.327.93.49 1.57.49Zm11.989-9.41c.74 0 1.407.143 2 .43.593.28 1.077.68 1.45 1.2.38.52.617 1.133.71 1.84h-1.64c-.06-.36-.2-.69-.42-.99-.213-.3-.497-.54-.85-.72-.353-.18-.767-.27-1.24-.27-.887 0-1.607.32-2.16.96-.553.64-.83 1.62-.83 2.94 0 1.193.253 2.15.76 2.87.513.713 1.267 1.07 2.26 1.07.473 0 .883-.09 1.23-.27.353-.187.637-.43.85-.73.213-.307.35-.633.41-.98h1.61c-.087.693-.32 1.293-.7 1.8-.38.507-.867.9-1.46 1.18-.587.273-1.247.41-1.98.41-.927 0-1.75-.203-2.47-.61-.713-.407-1.273-1.007-1.68-1.8-.407-.793-.61-1.767-.61-2.92 0-1.08.183-2.023.55-2.83.373-.813.913-1.447 1.62-1.9.713-.453 1.577-.68 2.59-.68Zm10.781 0c.74 0 1.407.143 2 .43.594.28 1.077.68 1.45 1.2.38.52.617 1.133.71 1.84h-1.64c-.06-.36-.2-.69-.42-.99-.213-.3-.496-.54-.85-.72-.353-.18-.766-.27-1.24-.27-.886 0-1.606.32-2.16.96-.553.64-.83 1.62-.83 2.94 0 1.193.254 2.15.76 2.87.514.713 1.267 1.07 2.26 1.07.474 0 .884-.09 1.23-.27.354-.187.637-.43.85-.73.214-.307.35-.633.41-.98h1.61c-.086.693-.32 1.293-.7 1.8-.38.507-.866.9-1.46 1.18-.586.273-1.246.41-1.98.41-.926 0-1.75-.203-2.47-.61-.713-.407-1.273-1.007-1.68-1.8-.406-.793-.61-1.767-.61-2.92 0-1.08.184-2.023.55-2.83.374-.813.914-1.447 1.62-1.9.714-.453 1.577-.68 2.59-.68Zm10.772 10.74c-.954 0-1.787-.203-2.5-.61-.714-.413-1.267-1.017-1.66-1.81-.394-.793-.59-1.763-.59-2.91 0-1.08.183-2.027.55-2.84.366-.813.903-1.443 1.61-1.89.713-.453 1.576-.68 2.59-.68.953 0 1.78.21 2.48.63.706.413 1.253 1.023 1.64 1.83.386.807.58 1.79.58 2.95 0 1.053-.18 1.98-.54 2.78-.354.8-.88 1.427-1.58 1.88-.694.447-1.554.67-2.58.67Zm0-1.46c.62 0 1.143-.157 1.57-.47.426-.313.75-.763.97-1.35.22-.587.33-1.283.33-2.09 0-.74-.097-1.403-.29-1.99-.194-.593-.504-1.063-.93-1.41-.42-.347-.97-.52-1.65-.52-.627 0-1.157.157-1.59.47-.434.307-.764.753-.99 1.34-.22.587-.33 1.29-.33 2.11 0 .727.1 1.387.3 1.98.2.593.513 1.063.94 1.41.426.347.983.52 1.67.52Zm10.744 1.46a5.44 5.44 0 0 1-1.53-.23 3.947 3.947 0 0 1-1.26-.67 3.184 3.184 0 0 1-.87-1.09c-.206-.44-.31-.95-.31-1.53v-7.02h1.85v6.83c0 .673.207 1.22.62 1.64.42.42 1.05.63 1.89.63.76 0 1.37-.197 1.83-.59.467-.4.7-.993.7-1.78v-6.73h1.84V584h-1.47l-.19-1.98c-.126.52-.343.94-.65 1.26-.3.32-.663.557-1.09.71-.42.147-.873.217-1.36.21Zm7.782-.2v-10.34h1.79v1.5c.167-.287.397-.557.69-.81.3-.253.66-.457 1.08-.61.427-.153.917-.23 1.47-.23.654 0 1.254.13 1.8.39.554.26.994.667 1.32 1.22.334.547.5 1.253.5 2.12V584h-1.85v-6.58c0-.807-.213-1.403-.64-1.79-.42-.393-.966-.59-1.64-.59-.466 0-.903.077-1.31.23a2.246 2.246 0 0 0-.99.68c-.253.3-.38.68-.38 1.14V584h-1.84Zm16.308-8.99h-2.33v6.43c0 .367.037.637.11.81.08.167.21.273.39.32.187.047.44.07.76.07h1.13v1.24c-.126.047-.32.087-.58.12-.253.033-.57.05-.95.05-.713 0-1.266-.097-1.66-.29a1.656 1.656 0 0 1-.83-.86c-.153-.38-.23-.847-.23-1.4v-6.49h-1.68v-1.35h1.73l.45-3.01h1.36v3h2.33v1.36Zm9.267-1.35V584h-1.79v-10.34h1.79Zm.04-4.11v1.92h-1.89v-1.92h1.89Zm6.883 14.65c-.72 0-1.39-.11-2.01-.33a3.653 3.653 0 0 1-1.53-1.05c-.406-.48-.663-1.09-.77-1.83h1.68c.094.407.26.747.5 1.02.247.267.554.47.92.61.367.133.767.2 1.2.2.694 0 1.254-.13 1.68-.39.427-.26.64-.66.64-1.2 0-.38-.113-.683-.34-.91-.22-.233-.563-.403-1.03-.51l-2.14-.53c-.833-.2-1.5-.513-2-.94-.5-.427-.75-1.023-.75-1.79-.006-.607.137-1.14.43-1.6.294-.46.734-.823 1.32-1.09.587-.267 1.317-.4 2.19-.4 1.12 0 2.024.253 2.71.76.694.5 1.054 1.237 1.08 2.21h-1.63a1.686 1.686 0 0 0-.67-1.17c-.373-.293-.876-.44-1.51-.44-.66 0-1.196.133-1.61.4-.413.26-.62.667-.62 1.22 0 .367.147.657.44.87.294.207.727.38 1.3.52l2.07.52c.48.127.874.293 1.18.5.314.207.56.437.74.69.187.253.317.52.39.8.08.273.12.537.12.79 0 .633-.16 1.18-.48 1.64-.313.453-.766.807-1.36 1.06-.586.247-1.3.37-2.14.37Zm22.463-5.71c0 1.167-.19 2.18-.57 3.04-.38.853-.997 1.513-1.85 1.98-.847.46-1.97.69-3.37.69-1.407 0-2.533-.233-3.38-.7a4.169 4.169 0 0 1-1.84-2.01c-.373-.867-.56-1.9-.56-3.1v-8.85h2.97v9.07c0 1.08.26 1.87.78 2.37.52.493 1.197.74 2.03.74.553 0 1.043-.107 1.47-.32.427-.22.76-.557 1-1.01.247-.46.37-1.053.37-1.78v-9.07h2.95v8.95Zm8.333 5.71a8.24 8.24 0 0 1-2.1-.27 6.59 6.59 0 0 1-1.88-.81 4.857 4.857 0 0 1-1.41-1.35c-.367-.54-.587-1.173-.66-1.9h2.99c.1.44.29.81.57 1.11.28.3.633.53 1.06.69.426.16.9.24 1.42.24.533 0 1.02-.067 1.46-.2.44-.133.793-.333 1.06-.6.266-.273.4-.613.4-1.02 0-.367-.11-.667-.33-.9-.214-.233-.504-.423-.87-.57a7.113 7.113 0 0 0-1.25-.36l-2.5-.51c-1.094-.207-1.96-.64-2.6-1.3-.64-.667-.97-1.553-.99-2.66-.007-.907.233-1.69.72-2.35.493-.667 1.16-1.18 2-1.54.846-.36 1.793-.54 2.84-.54 1.246 0 2.293.197 3.14.59.853.387 1.5.913 1.94 1.58.446.66.676 1.397.69 2.21h-2.93c-.054-.507-.207-.91-.46-1.21-.254-.3-.58-.517-.98-.65a4.213 4.213 0 0 0-1.35-.2c-.387 0-.74.043-1.06.13-.314.087-.58.21-.8.37-.22.153-.39.337-.51.55-.12.213-.18.453-.18.72 0 .42.14.76.42 1.02.28.26.803.473 1.57.64l2.48.51c.886.173 1.59.43 2.11.77.526.34.92.723 1.18 1.15.266.427.44.863.52 1.31.086.44.13.847.13 1.22 0 .78-.247 1.483-.74 2.11-.487.62-1.167 1.113-2.04 1.48-.874.36-1.894.54-3.06.54Zm18.125 0c-1.733 0-3.14-.347-4.22-1.04-1.08-.7-1.7-1.777-1.86-3.23l3.04-.06c.16.66.504 1.163 1.03 1.51.534.34 1.2.51 2 .51.48 0 .904-.077 1.27-.23.374-.16.667-.373.88-.64.214-.273.32-.583.32-.93 0-.533-.17-.93-.51-1.19-.34-.267-.863-.48-1.57-.64l-2.37-.51c-1.1-.22-1.983-.657-2.65-1.31-.66-.66-.996-1.543-1.01-2.65-.006-.907.237-1.69.73-2.35.5-.667 1.177-1.18 2.03-1.54.86-.36 1.824-.54 2.89-.54 1.094 0 2.037.197 2.83.59.8.387 1.414.91 1.84 1.57.434.653.644 1.377.63 2.17l-2.95.05c-.093-.64-.306-1.143-.64-1.51-.333-.367-.886-.55-1.66-.55-.4 0-.756.043-1.07.13-.313.087-.583.21-.81.37-.226.153-.4.337-.52.55-.113.213-.17.453-.17.72 0 .42.14.753.42 1 .287.24.824.463 1.61.67l2.33.57c1.314.313 2.26.85 2.84 1.61.587.76.88 1.683.88 2.77 0 .833-.23 1.56-.69 2.18-.453.62-1.096 1.1-1.93 1.44-.833.34-1.813.51-2.94.51Zm-1.25-16.73h2.53v2.6h-2.53v-2.6Zm-.05 15.84h2.52v2.6h-2.52v-2.6Zm11.283.69v-10.83h-2.58v-1.65c.827 0 1.494-.077 2-.23.514-.16.897-.387 1.15-.68.254-.3.404-.657.45-1.07h1.94V584h-2.96Zm11.575-14.66c1.72 0 3.077.643 4.07 1.93.993 1.28 1.49 3.123 1.49 5.53 0 2.393-.49 4.23-1.47 5.51-.98 1.273-2.343 1.91-4.09 1.91-1.753 0-3.123-.637-4.11-1.91-.98-1.273-1.47-3.107-1.47-5.5 0-1.6.227-2.957.68-4.07.453-1.113 1.097-1.957 1.93-2.53.833-.58 1.823-.87 2.97-.87Zm0 12.49c.86 0 1.49-.383 1.89-1.15.4-.773.6-2.063.6-3.87 0-1.847-.203-3.17-.61-3.97-.407-.8-1.037-1.2-1.89-1.2s-1.49.403-1.91 1.21c-.413.807-.62 2.127-.62 3.96 0 1.8.207 3.087.62 3.86.413.773 1.053 1.16 1.92 1.16Zm13.803-12.29h2.87v8.81h2.23v2.45h-2.23v3.2h-2.81l.01-3.2h-6.66v-2.4l6.59-8.86Zm-3.89 8.81h3.96v-5.3l-3.96 5.3Zm10.555 5.65v-3.18h3.2V584h-3.2Zm10.59.22c-.9 0-1.74-.173-2.52-.52a4.936 4.936 0 0 1-1.91-1.46c-.493-.633-.77-1.373-.83-2.22h2.78c.12.56.387 1.017.8 1.37.414.347.934.52 1.56.52.694 0 1.3-.163 1.82-.49.527-.327.92-.847 1.18-1.56.267-.713.36-1.647.28-2.8a2.942 2.942 0 0 1-.78.93c-.326.26-.71.463-1.15.61-.44.14-.93.21-1.47.21-.98 0-1.85-.183-2.61-.55a4.36 4.36 0 0 1-1.78-1.58c-.426-.687-.64-1.5-.64-2.44 0-.947.227-1.79.68-2.53a4.713 4.713 0 0 1 1.9-1.74c.814-.42 1.767-.63 2.86-.63 1.227 0 2.284.293 3.17.88.894.58 1.577 1.407 2.05 2.48.48 1.067.72 2.323.72 3.77 0 1.727-.246 3.167-.74 4.32-.486 1.147-1.186 2.007-2.1 2.58-.913.567-2.003.85-3.27.85Zm.26-7.73c.407 0 .8-.09 1.18-.27.387-.187.704-.42.95-.7.247-.28.37-.57.37-.87.007-.647-.096-1.2-.31-1.66-.206-.467-.5-.823-.88-1.07-.373-.247-.81-.37-1.31-.37-.46 0-.87.107-1.23.32-.36.213-.643.513-.85.9-.206.387-.31.833-.31 1.34 0 .753.22 1.34.66 1.76.44.413 1.017.62 1.73.62Zm13.135-7.15c1.72 0 3.077.643 4.07 1.93.994 1.28 1.49 3.123 1.49 5.53 0 2.393-.49 4.23-1.47 5.51-.98 1.273-2.343 1.91-4.09 1.91-1.753 0-3.123-.637-4.11-1.91-.98-1.273-1.47-3.107-1.47-5.5 0-1.6.227-2.957.68-4.07.454-1.113 1.097-1.957 1.93-2.53.834-.58 1.824-.87 2.97-.87Zm0 12.49c.86 0 1.49-.383 1.89-1.15.4-.773.6-2.063.6-3.87 0-1.847-.203-3.17-.61-3.97-.406-.8-1.036-1.2-1.89-1.2-.853 0-1.49.403-1.91 1.21-.413.807-.62 2.127-.62 3.96 0 1.8.207 3.087.62 3.86.414.773 1.054 1.16 1.92 1.16Zm7.531 2.17v-2.36h2.2V584h-2.2Z" fill="#36536B"/></g><defs><linearGradient id="b" x1="126.029" y1="110" x2="126.029" y2="134.648" gradientUnits="userSpaceOnUse"><stop stop-color="#454545"/><stop offset=".226" stop-color="#999"/><stop offset="1" stop-color="#fff"/></linearGradient><linearGradient id="c" x1="626.207" y1="281.495" x2="607.285" y2="281.495" gradientUnits="userSpaceOnUse"><stop stop-color="#fff" stop-opacity=".01"/><stop offset=".222" stop-color="#BABABA"/><stop offset=".547" stop-color="#fff" stop-opacity=".01"/><stop offset="1" stop-color="#fff" stop-opacity=".01"/></linearGradient><linearGradient id="d" x1="111.136" y1="280.974" x2="130.088" y2="280.974" gradientUnits="userSpaceOnUse"><stop stop-color="#fff" stop-opacity=".01"/><stop offset=".222" stop-color="#BABABA"/><stop offset=".547" stop-color="#fff" stop-opacity=".01"/><stop offset="1" stop-color="#fff" stop-opacity=".01"/></linearGradient><linearGradient id="g" x1="273.814" y1="269.778" x2="273.814" y2="1192.54" gradientUnits="userSpaceOnUse"><stop stop-color="#9CB6CD"/><stop offset=".421" stop-color="#9AB3CA"/><stop offset=".717" stop-color="#557496"/><stop offset="1" stop-color="#475178"/></linearGradient><clipPath id="e"><path fill="#fff" transform="matrix(2 0 0 2 136.148 134.889)" d="M0 0h233v465H0z"/></clipPath><clipPath id="h"><path fill="#fff" transform="matrix(2 0 0 2 150 444)" d="M0 0h218v87H0z"/></clipPath><clipPath id="j"><path fill="#fff" transform="matrix(2 0 0 2 182 476)" d="M0 0h187v11H0z"/></clipPath><filter id="a" x="1.136" y="1.139" width="835.299" height="1317.72" filterUnits="userSpaceOnUse" color-interpolation-filters="sRGB"><feFlood flood-opacity="0" result="BackgroundImageFix"/><feColorMatrix in="SourceAlpha" values="0 0 0 0 0 0 0 0 0 0 0 0 0 0 0 0 0 0 127 0" result="hardAlpha"/><feOffset dx="25" dy="25"/><feGaussianBlur stdDeviation="40"/><feColorMatrix values="0 0 0 0 0.212302 0 0 0 0 0.32521 0 0 0 0 0.419299 0 0 0 0.300727 0"/><feBlend in2="BackgroundImageFix" result="effect1_dropShadow_0_4910"/><feBlend in="SourceGraphic" in2="effect1_dropShadow_0_4910" result="shape"/></filter><filter id="i" x="140" y="434" width="496" height="234" filterUnits="userSpaceOnUse" color-interpolation-filters="sRGB"><feFlood flood-opacity="0" result="BackgroundImageFix"/><feColorMatrix in="SourceAlpha" values="0 0 0 0 0 0 0 0 0 0 0 0 0 0 0 0 0 0 127 0" result="hardAlpha"/><feMorphology radius="10" in="SourceAlpha" result="effect1_dropShadow_0_4910"/><feOffset dx="10" dy="10"/><feGaussianBlur stdDeviation="12.5"/><feColorMatrix values="0 0 0 0 0.212302 0 0 0 0 0.32521 0 0 0 0 0.419299 0 0 0 0.25 0"/><feBlend in2="BackgroundImageFix" result="effect1_dropShadow_0_4910"/><feBlend in="SourceGraphic" in2="effect1_dropShadow_0_4910" result="shape"/></filter></defs></svg>