<svg width="140" height="27" fill="none" xmlns="http://www.w3.org/2000/svg"><path fill-rule="evenodd" clip-rule="evenodd" d="M39.457 0H22.851l-.754 2.021c6.584.315 11.818 5.303 11.818 11.409 0 5.676-4.522 10.385-10.447 11.274l-.71 2.169h16.7a3.488 3.488 0 0 0 2.497-1.045 3.616 3.616 0 0 0 1.036-2.537V3.57c0-1.99-1.583-3.57-3.534-3.57ZM9.054 13.43c0 4.998 3.517 9.408 8.41 11.01l-.854 2.433H3.525C1.578 26.873 0 25.248 0 23.263V3.598C-.001 1.614 1.577.004 3.525.001h13.508l-.847 2.4c-4.078 2.204-7.132 6.637-7.132 11.03Zm122.499 2.961h-7.715v10.59h7.668c2.777 0 2.964-2.731 2.964-4.217V19.65c0-1.87-.941-3.259-2.917-3.259Zm.518 6.661v-3.02c.048-.669-.422-1.436-1.129-1.436h-4.706v6.18h4.518c.846 0 1.317-.814 1.317-1.724Zm-11.546-.187c.567-.482.944-1.202.944-3.126 0-2.164-1.463-3.366-3.161-3.366h-6.938v10.626h2.36v-3.126h4.057c.945 0 1.417.77 1.417 1.203v1.922h2.265v-2.211c0-.625-.189-1.538-.944-1.922Zm-6.796-1.202h4.341c.898 0 1.133-1.107 1.133-1.635 0-.53-.235-1.443-1.416-1.443h-4.058v3.078Zm-8.917-5.27h-3.104l-4.186 9.1v1.486h1.881l.847-1.916h6.011l.857 1.916h2.447l-4.753-10.585Zm-1.552 1.965-2.022 4.502h4.036l-2.014-4.502ZM86.61 26.99V16.383h2.405v3.984h1.036l4.1-3.984h3.204l-5.043 4.992 4.193 4.223v1.392h-1.79l-4.475-4.416h-1.225v4.416H86.61Zm-12.626-2.505v-5.598c0-1.195 1.268-2.487 2.396-2.487h5.78c1.505.047 2.396 1.627 2.396 2.536v.908h-2.395c-.049-.479-.47-1.195-.847-1.195H77.18c-.94 0-.798.956-.798.956v4.21c0 .766.469.957.751.957h4.088c.893 0 .988-.765.988-1.244h2.349v.957c0 1.58-1.08 2.488-2.395 2.488h-5.734c-1.786 0-2.444-1.388-2.444-2.488Zm-5.82-8.112h-3.115L60.188 27h2.548l.85-1.923h6.03l.86 1.923h2.454l-4.767-10.627Zm-1.558 1.97-2.03 4.522h4.012l-1.982-4.521Zm-9.113-1.954h-7.579v10.595h2.4v-2.973h5.178c1.413 0 3.013-.814 3.013-3.787.001-3.02-1.741-3.835-3.012-3.835Zm-5.178 5.418h4.613c1.036 0 1.036-1.103 1.036-1.582 0-.48 0-1.63-1.177-1.63h-4.472v3.212ZM49.915.174v10.595h2.4v-4.22h6.26v4.22h2.4V.174h-2.4v4.17h-6.26V.175h-2.4ZM65.092.167h8.01v2.21h-7.256v1.968h6.032v2.208h-6.032v2.016h7.257v2.207h-8.152c-.943 0-1.508-.768-1.508-1.392V1.751c0-.96.565-1.584 1.65-1.584Zm27.353.01v9.007c0 .815.612 1.581 1.695 1.581h7.058V8.561h-6.352V.178h-2.4Zm27.336 2.198v8.401h-2.403V2.375h-3.465V.165h9.38v2.21h-3.512Zm11.115 8.408V2.37h3.515V.158h-9.389V2.37h3.468v8.413h2.406ZM104.148.171h8.005v2.206h-7.252v1.967h6.028V6.55h-6.028v2.015h7.252v2.206h-8.147c-.942 0-1.507-.767-1.507-1.391V1.755c0-.96.565-1.584 1.649-1.584Zm-18.26 10.616c-.709 0-1.392-1.082-1.535-1.611l-1.77-5.556-2.313 7.168h-1.463c-.709 0-1.323-1.106-1.465-1.635L74.462.156h2.408l2.22 7.264L81.45.204h2.266l2.36 7.216L88.295.156h2.409l-3.4 10.632h-1.416v-.001ZM137.664.094a2.24 2.24 0 0 1 1.653.692c.454.462.683 1.021.683 1.677a2.332 2.332 0 0 1-.683 1.686 2.228 2.228 0 0 1-1.653.699 2.214 2.214 0 0 1-1.65-.699 2.329 2.329 0 0 1-.676-1.686 2.314 2.314 0 0 1 .682-1.677 2.223 2.223 0 0 1 1.644-.692Zm1.421 3.825a1.91 1.91 0 0 1-1.421.602 1.903 1.903 0 0 1-1.42-.602 2.017 2.017 0 0 1-.582-1.457c0-.565.195-1.047.585-1.446.391-.401.863-.602 1.418-.602.554 0 1.029.2 1.42.602.39.399.585.881.585 1.446 0 .57-.195 1.055-.585 1.457ZM18.326 0 12 18v.002h2.672l3.093-8.664h.843c.561 0 .561.416.468.88l-2.765 7.784h2.765s2.39-6.579 2.812-7.97c.421-1.39-.422-2.085-2.062-2.085h-1.594L21.044 0h-2.718Zm6.133 7.902h4.373c1.316 0 2.68.698 1.976 2.606l-2.023 5.676c-.375 1.07-.705 1.815-2.68 1.815h-2.473L20.838 26h-2.68l6.301-18.098Zm3.621 2.094s-1.975 5.536-2.022 5.816c-.047.28-.283.79-.753.79H24.12l2.55-7.304h1.176c.423 0 .376.326.235.698Z" fill="#fff"/></svg>