<svg width="145" height="31" fill="none" xmlns="http://www.w3.org/2000/svg"><path fill-rule="evenodd" clip-rule="evenodd" d="M15 15H0V0h15v15Zm130-.939V11.54h-3.144V7.62l-.105.033-2.953.9-.058.017v2.97h-4.66V9.885c0-.77.173-1.36.514-1.753.338-.388.822-.586 1.44-.586.444 0 .903.105 1.366.31l.116.052V5.252l-.055-.02c-.431-.154-1.018-.232-1.746-.232-.916 0-1.75.199-2.476.593a4.22 4.22 0 0 0-1.699 1.673c-.4.715-.602 1.54-.602 2.455v1.819h-2.189v2.521h2.189v10.622h3.142V14.06h4.66v6.75c0 2.78 1.316 4.189 3.913 4.189.426 0 .875-.05 1.334-.148.467-.1.785-.2.972-.306l.041-.025v-2.544l-.128.084c-.17.113-.383.205-.632.274a2.41 2.41 0 0 1-.62.105c-.609 0-1.059-.163-1.338-.485-.282-.325-.425-.894-.425-1.689v-6.205H145Zm-23.268 8.38c-1.14 0-2.04-.377-2.673-1.119-.638-.746-.961-1.809-.961-3.16 0-1.393.323-2.484.961-3.243.634-.754 1.525-1.136 2.647-1.136 1.09 0 1.957.365 2.579 1.086.624.725.941 1.807.941 3.217 0 1.428-.298 2.524-.886 3.257-.583.728-1.461 1.098-2.608 1.098Zm-4.996-9.33c1.232-1.253 2.96-1.888 5.136-1.888 2.049 0 3.675.608 4.831 1.806 1.155 1.198 1.741 2.865 1.741 4.955 0 2.116-.624 3.833-1.856 5.102-1.231 1.27-2.925 1.913-5.034 1.913-2.024 0-3.66-.61-4.863-1.817-1.202-1.206-1.811-2.86-1.811-4.919 0-2.166.624-3.9 1.856-5.152Zm-6.922-1.888c-1.48 0-2.705.377-3.64 1.12-.941.749-1.418 1.73-1.418 2.917 0 .617.103 1.165.306 1.63.204.466.519.877.939 1.221.416.342 1.058.7 1.909 1.064.716.294 1.25.542 1.589.738.331.191.566.384.699.571.129.184.195.435.195.745 0 .883-.664 1.313-2.03 1.313-.507 0-1.085-.105-1.718-.313a6.467 6.467 0 0 1-1.759-.889l-.13-.093v3.014l.047.022c.445.204 1.006.377 1.666.512.66.136 1.259.205 1.779.205 1.606 0 2.9-.379 3.843-1.127.95-.753 1.432-1.757 1.432-2.985 0-.886-.26-1.646-.77-2.258-.508-.608-1.388-1.166-2.616-1.66-.978-.39-1.605-.715-1.863-.964-.25-.24-.376-.581-.376-1.013 0-.382.156-.688.477-.936.323-.25.773-.376 1.337-.376a5.5 5.5 0 0 1 1.592.244c.532.161 1 .378 1.39.642l.128.087v-2.858l-.049-.021c-.36-.154-.835-.285-1.412-.392a8.64 8.64 0 0 0-1.547-.16Zm-15.923 10.1c.634.741 1.533 1.118 2.673 1.118 1.148 0 2.025-.37 2.609-1.098.587-.733.885-1.83.885-3.257 0-1.41-.316-2.492-.94-3.217-.622-.72-1.49-1.086-2.579-1.086-1.123 0-2.014.382-2.647 1.136-.638.759-.96 1.85-.96 3.243 0 1.352.322 2.414.96 3.16Zm2.814-10.1c-2.177 0-3.905.635-5.137 1.888-1.231 1.252-1.856 2.986-1.856 5.152 0 2.059.61 3.713 1.812 4.92 1.202 1.205 2.838 1.816 4.862 1.816 2.11 0 3.803-.643 5.035-1.913 1.231-1.269 1.855-2.986 1.855-5.102 0-2.09-.585-3.757-1.741-4.955-1.156-1.198-2.781-1.806-4.83-1.806Zm-11.763.317v2.276h.034c.29-.739.669-1.331 1.194-1.763a3.189 3.189 0 0 1 2.076-.741c.517 0 .926.062 1.215.184l.05.021v3.117l-.13-.094c-.144-.103-.388-.201-.724-.291a3.656 3.656 0 0 0-.933-.137c-.825 0-1.5.355-2.008 1.056-.513.71-.773 1.648-.773 2.791v6.724h-3.104V11.54h3.103Zm-8.662-.317c-1.424 0-2.694.304-3.774.904a6.1 6.1 0 0 0-2.49 2.55c-.567 1.088-.855 2.359-.855 3.777 0 1.241.28 2.381.831 3.385a5.829 5.829 0 0 0 2.323 2.34c.988.545 2.13.82 3.393.82 1.475 0 2.735-.293 3.745-.872l.04-.023V21.27l-.13.095a5.84 5.84 0 0 1-1.519.788c-.548.19-1.048.287-1.487.287-1.218 0-2.196-.38-2.905-1.128-.712-.75-1.072-1.802-1.072-3.126 0-1.332.376-2.411 1.117-3.208.739-.794 1.719-1.196 2.911-1.196 1.02 0 2.014.344 2.955 1.023l.13.094v-2.984l-.042-.024c-.354-.197-.836-.36-1.436-.483a8.61 8.61 0 0 0-1.735-.186Zm-12.36.317h3.104v13.143H63.92V11.54Zm1.584-5.599c-.511 0-.957.173-1.323.517a1.701 1.701 0 0 0-.554 1.289c0 .503.184.929.548 1.264.362.334.81.503 1.329.503.52 0 .968-.17 1.334-.503.368-.335.555-.76.555-1.264 0-.494-.182-.923-.54-1.276-.358-.352-.812-.53-1.35-.53Zm-7.745 18.742V10.57h-.102l-5.621 14.113h-2.247l-5.71-14.114h-.102v14.113H41V6.343h4.563l5.407 13.622 5.573-13.622h4.384v18.34h-3.168ZM16 15h15V0H16v15Zm-1 16H0V16h15v15Zm1 0h15V16H16v15Z" fill="#fff"/></svg>