<svg width="40" height="50" fill="none" xmlns="http://www.w3.org/2000/svg"><path fill-rule="evenodd" clip-rule="evenodd" d="m26.994 3.38-3.103 9.043H6.218L3.114 3.38 8.257 0l3.399 2.233L15.054 0l3.399 2.233L21.85 0l5.143 3.38ZM6.8 15.335h16.506v2.913H6.801v-2.913Zm15.147 16.895h7.404c-.153-.427-.328-.85-.526-1.266l-4.668-9.803H5.95l-4.668 9.803a13.04 13.04 0 0 0 .75 12.634 13.04 13.04 0 0 0 11.084 6.11h3.874c.69 0 1.372-.054 2.044-.158v-8.58h2.913v-8.74Zm-3.285 4.654a2.634 2.634 0 0 1-.725.916 3.16 3.16 0 0 1-1.026.54 5.065 5.065 0 0 1-1.194.222v1.63h-1.073v-1.657a8.76 8.76 0 0 1-1.838-.364 7.56 7.56 0 0 1-1.637-.714l1.127-2.304c.242.153.501.296.778.431.233.117.503.231.812.344.309.112.624.19.946.235V34.98a9.69 9.69 0 0 1-.832-.256 6.957 6.957 0 0 1-1.086-.465 2.937 2.937 0 0 1-.752-.566 2.023 2.023 0 0 1-.436-.72 2.816 2.816 0 0 1-.141-.93c0-.486.08-.915.242-1.287.16-.373.38-.694.657-.964s.601-.485.973-.647a4.036 4.036 0 0 1 1.187-.31v-1.36h1.073v1.374c.295.036.581.09.859.162.277.072.543.155.798.249s.494.193.718.296c.224.104.429.2.617.29l-1.127 2.17a5.534 5.534 0 0 0-.644-.35 5.565 5.565 0 0 0-.664-.277 4.957 4.957 0 0 0-.745-.195v1.212c.08.019.166.043.255.075.09.031.184.06.282.087.438.135.834.283 1.187.445.354.161.656.352.906.572.25.22.443.488.577.802.134.315.201.696.201 1.146 0 .53-.092.98-.275 1.353Zm-4.367-5.275c0 .135.045.245.134.33.09.086.224.164.403.236v-1.024c-.358.045-.537.198-.537.458Zm1.234 3.598v.997c.215-.018.367-.063.456-.135a.345.345 0 0 0 .135-.283.427.427 0 0 0-.161-.33 1.496 1.496 0 0 0-.43-.25Zm9.331-.064h15.05v5.826H24.86v-5.826Zm12.137 8.739h-15.05v5.826h15.05v-5.826Z" fill="#EDF3F8"/></svg>