<svg width="137" height="26" fill="none" xmlns="http://www.w3.org/2000/svg"><path fill-rule="evenodd" clip-rule="evenodd" d="M14.54 0v3.501l.69-.043c8.856-.304 14.64 7.321 14.64 7.321s-6.63 8.131-13.535 8.131c-.603 0-1.192-.058-1.78-.159v2.17c.488.058.99.102 1.479.102 6.43 0 11.08-3.314 15.588-7.22.337.274 1.144.722 1.987 1.19 1.025.569 2.102 1.166 2.448 1.516-4.277 3.617-14.253 6.525-19.909 6.525-.545 0-1.062-.029-1.579-.087V26H39V0H14.54Zm0 7.755V5.412h.015V5.41c.225-.014.45-.028.675-.028 6.373-.202 10.55 5.527 10.55 5.527s-4.507 6.309-9.345 6.309a5.885 5.885 0 0 1-1.88-.304V9.795c2.338.286 2.92 1.278 4.214 3.482l.25.425 3.316-2.807s-2.426-3.198-6.503-3.198a9.65 9.65 0 0 0-1.291.058Zm0 0v2.026h-.014c-2.483-.304-4.435 2.04-4.435 2.04s1.105 3.95 4.45 5.093v1.852c-5.943-1.071-7.594-7.307-7.594-7.307s2.857-3.183 7.594-3.704Zm.015-2.345-.014.001v.001C7.502 5.968 3.99 11.2 3.99 11.2s2.684 8.739 10.55 9.723v2.025C3.818 21.934 0 10.794 0 10.794S6.746 4.138 14.555 3.5v1.91ZM46 5v16.986h4.852V8.796l3.783.015c1.242 0 2.108.302 2.7.935.766.806 1.069 2.114 1.069 4.487v7.753h4.707v-9.378C63.111 5.906 58.823 5 54.635 5H46Zm37.832.029V22h4.809V5.029h-4.809ZM91.587 22V5.029h6.743c3.841 0 6.411.46 8.173 2.833.996 1.323 1.56 3.452 1.56 5.84 0 2.603-.665 4.99-1.704 6.069C104.9 21.31 103.543 22 99.384 22h-7.797Zm4.765-13.29h2.065c3.003 0 4.938 1.338 4.938 4.819 0 3.48-1.935 4.832-4.938 4.832h-2.065v-9.65Zm-23.465 9.766L76.901 5.03h4.91L76.266 22h-6.931L63.848 5.029h5.198l3.841 13.447ZM110.315 22h4.809V5.029h-4.809V22Zm6.772-.014 6.715-16.957h6.426L137 21.97h-5.155l-1.011-2.991h-7.942l-1.068 3.006h-4.737Zm9.834-13.865 2.917 7.94h-5.921l3.004-7.94Z" fill="#fff"/></svg>