<svg width="131" height="17" fill="none" xmlns="http://www.w3.org/2000/svg"><path fill-rule="evenodd" clip-rule="evenodd" d="M56.554 11.06h8.656l-4.577-7.351-8.4 13.29h-3.824L58.627 1.036A2.416 2.416 0 0 1 60.633 0c.794 0 1.534.376 1.965 1.008L72.856 17h-3.823l-1.803-2.97h-8.764l-1.912-2.97Zm39.713 2.97V.16h-3.244v15.226c0 .417.162.82.471 1.129.31.309.727.484 1.185.484h14.795l1.912-2.97H96.267ZM48.301 5.86c0 3.144-2.557 5.683-5.708 5.683v.001h-1.48L47.627 17h-4.712l-9.684-8.426 9.146.013a2.72 2.72 0 0 0 2.72-2.727 2.721 2.721 0 0 0-2.72-2.729H31.643V17H28.4V.16h14.193c3.15 0 5.708 2.554 5.708 5.7ZM8.436 17C3.779 17 0 13.237 0 8.587S3.779.161 8.436.161h9.804c4.658 0 8.434 3.776 8.434 8.426S22.898 17 18.24 17H8.436Zm15.047-8.413c0 3.01-2.444 5.443-5.46 5.443H8.651c-3.015 0-5.46-2.433-5.46-5.443a5.46 5.46 0 0 1 5.46-5.456h9.37a5.46 5.46 0 0 1 5.46 5.456ZM79.627 17c-4.658 0-8.44-3.763-8.44-8.413S74.97.161 79.627.161h11.645l-1.898 2.97h-9.531c-3.016 0-5.466 2.446-5.466 5.456 0 3.01 2.45 5.443 5.466 5.443h11.698L89.63 17H79.628Zm34.423-6.935a5.45 5.45 0 0 0 5.251 3.965H131L129.088 17h-10.002c-4.658 0-8.441-3.763-8.441-8.413S114.428.16 119.086.16h11.658l-1.924 2.97h-9.518a5.466 5.466 0 0 0-5.251 3.965h15.778l-1.912 2.97h-13.866Z" fill="#fff"/></svg>