<svg width="419" height="660" fill="none" xmlns="http://www.w3.org/2000/svg"><g filter="url(#a)"><path fill-rule="evenodd" clip-rule="evenodd" d="M88.776 55.57h191.233c18.341 0 33.208 14.235 33.208 31.795v435.27c0 17.56-14.867 31.796-33.208 31.796H88.776c-18.34 0-33.208-14.236-33.208-31.796V87.365c0-17.56 14.868-31.795 33.208-31.795Z" fill="#213648"/></g><g fill-rule="evenodd" clip-rule="evenodd"><path opacity=".596" d="M280.749 55H87.923c-9.003.549-17.306 4.657-24.908 12.324 4.89-4.268 13.61-9.98 25.14-9.98h192.362c11.529 0 20.25 5.712 25.139 9.98-7.602-7.667-15.905-11.775-24.907-12.324Z" fill="url(#b)" fill-opacity=".65"/><path opacity=".75" d="M307.999 517.671V89.981c0-11.474-4.217-15.717-6.733-18.44-2.516-2.724-2.623-4.114.992-2.057 3.615 2.056 10.845 8.047 10.845 20.498V517.67c0 12.451-7.23 18.441-10.845 20.498-3.615 2.056-3.508.667-.992-2.057s6.733-6.966 6.733-18.441Z" fill="url(#c)"/><path opacity=".75" d="M60.672 517.671V89.981c0-11.474 4.217-15.717 6.733-18.44 2.516-2.724 2.623-4.114-.992-2.057-3.615 2.056-10.845 8.047-10.845 20.498V517.67c0 12.451 7.23 18.441 10.845 20.498 3.615 2.056 3.508.667.992-2.057s-6.733-6.966-6.733-18.441Z" fill="url(#d)"/></g><g fill-rule="evenodd" clip-rule="evenodd" fill="#2E423C"><path d="M53 158.557a2 2 0 0 1 2-2h.965a2 2 0 0 1 2 2v60.35a2 2 0 0 1-2 2H55a2 2 0 0 1-2-2v-60.35ZM310.535 211.043a2 2 0 0 1 2-2h.965a2 2 0 0 1 2 2v42.95a2 2 0 0 1-2 2h-.965a2 2 0 0 1-2-2v-42.95Z"/></g><g><path fill-rule="evenodd" clip-rule="evenodd" d="M161.676 67.445H87.27c-11.105 0-19.196 7.563-19.196 17.44v422.391c0 12.88 12.502 24.291 26.64 24.291h179.332c13.618 0 26.64-11.5 26.64-24.291V86.028c0-11.84-8.79-18.513-19.196-18.584h-75.586c-.286.047-5.479 2.182-7.673 7.564-2.195 5.381-6.61 9.671-11.444 9.671h-5.615c-2.298 0-8.348-2.23-11.412-9.671-3.063-7.442-7.797-7.517-8.084-7.563Z" fill="#36536B"/><mask id="e" style="mask-type:alpha" maskUnits="userSpaceOnUse" x="68" y="67" width="233" height="465"><path fill-rule="evenodd" clip-rule="evenodd" d="M161.676 67.445H87.27c-11.105 0-19.196 7.563-19.196 17.44v422.391c0 12.88 12.502 24.291 26.64 24.291h179.332c13.618 0 26.64-11.5 26.64-24.291V86.028c0-11.84-8.79-18.513-19.196-18.584h-75.586c-.286.047-5.479 2.182-7.673 7.564-2.195 5.381-6.61 9.671-11.444 9.671h-5.615c-2.298 0-8.348-2.23-11.412-9.671-3.063-7.442-7.797-7.517-8.084-7.563Z" fill="#fff"/></mask></g><g><g filter="url(#f)"><rect x="96" y="197" width="176" height="191" rx="5" fill="#FBFCFE"/></g><path d="M129.597 315v-9.399h3.179c.672 0 1.27.113 1.794.338.524.225.936.559 1.235 1.001.303.442.455.986.455 1.631 0 .624-.141 1.157-.423 1.599a2.646 2.646 0 0 1-1.163 1.008c-.498.23-1.077.344-1.736.344h-2.106V315h-1.235Zm1.229-4.492h2.086c.646 0 1.17-.179 1.573-.539.403-.36.605-.849.605-1.469 0-.624-.208-1.096-.624-1.417-.416-.321-.953-.481-1.612-.481h-2.028v3.906Zm8.434 4.622c-.433 0-.817-.076-1.151-.228a1.866 1.866 0 0 1-.786-.669c-.186-.29-.28-.641-.28-1.053 0-.745.26-1.3.78-1.664.52-.364 1.355-.559 2.503-.585l1.202-.033v-.526c0-.412-.123-.737-.37-.975-.247-.243-.631-.364-1.151-.364a1.976 1.976 0 0 0-1.02.273c-.29.178-.479.468-.566.871h-1.059c.026-.438.149-.806.37-1.105.221-.303.529-.533.923-.689.399-.156.869-.234 1.411-.234.585 0 1.07.082 1.456.247.39.165.68.407.871.728.195.321.292.715.292 1.183V315h-1.027l-.084-1.261c-.26.524-.592.888-.995 1.092a2.909 2.909 0 0 1-1.319.299Zm.364-.865c.225 0 .448-.041.669-.123.226-.082.432-.193.618-.332.186-.143.334-.301.442-.474a1.05 1.05 0 0 0 .175-.546v-1.151l-1.001.02c-.511.009-.94.061-1.287.156-.342.095-.6.245-.773.448-.169.204-.254.471-.254.8 0 .377.13.672.39.884.265.212.605.318 1.021.318Zm5.462 2.88c-.394 0-.665-.028-.813-.084l-.221-.085v-.78l.683.013c.251.009.459-.009.624-.052.165-.043.297-.102.396-.175a.812.812 0 0 0 .228-.247c.056-.091.102-.178.136-.26l.234-.638-2.626-6.558h1.216l1.982 5.187 1.97-5.187h1.176l-2.834 7.228c-.173.425-.368.756-.585.995-.212.238-.45.405-.715.5a2.46 2.46 0 0 1-.851.143Zm6.169-2.145v-6.721h1.157v.975a2.65 2.65 0 0 1 .767-.774c.325-.221.747-.331 1.267-.331.243 0 .49.041.741.123.256.083.49.206.702.371.212.165.377.366.494.604.208-.329.49-.593.845-.793a2.38 2.38 0 0 1 1.203-.305c.234 0 .478.037.734.11.256.07.492.195.709.377.221.178.4.427.539.748.139.316.208.724.208 1.222V315h-1.209v-4.277c0-.407-.065-.722-.195-.943a1.083 1.083 0 0 0-.513-.474 1.656 1.656 0 0 0-.67-.137 2.01 2.01 0 0 0-.663.124 1.363 1.363 0 0 0-.598.416c-.165.195-.247.461-.247.799V315h-1.196v-4.628c0-.264-.071-.485-.214-.663a1.314 1.314 0 0 0-.527-.403 1.547 1.547 0 0 0-.624-.137c-.23 0-.461.046-.695.137-.23.091-.425.236-.585.435-.156.195-.234.451-.234.767V315h-1.196Zm12.006-3.081c0 .425.069.81.208 1.157.143.342.357.615.643.819.29.204.652.305 1.086.305.429 0 .797-.099 1.105-.299.312-.199.511-.487.598-.864h1.137a2.283 2.283 0 0 1-.546 1.151 2.738 2.738 0 0 1-1.02.708 3.397 3.397 0 0 1-1.248.234c-.629 0-1.181-.136-1.658-.41a2.847 2.847 0 0 1-1.118-1.176c-.269-.511-.403-1.125-.403-1.84 0-.706.121-1.326.364-1.859a2.871 2.871 0 0 1 1.053-1.248c.464-.299 1.021-.448 1.671-.448.632 0 1.167.136 1.605.409.438.273.769.659.995 1.157.229.494.344 1.082.344 1.762v.442h-4.816Zm.006-.813h3.653c0-.385-.065-.732-.195-1.04a1.589 1.589 0 0 0-.598-.734c-.264-.182-.598-.273-1.001-.273-.42 0-.769.102-1.046.305a1.88 1.88 0 0 0-.618.774 2.357 2.357 0 0 0-.195.968Zm6.361 3.894v-6.721h1.163v.975c.109-.186.258-.362.449-.527.195-.164.429-.296.702-.396.277-.1.596-.15.955-.15.425 0 .815.085 1.17.254.36.169.646.433.858.793.217.355.325.815.325 1.378V315h-1.202v-4.277c0-.524-.139-.912-.416-1.164-.273-.255-.629-.383-1.066-.383-.304 0-.587.05-.852.149a1.46 1.46 0 0 0-.643.442c-.165.195-.247.442-.247.741V315h-1.196Zm10.5-5.844h-1.515v4.18c0 .238.024.414.072.526a.369.369 0 0 0 .253.208c.122.031.286.046.494.046h.735v.806c-.082.03-.208.056-.377.078a4.805 4.805 0 0 1-.618.033c-.463 0-.823-.063-1.079-.189a1.079 1.079 0 0 1-.539-.559c-.1-.247-.15-.55-.15-.91v-4.219h-1.092v-.877h1.125l.292-1.957h.884v1.95h1.515v.884Zm7.03 5.974c-.62 0-1.162-.132-1.625-.397a2.699 2.699 0 0 1-1.079-1.176c-.256-.516-.384-1.146-.384-1.892 0-.702.119-1.317.358-1.846a2.749 2.749 0 0 1 1.046-1.228c.464-.295 1.025-.442 1.684-.442.619 0 1.157.136 1.612.409.459.269.814.666 1.066 1.19.251.524.377 1.163.377 1.917 0 .685-.117 1.287-.351 1.807-.23.52-.572.928-1.027 1.222-.451.291-1.01.436-1.677.436Zm0-.949c.403 0 .743-.102 1.02-.306.277-.203.488-.496.631-.877.143-.381.214-.834.214-1.359 0-.481-.063-.912-.188-1.293a1.917 1.917 0 0 0-.605-.917c-.273-.225-.63-.338-1.072-.338-.408 0-.752.102-1.034.306-.282.199-.496.49-.643.871-.143.381-.215.838-.215 1.371 0 .473.065.902.195 1.287.13.386.334.692.611.917.277.225.639.338 1.086.338Zm8.07-5.902v.877h-1.632V315h-1.209v-5.844h-1.417v-.877h1.417v-1.04c0-.533.137-.938.41-1.216.273-.281.68-.422 1.222-.422h1.267l.007.851h-1.008c-.273 0-.459.074-.559.221-.099.148-.149.371-.149.67v.936h1.651Zm7.882 6.851c-1.126 0-2.041-.225-2.743-.676-.702-.455-1.105-1.155-1.209-2.1l1.976-.039c.104.429.327.757.67.982.346.221.78.331 1.3.331.312 0 .587-.049.825-.149.243-.104.434-.243.572-.416a.955.955 0 0 0 .208-.605c0-.346-.11-.604-.331-.773-.221-.173-.561-.312-1.021-.416l-1.54-.331c-.715-.144-1.289-.427-1.723-.852-.429-.429-.648-1.003-.656-1.723-.005-.589.154-1.098.474-1.527.325-.433.765-.767 1.32-1.001.559-.234 1.185-.351 1.878-.351.711 0 1.324.128 1.84.383.52.252.918.592 1.196 1.021.281.425.418.895.409 1.41l-1.917.033c-.061-.416-.2-.743-.416-.982-.217-.238-.577-.357-1.079-.357-.26 0-.492.028-.696.084a1.699 1.699 0 0 0-.526.241c-.148.1-.26.219-.338.357a.98.98 0 0 0-.111.468c0 .273.091.49.273.65.187.156.535.302 1.047.436l1.514.37c.854.204 1.469.553 1.846 1.047.382.494.572 1.094.572 1.8 0 .542-.149 1.014-.448 1.417-.295.403-.713.715-1.255.936-.541.222-1.178.332-1.911.332Zm-.812-10.875h1.644v1.69h-1.644v-1.69Zm-.033 10.296h1.638v1.691h-1.638v-1.691Zm9.022.592a3.992 3.992 0 0 1-1.638-.338 3.21 3.21 0 0 1-1.242-.949c-.32-.412-.5-.893-.539-1.443h1.807c.078.364.251.661.52.89.269.226.607.338 1.014.338.451 0 .845-.106 1.183-.318.342-.212.598-.55.767-1.014.173-.464.234-1.07.182-1.82-.121.23-.29.431-.507.604a2.406 2.406 0 0 1-.748.397 3.139 3.139 0 0 1-.955.136c-.637 0-1.203-.119-1.697-.357a2.84 2.84 0 0 1-1.157-1.027c-.277-.446-.416-.975-.416-1.586 0-.615.148-1.164.442-1.645a3.066 3.066 0 0 1 1.235-1.131c.529-.273 1.149-.409 1.859-.409.798 0 1.485.191 2.061.572.581.377 1.025.914 1.332 1.612.312.693.468 1.51.468 2.45 0 1.123-.16 2.059-.481 2.808-.316.746-.771 1.305-1.365 1.677-.593.369-1.302.553-2.125.553Zm.169-5.025a1.917 1.917 0 0 0 1.384-.63c.161-.182.241-.371.241-.566.004-.42-.063-.78-.202-1.079a1.548 1.548 0 0 0-.572-.695 1.509 1.509 0 0 0-.851-.241 1.47 1.47 0 0 0-1.352.793 1.827 1.827 0 0 0-.202.871c0 .49.143.871.429 1.144.286.269.661.403 1.125.403Zm5.011 4.882v-1.417c0-.477.089-.888.267-1.235.177-.351.411-.654.702-.91a5.56 5.56 0 0 1 .962-.683c.351-.195.702-.379 1.053-.552.351-.173.671-.347.962-.52.294-.178.531-.375.708-.592.178-.216.267-.472.267-.767 0-.377-.132-.684-.397-.923-.26-.238-.617-.357-1.072-.357-.473 0-.873.136-1.203.409-.329.273-.533.685-.611 1.235h-1.813a3.394 3.394 0 0 1 .416-1.625c.273-.489.68-.877 1.222-1.163.541-.286 1.222-.429 2.041-.429.702 0 1.306.119 1.813.357.512.239.906.57 1.183.995.278.425.416.921.416 1.488 0 .473-.086.88-.26 1.222a2.785 2.785 0 0 1-.689.878c-.286.243-.6.455-.942.637-.343.182-.685.351-1.027.507-.338.156-.65.316-.936.481-.286.16-.516.342-.689.546-.174.204-.26.448-.26.734v.085h4.79V315h-6.903Zm11.617-9.529c1.118 0 2 .418 2.645 1.254.646.832.969 2.031.969 3.595 0 1.556-.319 2.749-.956 3.581-.637.828-1.523 1.242-2.658 1.242-1.14 0-2.031-.414-2.672-1.242-.637-.827-.955-2.019-.955-3.575 0-1.04.147-1.921.442-2.645.294-.724.712-1.272 1.254-1.645.542-.377 1.185-.565 1.931-.565Zm0 8.118c.559 0 .968-.249 1.228-.747.26-.503.39-1.341.39-2.516 0-1.2-.132-2.06-.396-2.58-.265-.52-.674-.78-1.229-.78s-.968.262-1.241.786c-.269.525-.403 1.383-.403 2.574 0 1.17.134 2.007.403 2.509.268.503.684.754 1.248.754Zm8.871-7.988h1.866v5.727h1.449v1.592h-1.449V315h-1.827l.007-2.08h-4.329v-1.56l4.283-5.759Zm-2.528 5.727h2.574v-3.446l-2.574 3.446Zm-98.122 14.951V333h-1.163v-6.721h1.163Zm.026-2.672v1.248h-1.228v-1.248h1.228Zm4.375 9.523c-.468 0-.904-.071-1.307-.215a2.361 2.361 0 0 1-.994-.682c-.264-.312-.431-.709-.501-1.19h1.092c.061.265.169.486.325.663.161.174.36.306.598.397.239.087.499.13.78.13.451 0 .815-.085 1.092-.254.278-.169.416-.429.416-.78 0-.247-.073-.444-.221-.591-.143-.152-.366-.262-.669-.332l-1.391-.344c-.542-.13-.975-.334-1.3-.611-.325-.277-.488-.665-.488-1.164a1.854 1.854 0 0 1 .28-1.04c.191-.299.477-.535.858-.708.381-.173.856-.26 1.423-.26.728 0 1.316.165 1.762.494.451.325.685.804.702 1.436h-1.06a1.095 1.095 0 0 0-.435-.76c-.243-.191-.57-.286-.982-.286-.429 0-.777.087-1.046.26-.269.169-.403.433-.403.793a.66.66 0 0 0 .286.565c.191.135.472.247.845.338l1.345.339c.312.082.568.19.767.324.204.135.364.284.481.449.122.165.206.338.254.52.052.178.078.349.078.513 0 .412-.104.767-.312 1.066-.204.295-.498.525-.884.689-.381.161-.845.241-1.391.241Zm9.525-6.981c.481 0 .914.093 1.3.279.386.182.7.442.943.78.247.338.4.737.461 1.196h-1.066a1.487 1.487 0 0 0-.273-.643 1.505 1.505 0 0 0-.552-.468 1.756 1.756 0 0 0-.806-.176c-.577 0-1.045.208-1.404.624-.36.416-.54 1.053-.54 1.911 0 .776.165 1.398.494 1.866.334.464.823.695 1.469.695.308 0 .574-.058.8-.175a1.56 1.56 0 0 0 .552-.475c.139-.199.228-.411.267-.637h1.046a2.404 2.404 0 0 1-1.404 1.937c-.381.178-.81.267-1.287.267-.602 0-1.137-.132-1.605-.397a2.742 2.742 0 0 1-1.092-1.17c-.265-.515-.397-1.148-.397-1.898 0-.702.119-1.315.358-1.839.242-.529.593-.94 1.053-1.235.463-.295 1.024-.442 1.683-.442Zm6.901 6.981c-.619 0-1.161-.132-1.625-.397a2.71 2.71 0 0 1-1.079-1.176c-.255-.516-.383-1.146-.383-1.892 0-.702.119-1.317.357-1.846a2.757 2.757 0 0 1 1.047-1.228c.464-.295 1.025-.442 1.683-.442.62 0 1.157.136 1.612.409.46.269.815.666 1.066 1.19.252.524.377 1.163.377 1.917 0 .685-.117 1.287-.351 1.807-.229.52-.572.928-1.027 1.222-.45.291-1.009.436-1.677.436Zm0-.949c.403 0 .744-.102 1.021-.306.277-.203.487-.496.63-.877.143-.381.215-.834.215-1.359 0-.481-.063-.912-.189-1.293a1.908 1.908 0 0 0-.604-.917c-.273-.225-.631-.338-1.073-.338-.407 0-.751.102-1.033.306-.282.199-.496.49-.644.871-.143.381-.214.838-.214 1.371 0 .473.065.902.195 1.287.13.386.334.692.611.917.277.225.639.338 1.085.338Zm4.529.819v-6.721h1.157v.975a2.65 2.65 0 0 1 .767-.774c.325-.221.747-.331 1.267-.331.243 0 .49.041.741.123.256.083.49.206.702.371.213.165.377.366.494.604.208-.329.49-.593.845-.793a2.383 2.383 0 0 1 1.203-.305c.234 0 .479.037.734.11a1.9 1.9 0 0 1 1.248 1.125c.139.316.208.724.208 1.222V333h-1.209v-4.277c0-.407-.065-.722-.195-.943a1.083 1.083 0 0 0-.513-.474 1.652 1.652 0 0 0-.67-.137 2.01 2.01 0 0 0-.663.124 1.363 1.363 0 0 0-.598.416c-.164.195-.247.461-.247.799V333h-1.196v-4.628c0-.264-.071-.485-.214-.663a1.308 1.308 0 0 0-.527-.403 1.547 1.547 0 0 0-.624-.137 1.91 1.91 0 0 0-.695.137c-.23.091-.425.236-.585.435-.156.195-.234.451-.234.767V333h-1.196Zm11.148 2.093v-8.814h1.196l.013 1.17c.078-.139.177-.284.299-.436.125-.151.277-.292.455-.422.182-.13.392-.236.63-.319.243-.082.518-.123.826-.123.537 0 1.009.123 1.417.37.411.243.732.616.962 1.118.229.503.344 1.14.344 1.911 0 .772-.112 1.424-.338 1.957-.221.529-.541.932-.962 1.209-.42.277-.927.416-1.521.416a2.281 2.281 0 0 1-1.404-.455 2.58 2.58 0 0 1-.429-.442 3.544 3.544 0 0 1-.279-.449v3.309h-1.209Zm3.094-2.899c.554 0 1.007-.21 1.358-.631.351-.424.527-1.083.527-1.976 0-.767-.161-1.375-.481-1.826-.321-.451-.789-.676-1.404-.676-.624 0-1.097.232-1.417.695-.321.46-.481 1.062-.481 1.807 0 .481.071.919.214 1.313.143.395.356.709.637.943.282.234.631.351 1.047.351Zm6.221.891c-.364 0-.659-.05-.884-.15a1.242 1.242 0 0 1-.513-.403 1.527 1.527 0 0 1-.241-.579 3.915 3.915 0 0 1-.058-.682v-7.93h1.183v7.813c0 .338.065.591.195.76.134.169.32.263.559.28l.364.006v.78c-.1.031-.204.055-.312.072a1.492 1.492 0 0 1-.293.033Zm2.819-3.166c0 .425.07.81.208 1.157.143.342.358.615.644.819.29.204.652.305 1.085.305.429 0 .798-.099 1.105-.299.312-.199.512-.487.598-.864h1.138a2.3 2.3 0 0 1-.546 1.151 2.733 2.733 0 0 1-1.021.708 3.39 3.39 0 0 1-1.248.234c-.628 0-1.181-.136-1.657-.41a2.84 2.84 0 0 1-1.118-1.176c-.269-.511-.403-1.125-.403-1.84 0-.706.121-1.326.364-1.859a2.858 2.858 0 0 1 1.053-1.248c.463-.299 1.02-.448 1.67-.448.633 0 1.168.136 1.606.409.437.273.769.659.994 1.157.23.494.345 1.082.345 1.762v.442h-4.817Zm.007-.813h3.653c0-.385-.065-.732-.195-1.04a1.595 1.595 0 0 0-.598-.734c-.265-.182-.598-.273-1.001-.273-.421 0-.769.102-1.047.305a1.87 1.87 0 0 0-.617.774c-.135.312-.2.635-.195.968Zm9.559-1.95h-1.514v4.18c0 .238.024.414.071.526a.37.37 0 0 0 .254.208c.121.031.286.046.494.046h.734v.806c-.082.03-.208.056-.377.078-.164.022-.37.033-.617.033-.464 0-.824-.063-1.079-.189a1.077 1.077 0 0 1-.54-.559c-.099-.247-.149-.55-.149-.91v-4.219h-1.092v-.877h1.124l.293-1.957h.884v1.95h1.514v.884Zm2.308 2.763c0 .425.069.81.208 1.157.143.342.357.615.643.819.29.204.652.305 1.086.305.429 0 .797-.099 1.105-.299.312-.199.511-.487.598-.864h1.137a2.283 2.283 0 0 1-.546 1.151 2.738 2.738 0 0 1-1.02.708 3.397 3.397 0 0 1-1.248.234c-.629 0-1.181-.136-1.658-.41a2.847 2.847 0 0 1-1.118-1.176c-.269-.511-.403-1.125-.403-1.84 0-.706.121-1.326.364-1.859a2.871 2.871 0 0 1 1.053-1.248c.464-.299 1.021-.448 1.671-.448.632 0 1.167.136 1.605.409.438.273.769.659.995 1.157.229.494.344 1.082.344 1.762v.442h-4.816Zm.006-.813h3.653c0-.385-.065-.732-.195-1.04a1.589 1.589 0 0 0-.598-.734c-.264-.182-.598-.273-1.001-.273-.42 0-.769.102-1.046.305a1.88 1.88 0 0 0-.618.774 2.357 2.357 0 0 0-.195.968Zm8.785 4.024c-.871 0-1.562-.299-2.073-.897-.512-.598-.767-1.471-.767-2.62 0-.697.102-1.306.305-1.826.208-.52.516-.923.923-1.209.408-.286.915-.429 1.521-.429.321 0 .605.041.852.123.251.083.468.187.65.312a2.244 2.244 0 0 1 .702.761v-4.004h1.209V333h-.917l-.13-1.378c-.043.13-.112.282-.208.455a2.133 2.133 0 0 1-.403.5 2.029 2.029 0 0 1-.669.397c-.269.104-.6.156-.995.156Zm.215-.923c.68 0 1.165-.206 1.456-.618.294-.416.442-1.094.442-2.034-.005-.524-.072-.971-.202-1.339-.125-.368-.325-.648-.598-.839-.268-.195-.626-.292-1.072-.292-.555 0-1.006.197-1.352.591-.347.395-.52 1.021-.52 1.879 0 .841.156 1.493.468 1.956.316.464.775.696 1.378.696Zm9.747.923c-.433 0-.817-.076-1.15-.228a1.863 1.863 0 0 1-.787-.669c-.186-.29-.279-.641-.279-1.053 0-.745.26-1.3.78-1.664.52-.364 1.354-.559 2.502-.585l1.203-.033v-.526c0-.412-.124-.737-.371-.975-.247-.243-.63-.364-1.15-.364a1.977 1.977 0 0 0-1.021.273c-.29.178-.479.468-.565.871h-1.06c.026-.438.15-.806.371-1.105.221-.303.528-.533.923-.689.398-.156.869-.234 1.41-.234.585 0 1.071.082 1.456.247.39.165.681.407.871.728.195.321.293.715.293 1.183V333h-1.027l-.085-1.261c-.26.524-.591.888-.994 1.092a2.916 2.916 0 0 1-1.32.299Zm.364-.865c.226 0 .449-.041.67-.123.225-.082.431-.193.617-.332.187-.143.334-.301.442-.474a1.06 1.06 0 0 0 .176-.546v-1.151l-1.001.02c-.512.009-.941.061-1.287.156-.343.095-.6.245-.774.448-.169.204-.253.471-.253.8 0 .377.13.672.39.884.264.212.604.318 1.02.318Zm5.015.735v-6.721h1.164v.975c.108-.186.258-.362.448-.527.195-.164.429-.296.702-.396.278-.1.596-.15.956-.15.424 0 .814.085 1.17.254.359.169.645.433.858.793.216.355.325.815.325 1.378V333h-1.203v-4.277c0-.524-.138-.912-.416-1.164-.273-.255-.628-.383-1.066-.383-.303 0-.587.05-.851.149a1.463 1.463 0 0 0-.644.442c-.164.195-.247.442-.247.741V333h-1.196Zm9.828.13c-.871 0-1.563-.299-2.074-.897-.511-.598-.767-1.471-.767-2.62 0-.697.102-1.306.306-1.826.208-.52.515-.923.923-1.209.407-.286.914-.429 1.521-.429.32 0 .604.041.851.123.251.083.468.187.65.312a2.244 2.244 0 0 1 .702.761v-4.004h1.209V333h-.916l-.13-1.378c-.044.13-.113.282-.208.455-.096.169-.23.336-.403.5a2.045 2.045 0 0 1-.67.397c-.269.104-.6.156-.994.156Zm.214-.923c.68 0 1.166-.206 1.456-.618.295-.416.442-1.094.442-2.034-.004-.524-.071-.971-.201-1.339-.126-.368-.325-.648-.598-.839-.269-.195-.627-.292-1.073-.292-.555 0-1.005.197-1.352.591-.347.395-.52 1.021-.52 1.879 0 .841.156 1.493.468 1.956.316.464.776.696 1.378.696Zm-114.969 20.886v-8.814h1.196l.013 1.17c.078-.139.178-.284.299-.436.126-.151.277-.292.455-.422.182-.13.392-.236.631-.319.242-.082.517-.123.825-.123.537 0 1.01.123 1.417.37.412.243.732.616.962 1.118.23.503.345 1.14.345 1.911 0 .772-.113 1.424-.338 1.957-.221.529-.542.932-.962 1.209-.421.277-.928.416-1.521.416-.299 0-.566-.043-.8-.13a2.166 2.166 0 0 1-.604-.325 2.58 2.58 0 0 1-.429-.442 3.558 3.558 0 0 1-.28-.449v3.309h-1.209Zm3.094-2.899c.555 0 1.008-.21 1.359-.631.351-.424.526-1.083.526-1.976 0-.767-.16-1.375-.481-1.826-.321-.451-.789-.676-1.404-.676-.624 0-1.096.232-1.417.695-.321.46-.481 1.062-.481 1.807 0 .481.072.919.215 1.313.143.395.355.709.637.943.281.234.63.351 1.046.351Zm4.525.806v-6.721h1.144v1.293a2.12 2.12 0 0 1 .474-.793 1.98 1.98 0 0 1 .696-.474 2.215 2.215 0 0 1 1.111-.136.594.594 0 0 1 .221.064v1.164a.766.766 0 0 0-.253-.059 2.002 2.002 0 0 0-.254-.019c-.268-.017-.52 0-.754.052-.234.048-.44.132-.617.253a1.305 1.305 0 0 0-.423.481 1.568 1.568 0 0 0-.149.715V351h-1.196Zm7.459.13c-.62 0-1.161-.132-1.625-.397a2.705 2.705 0 0 1-1.079-1.176c-.256-.516-.384-1.146-.384-1.892 0-.702.12-1.317.358-1.846a2.749 2.749 0 0 1 1.046-1.228c.464-.295 1.025-.442 1.684-.442.62 0 1.157.136 1.612.409.459.269.815.666 1.066 1.19.251.524.377 1.163.377 1.917 0 .685-.117 1.287-.351 1.807-.23.52-.572.928-1.027 1.222-.451.291-1.01.436-1.677.436Zm0-.949c.403 0 .743-.102 1.02-.306.278-.203.488-.496.631-.877.143-.381.214-.834.214-1.359a4.11 4.11 0 0 0-.188-1.293 1.91 1.91 0 0 0-.605-.917c-.273-.225-.63-.338-1.072-.338-.407 0-.752.102-1.034.306-.281.199-.496.49-.643.871-.143.381-.215.838-.215 1.371 0 .473.065.902.195 1.287.13.386.334.692.611.917.278.225.64.338 1.086.338Zm7.206-6.032c.481 0 .915.093 1.3.279.386.182.7.442.943.78.247.338.401.737.461 1.196h-1.066a1.487 1.487 0 0 0-.273-.643 1.497 1.497 0 0 0-.552-.468 1.756 1.756 0 0 0-.806-.176c-.577 0-1.045.208-1.404.624-.36.416-.54 1.053-.54 1.911 0 .776.165 1.398.494 1.866.334.464.824.695 1.469.695.308 0 .574-.058.8-.175a1.552 1.552 0 0 0 .819-1.112h1.046a2.404 2.404 0 0 1-1.404 1.937c-.381.178-.81.267-1.287.267-.602 0-1.137-.132-1.605-.397a2.742 2.742 0 0 1-1.092-1.17c-.265-.515-.397-1.148-.397-1.898 0-.702.119-1.315.358-1.839.242-.529.593-.94 1.053-1.235.463-.295 1.025-.442 1.683-.442Zm5.088 3.77c0 .425.069.81.208 1.157.143.342.358.615.644.819.29.204.652.305 1.085.305.429 0 .797-.099 1.105-.299.312-.199.511-.487.598-.864h1.138a2.3 2.3 0 0 1-.546 1.151 2.733 2.733 0 0 1-1.021.708 3.397 3.397 0 0 1-1.248.234c-.628 0-1.181-.136-1.657-.41a2.84 2.84 0 0 1-1.118-1.176c-.269-.511-.403-1.125-.403-1.84 0-.706.121-1.326.364-1.859a2.858 2.858 0 0 1 1.053-1.248c.463-.299 1.02-.448 1.67-.448.633 0 1.168.136 1.606.409.437.273.769.659.994 1.157.23.494.345 1.082.345 1.762v.442h-4.817Zm.007-.813h3.653c0-.385-.065-.732-.195-1.04a1.595 1.595 0 0 0-.598-.734c-.265-.182-.598-.273-1.001-.273-.421 0-.77.102-1.047.305a1.87 1.87 0 0 0-.617.774c-.135.312-.2.635-.195.968Zm8.695 4.024c-.468 0-.903-.071-1.306-.215a2.358 2.358 0 0 1-.995-.682c-.264-.312-.431-.709-.5-1.19h1.092c.06.265.169.486.325.663.16.174.359.306.598.397.238.087.498.13.78.13.45 0 .814-.085 1.092-.254.277-.169.416-.429.416-.78 0-.247-.074-.444-.221-.591-.143-.152-.367-.262-.67-.332l-1.391-.344c-.542-.13-.975-.334-1.3-.611-.325-.277-.487-.665-.487-1.164a1.845 1.845 0 0 1 .279-1.04c.191-.299.477-.535.858-.708.381-.173.856-.26 1.424-.26.728 0 1.315.165 1.761.494.451.325.685.804.702 1.436h-1.059a1.1 1.1 0 0 0-.436-.76c-.243-.191-.57-.286-.981-.286-.429 0-.778.087-1.047.26-.269.169-.403.433-.403.793a.66.66 0 0 0 .286.565c.191.135.472.247.845.338l1.346.339c.312.082.567.19.767.324.203.135.364.284.481.449.121.165.205.338.253.52.052.178.078.349.078.513 0 .412-.104.767-.312 1.066-.204.295-.498.525-.884.689-.381.161-.845.241-1.391.241Zm6.438 0c-.468 0-.903-.071-1.306-.215a2.358 2.358 0 0 1-.995-.682c-.264-.312-.431-.709-.5-1.19h1.092c.06.265.169.486.325.663.16.174.359.306.598.397.238.087.498.13.78.13.45 0 .814-.085 1.092-.254.277-.169.416-.429.416-.78 0-.247-.074-.444-.221-.591-.143-.152-.367-.262-.67-.332l-1.391-.344c-.542-.13-.975-.334-1.3-.611-.325-.277-.487-.665-.487-1.164a1.845 1.845 0 0 1 .279-1.04c.191-.299.477-.535.858-.708.381-.173.856-.26 1.424-.26.728 0 1.315.165 1.761.494.451.325.685.804.702 1.436h-1.059a1.1 1.1 0 0 0-.436-.76c-.243-.191-.57-.286-.981-.286-.429 0-.778.087-1.047.26-.269.169-.403.433-.403.793a.66.66 0 0 0 .286.565c.191.135.472.247.845.338l1.346.339c.312.082.567.19.767.324.203.135.364.284.481.449.121.165.205.338.253.52.052.178.078.349.078.513 0 .412-.104.767-.312 1.066-.204.295-.498.525-.884.689-.381.161-.845.241-1.391.241Zm5.025-3.211c0 .425.069.81.208 1.157.143.342.357.615.643.819.291.204.653.305 1.086.305.429 0 .797-.099 1.105-.299.312-.199.511-.487.598-.864h1.137a2.283 2.283 0 0 1-.546 1.151 2.722 2.722 0 0 1-1.02.708 3.397 3.397 0 0 1-1.248.234c-.628 0-1.181-.136-1.658-.41a2.853 2.853 0 0 1-1.118-1.176c-.268-.511-.403-1.125-.403-1.84 0-.706.122-1.326.364-1.859a2.871 2.871 0 0 1 1.053-1.248c.464-.299 1.021-.448 1.671-.448.633 0 1.168.136 1.605.409.438.273.77.659.995 1.157.23.494.344 1.082.344 1.762v.442h-4.816Zm.006-.813h3.653c0-.385-.065-.732-.195-1.04a1.589 1.589 0 0 0-.598-.734c-.264-.182-.598-.273-1.001-.273-.42 0-.769.102-1.046.305a1.88 1.88 0 0 0-.618.774 2.357 2.357 0 0 0-.195.968Zm8.786 4.024c-.871 0-1.563-.299-2.074-.897-.511-.598-.767-1.471-.767-2.62 0-.697.102-1.306.306-1.826.208-.52.515-.923.923-1.209.407-.286.914-.429 1.521-.429.32 0 .604.041.851.123.251.083.468.187.65.312a2.244 2.244 0 0 1 .702.761v-4.004h1.209V351h-.916l-.13-1.378c-.044.13-.113.282-.208.455-.096.169-.23.336-.403.5a2.045 2.045 0 0 1-.67.397c-.269.104-.6.156-.994.156Zm.214-.923c.68 0 1.166-.206 1.456-.618.295-.416.442-1.094.442-2.034-.004-.524-.071-.971-.201-1.339-.126-.368-.325-.648-.598-.839-.269-.195-.627-.292-1.073-.292-.555 0-1.005.197-1.352.591-.347.395-.52 1.021-.52 1.879 0 .841.156 1.493.468 1.956.316.464.776.696 1.378.696Zm10.274.923c-.468 0-.903-.071-1.306-.215a2.365 2.365 0 0 1-.995-.682c-.264-.312-.431-.709-.5-1.19h1.092c.06.265.169.486.325.663.16.174.359.306.598.397.238.087.498.13.78.13.45 0 .814-.085 1.092-.254.277-.169.416-.429.416-.78 0-.247-.074-.444-.221-.591-.143-.152-.366-.262-.67-.332l-1.391-.344c-.541-.13-.975-.334-1.3-.611-.325-.277-.487-.665-.487-1.164a1.853 1.853 0 0 1 .279-1.04c.191-.299.477-.535.858-.708.382-.173.856-.26 1.424-.26.728 0 1.315.165 1.761.494.451.325.685.804.702 1.436h-1.059a1.1 1.1 0 0 0-.436-.76c-.242-.191-.57-.286-.981-.286-.429 0-.778.087-1.047.26-.268.169-.403.433-.403.793 0 .238.096.427.286.565.191.135.473.247.845.338l1.346.339c.312.082.567.19.767.324.203.135.364.284.481.449.121.165.206.338.253.52.052.178.078.349.078.513 0 .412-.104.767-.312 1.066-.203.295-.498.525-.884.689-.381.161-.845.241-1.391.241Zm6.637 0a3.497 3.497 0 0 1-.994-.15 2.534 2.534 0 0 1-.819-.435 2.059 2.059 0 0 1-.566-.709 2.318 2.318 0 0 1-.201-.994v-4.563h1.202v4.439c0 .438.134.793.403 1.066.273.273.683.41 1.229.41.494 0 .89-.128 1.189-.384.303-.26.455-.645.455-1.157v-4.374h1.196V351h-.955l-.124-1.287a1.756 1.756 0 0 1-.422.819 1.777 1.777 0 0 1-.709.461 2.55 2.55 0 0 1-.884.137Zm7.547-6.981c.481 0 .915.093 1.3.279.386.182.7.442.943.78.247.338.401.737.461 1.196h-1.066a1.487 1.487 0 0 0-.273-.643 1.489 1.489 0 0 0-.552-.468 1.753 1.753 0 0 0-.806-.176c-.576 0-1.044.208-1.404.624-.36.416-.54 1.053-.54 1.911 0 .776.165 1.398.494 1.866.334.464.824.695 1.469.695.308 0 .575-.058.8-.175a1.544 1.544 0 0 0 .819-1.112h1.046a2.404 2.404 0 0 1-1.404 1.937c-.381.178-.81.267-1.287.267-.602 0-1.137-.132-1.605-.397a2.742 2.742 0 0 1-1.092-1.17c-.264-.515-.397-1.148-.397-1.898 0-.702.12-1.315.358-1.839.243-.529.594-.94 1.053-1.235.464-.295 1.025-.442 1.683-.442Zm6.908 0c.481 0 .915.093 1.3.279.386.182.7.442.943.78.247.338.401.737.461 1.196h-1.066a1.487 1.487 0 0 0-.273-.643 1.497 1.497 0 0 0-.552-.468 1.756 1.756 0 0 0-.806-.176c-.577 0-1.045.208-1.404.624-.36.416-.54 1.053-.54 1.911 0 .776.165 1.398.494 1.866.334.464.824.695 1.469.695.308 0 .574-.058.8-.175a1.552 1.552 0 0 0 .819-1.112h1.046a2.404 2.404 0 0 1-1.404 1.937c-.381.178-.81.267-1.287.267-.602 0-1.137-.132-1.605-.397a2.742 2.742 0 0 1-1.092-1.17c-.265-.515-.397-1.148-.397-1.898 0-.702.119-1.315.358-1.839.242-.529.593-.94 1.053-1.235.463-.295 1.025-.442 1.683-.442Zm5.088 3.77c0 .425.069.81.208 1.157.143.342.358.615.644.819.29.204.652.305 1.085.305.429 0 .797-.099 1.105-.299.312-.199.511-.487.598-.864h1.138a2.3 2.3 0 0 1-.546 1.151 2.733 2.733 0 0 1-1.021.708 3.397 3.397 0 0 1-1.248.234c-.628 0-1.181-.136-1.657-.41a2.84 2.84 0 0 1-1.118-1.176c-.269-.511-.403-1.125-.403-1.84 0-.706.121-1.326.364-1.859a2.858 2.858 0 0 1 1.053-1.248c.463-.299 1.02-.448 1.67-.448.633 0 1.168.136 1.606.409.437.273.769.659.994 1.157.23.494.345 1.082.345 1.762v.442h-4.817Zm.007-.813h3.653c0-.385-.065-.732-.195-1.04a1.595 1.595 0 0 0-.598-.734c-.265-.182-.598-.273-1.001-.273-.421 0-.77.102-1.047.305a1.87 1.87 0 0 0-.617.774c-.135.312-.2.635-.195.968Zm8.695 4.024c-.468 0-.903-.071-1.306-.215a2.358 2.358 0 0 1-.995-.682c-.264-.312-.431-.709-.5-1.19h1.092c.06.265.169.486.325.663.16.174.359.306.598.397.238.087.498.13.78.13.45 0 .814-.085 1.092-.254.277-.169.416-.429.416-.78 0-.247-.074-.444-.221-.591-.143-.152-.367-.262-.67-.332l-1.391-.344c-.542-.13-.975-.334-1.3-.611-.325-.277-.487-.665-.487-1.164a1.845 1.845 0 0 1 .279-1.04c.191-.299.477-.535.858-.708.381-.173.856-.26 1.424-.26.728 0 1.315.165 1.761.494.451.325.685.804.702 1.436h-1.059a1.1 1.1 0 0 0-.436-.76c-.243-.191-.57-.286-.981-.286-.429 0-.778.087-1.047.26-.269.169-.403.433-.403.793a.66.66 0 0 0 .286.565c.191.135.472.247.845.338l1.346.339c.312.082.567.19.767.324.203.135.364.284.481.449.121.165.205.338.253.52.052.178.078.349.078.513 0 .412-.104.767-.312 1.066-.204.295-.498.525-.884.689-.381.161-.845.241-1.391.241Zm6.438 0c-.468 0-.903-.071-1.306-.215a2.358 2.358 0 0 1-.995-.682c-.264-.312-.431-.709-.5-1.19h1.092c.06.265.169.486.325.663.16.174.359.306.598.397.238.087.498.13.78.13.45 0 .814-.085 1.092-.254.277-.169.416-.429.416-.78 0-.247-.074-.444-.221-.591-.143-.152-.367-.262-.67-.332l-1.391-.344c-.542-.13-.975-.334-1.3-.611-.325-.277-.487-.665-.487-1.164a1.845 1.845 0 0 1 .279-1.04c.191-.299.477-.535.858-.708.381-.173.856-.26 1.424-.26.728 0 1.315.165 1.761.494.451.325.685.804.702 1.436h-1.059a1.1 1.1 0 0 0-.436-.76c-.243-.191-.57-.286-.981-.286-.429 0-.778.087-1.047.26-.269.169-.403.433-.403.793a.66.66 0 0 0 .286.565c.191.135.472.247.845.338l1.346.339c.312.082.567.19.767.324.203.135.364.284.481.449.121.165.205.338.253.52.052.178.078.349.078.513 0 .412-.104.767-.312 1.066-.204.295-.498.525-.884.689-.381.161-.845.241-1.391.241Zm7.963-6.851v.877h-1.632V351h-1.209v-5.844h-1.417v-.877h1.417v-1.04c0-.533.137-.938.41-1.216.273-.281.68-.422 1.222-.422h1.267l.007.851h-1.008c-.273 0-.459.074-.559.221-.099.148-.149.371-.149.67v.936h1.651Zm3.855 6.851a3.497 3.497 0 0 1-.994-.15 2.534 2.534 0 0 1-.819-.435 2.059 2.059 0 0 1-.566-.709 2.318 2.318 0 0 1-.201-.994v-4.563h1.202v4.439c0 .438.135.793.403 1.066.273.273.683.41 1.229.41.494 0 .89-.128 1.189-.384.304-.26.455-.645.455-1.157v-4.374h1.196V351h-.955l-.124-1.287a1.756 1.756 0 0 1-.422.819 1.77 1.77 0 0 1-.709.461 2.545 2.545 0 0 1-.884.137Zm6.655-.045c-.364 0-.659-.05-.884-.15a1.242 1.242 0 0 1-.513-.403 1.527 1.527 0 0 1-.241-.579 3.915 3.915 0 0 1-.058-.682v-7.93h1.183v7.813c0 .338.065.591.195.76.134.169.32.263.559.28l.364.006v.78c-.1.031-.204.055-.312.072a1.492 1.492 0 0 1-.293.033Zm3.582 0c-.364 0-.659-.05-.884-.15a1.246 1.246 0 0 1-.514-.403 1.525 1.525 0 0 1-.24-.579 3.915 3.915 0 0 1-.059-.682v-7.93h1.183v7.813c0 .338.065.591.195.76a.748.748 0 0 0 .559.28l.364.006v.78c-.1.031-.204.055-.312.072a1.482 1.482 0 0 1-.292.033Zm2.484 2.06c-.394 0-.665-.028-.812-.084l-.221-.085v-.78l.682.013a2.2 2.2 0 0 0 .624-.052c.165-.043.297-.102.397-.175a.82.82 0 0 0 .227-.247c.057-.091.102-.178.137-.26l.234-.638-2.626-6.558h1.215l1.983 5.187 1.969-5.187h1.177l-2.834 7.228c-.174.425-.369.756-.585.995a1.758 1.758 0 0 1-.715.5c-.26.095-.544.143-.852.143Z" fill="#36536B"/><circle opacity=".25" cx="183" cy="261" r="28" fill="#BA4270"/><path d="m174 262.696 4.577 4.577L191.85 254" stroke="#BA4270" stroke-width="3"/><g><rect x="119" y="373" width="131" height="30" rx="15" fill="#BA4270"/><path d="M165.574 384.047h.99c.253 0 .504.002.753.005.253 0 .464.002.633.006.964.022 1.75.194 2.359.517s1.054.774 1.337 1.353c.286.579.429 1.265.429 2.057 0 .825-.151 1.538-.451 2.139a3.131 3.131 0 0 1-1.381 1.386c-.616.327-1.399.49-2.348.49h-2.321v-7.953Zm1.617 1.298v5.357h.737c.454 0 .867-.088 1.237-.264.374-.176.673-.464.897-.864.223-.399.335-.933.335-1.6 0-.62-.099-1.122-.297-1.507a1.852 1.852 0 0 0-.847-.853c-.367-.179-.801-.269-1.303-.269h-.759Zm7.628.968V392h-1.534v-5.687h1.534Zm.017-2.261v1.447h-1.562v-1.447h1.562Zm3.604 8.058c-.396 0-.778-.064-1.144-.193a2.27 2.27 0 0 1-.93-.616c-.253-.282-.414-.647-.484-1.094h1.392a.92.92 0 0 0 .258.478c.128.118.273.202.435.253.161.048.315.072.462.072.308 0 .555-.048.742-.143.191-.099.286-.249.286-.451a.452.452 0 0 0-.17-.369c-.11-.091-.294-.161-.55-.209l-1.001-.209c-.503-.106-.906-.286-1.21-.539-.305-.256-.461-.619-.468-1.089 0-.341.09-.647.27-.918.183-.271.452-.486.808-.644.356-.157.792-.236 1.309-.236.7 0 1.26.154 1.678.462.421.308.636.742.643 1.303h-1.342a.736.736 0 0 0-.33-.506c-.176-.121-.398-.181-.665-.181-.279 0-.508.049-.688.148a.483.483 0 0 0-.269.451c0 .151.073.27.22.358.146.084.374.158.682.22l.924.209c.319.077.577.183.775.319.202.132.358.277.468.434.11.158.185.318.225.479.044.158.066.301.066.429 0 .378-.101.7-.302.968a1.889 1.889 0 0 1-.842.605 3.443 3.443 0 0 1-1.248.209Zm3.434-.11v-5.687h1.573v.803c.172-.249.403-.464.693-.643.293-.18.662-.27 1.106-.27.194 0 .392.035.594.104.201.07.39.173.566.308.18.132.325.299.435.501.183-.26.423-.477.72-.649a1.945 1.945 0 0 1 1.001-.264c.213 0 .427.035.644.104.22.07.421.184.605.341.183.158.33.369.44.633.113.26.17.583.17.968V392h-1.606v-3.553c0-.227-.046-.409-.137-.545a.744.744 0 0 0-.341-.297 1.036 1.036 0 0 0-.435-.093c-.143 0-.288.029-.434.088a.875.875 0 0 0-.374.269.745.745 0 0 0-.154.49V392h-1.601v-3.696a.691.691 0 0 0-.137-.435.863.863 0 0 0-.347-.264.997.997 0 0 0-.418-.093c-.147 0-.293.031-.44.093a.867.867 0 0 0-.368.281.737.737 0 0 0-.149.473V392h-1.606Zm11.383-5.687V392h-1.535v-5.687h1.535Zm.016-2.261v1.447h-1.562v-1.447h1.562Zm3.604 8.058c-.396 0-.777-.064-1.144-.193a2.267 2.267 0 0 1-.929-.616c-.253-.282-.415-.647-.484-1.094h1.391a.928.928 0 0 0 .259.478c.128.118.273.202.434.253.161.048.315.072.462.072.308 0 .556-.048.743-.143.19-.099.286-.249.286-.451a.45.45 0 0 0-.171-.369c-.11-.091-.293-.161-.55-.209l-1.001-.209c-.502-.106-.906-.286-1.21-.539-.304-.256-.46-.619-.467-1.089 0-.341.089-.647.269-.918.183-.271.453-.486.809-.644.355-.157.792-.236 1.309-.236.7 0 1.259.154 1.677.462.422.308.636.742.644 1.303h-1.342a.742.742 0 0 0-.33-.506c-.176-.121-.398-.181-.666-.181-.279 0-.508.049-.687.148a.484.484 0 0 0-.27.451c0 .151.073.27.22.358.147.084.374.158.682.22l.924.209c.319.077.578.183.776.319.201.132.357.277.467.434.11.158.185.318.226.479.044.158.066.301.066.429 0 .378-.101.7-.303.968a1.886 1.886 0 0 1-.841.605c-.36.139-.776.209-1.249.209Zm5.609 0c-.396 0-.777-.064-1.144-.193a2.27 2.27 0 0 1-.93-.616c-.253-.282-.414-.647-.484-1.094h1.392a.935.935 0 0 0 .258.478c.129.118.274.202.435.253.161.048.315.072.462.072.308 0 .555-.048.742-.143.191-.099.286-.249.286-.451a.45.45 0 0 0-.17-.369c-.11-.091-.293-.161-.55-.209l-1.001-.209c-.502-.106-.906-.286-1.21-.539-.304-.256-.46-.619-.468-1.089 0-.341.09-.647.27-.918.183-.271.453-.486.808-.644.356-.157.792-.236 1.309-.236.701 0 1.26.154 1.678.462.422.308.636.742.643 1.303h-1.342a.736.736 0 0 0-.33-.506c-.176-.121-.397-.181-.665-.181-.279 0-.508.049-.688.148a.485.485 0 0 0-.269.451c0 .151.073.27.22.358.147.084.374.158.682.22l.924.209c.319.077.577.183.775.319.202.132.358.277.468.434.11.158.185.318.225.479.044.158.066.301.066.429 0 .378-.1.7-.302.968a1.883 1.883 0 0 1-.842.605 3.443 3.443 0 0 1-1.248.209Z" fill="#FBFCFE"/></g></g><defs><linearGradient id="b" x1="63.015" y1="55" x2="63.015" y2="67.324" gradientUnits="userSpaceOnUse"><stop stop-color="#454545"/><stop offset=".226" stop-color="#999"/><stop offset="1" stop-color="#fff"/></linearGradient><linearGradient id="c" x1="313.103" y1="140.747" x2="303.642" y2="140.747" gradientUnits="userSpaceOnUse"><stop stop-color="#fff" stop-opacity=".01"/><stop offset=".222" stop-color="#BABABA"/><stop offset=".547" stop-color="#fff" stop-opacity=".01"/><stop offset="1" stop-color="#fff" stop-opacity=".01"/></linearGradient><linearGradient id="d" x1="55.568" y1="140.487" x2="65.044" y2="140.487" gradientUnits="userSpaceOnUse"><stop stop-color="#fff" stop-opacity=".01"/><stop offset=".222" stop-color="#BABABA"/><stop offset=".547" stop-color="#fff" stop-opacity=".01"/><stop offset="1" stop-color="#fff" stop-opacity=".01"/></linearGradient><filter id="a" x=".568" y=".569" width="417.649" height="658.861" filterUnits="userSpaceOnUse" color-interpolation-filters="sRGB"><feFlood flood-opacity="0" result="BackgroundImageFix"/><feColorMatrix in="SourceAlpha" values="0 0 0 0 0 0 0 0 0 0 0 0 0 0 0 0 0 0 127 0" result="hardAlpha"/><feOffset dx="25" dy="25"/><feGaussianBlur stdDeviation="40"/><feColorMatrix values="0 0 0 0 0.212302 0 0 0 0 0.32521 0 0 0 0 0.419299 0 0 0 0.300727 0"/><feBlend in2="BackgroundImageFix" result="effect1_dropShadow_0_4933"/><feBlend in="SourceGraphic" in2="effect1_dropShadow_0_4933" result="shape"/></filter><filter id="f" x="91" y="192" width="206" height="221" filterUnits="userSpaceOnUse" color-interpolation-filters="sRGB"><feFlood flood-opacity="0" result="BackgroundImageFix"/><feColorMatrix in="SourceAlpha" values="0 0 0 0 0 0 0 0 0 0 0 0 0 0 0 0 0 0 127 0" result="hardAlpha"/><feMorphology radius="10" in="SourceAlpha" result="effect1_dropShadow_0_4933"/><feOffset dx="10" dy="10"/><feGaussianBlur stdDeviation="12.5"/><feColorMatrix values="0 0 0 0 0.212302 0 0 0 0 0.32521 0 0 0 0 0.419299 0 0 0 0.25 0"/><feBlend in2="BackgroundImageFix" result="effect1_dropShadow_0_4933"/><feBlend in="SourceGraphic" in2="effect1_dropShadow_0_4933" result="shape"/></filter></defs></svg>