<svg width="419" height="660" fill="none" xmlns="http://www.w3.org/2000/svg"><g filter="url(#a)"><path fill-rule="evenodd" clip-rule="evenodd" d="M88.776 55.57H280.01c18.341 0 33.208 14.235 33.208 31.795v435.27c0 17.56-14.867 31.796-33.208 31.796H88.776c-18.34 0-33.208-14.236-33.208-31.796V87.365c0-17.56 14.868-31.795 33.208-31.795Z" fill="#213648"/></g><g fill-rule="evenodd" clip-rule="evenodd"><path opacity=".596" d="M280.749 55H87.923c-9.003.549-17.305 4.657-24.908 12.324 4.89-4.268 13.61-9.98 25.14-9.98h192.362c11.529 0 20.25 5.712 25.14 9.98-7.603-7.667-15.906-11.775-24.908-12.324Z" fill="url(#b)" fill-opacity=".65"/><path opacity=".75" d="M307.999 517.671V89.981c0-11.474-4.217-15.717-6.733-18.44-2.516-2.724-2.623-4.114.992-2.057 3.615 2.056 10.845 8.047 10.845 20.498V517.67c0 12.451-7.23 18.441-10.845 20.498-3.615 2.056-3.508.667-.992-2.057s6.733-6.966 6.733-18.441Z" fill="url(#c)"/><path opacity=".75" d="M60.672 517.671V89.981c0-11.474 4.217-15.717 6.733-18.44 2.516-2.724 2.623-4.114-.992-2.057-3.615 2.056-10.845 8.047-10.845 20.498V517.67c0 12.451 7.23 18.441 10.845 20.498 3.615 2.056 3.508.667.992-2.057s-6.733-6.966-6.733-18.441Z" fill="url(#d)"/></g><g fill-rule="evenodd" clip-rule="evenodd" fill="#2E423C"><path d="M53 158.557a2 2 0 0 1 2-2h.965a2 2 0 0 1 2 2v60.35a2 2 0 0 1-2 2H55a2 2 0 0 1-2-2v-60.35ZM310.535 211.043a2 2 0 0 1 2-2h.965a2 2 0 0 1 2 2v42.95a2 2 0 0 1-2 2h-.965a2 2 0 0 1-2-2v-42.95Z"/></g><g><path fill-rule="evenodd" clip-rule="evenodd" d="M161.676 67.445H87.27c-11.105 0-19.196 7.563-19.196 17.44v422.391c0 12.88 12.502 24.291 26.64 24.291h179.332c13.618 0 26.64-11.5 26.64-24.291V86.028c0-11.84-8.79-18.513-19.196-18.584h-75.586c-.286.047-5.479 2.182-7.673 7.564-2.195 5.381-6.61 9.671-11.444 9.671h-5.615c-2.298 0-8.348-2.23-11.412-9.671-3.063-7.442-7.797-7.517-8.084-7.563Z" fill="#EDF3F8"/><mask id="e" style="mask-type:alpha" maskUnits="userSpaceOnUse" x="68" y="67" width="233" height="465"><path fill-rule="evenodd" clip-rule="evenodd" d="M161.676 67.445H87.27c-11.105 0-19.196 7.563-19.196 17.44v422.391c0 12.88 12.502 24.291 26.64 24.291h179.332c13.618 0 26.64-11.5 26.64-24.291V86.028c0-11.84-8.79-18.513-19.196-18.584h-75.586c-.286.047-5.479 2.182-7.673 7.564-2.195 5.381-6.61 9.671-11.444 9.671h-5.615c-2.298 0-8.348-2.23-11.412-9.671-3.063-7.442-7.797-7.517-8.084-7.563Z" fill="#fff"/></mask><g mask="url(#e)"><g filter="url(#f)"><rect x="83" y="228" width="204" height="40" rx="5" fill="#FBFCFE"/></g><g fill="#36536B"><path opacity=".7" d="M99.955 244.77h.925V252h-.925v-7.23Zm5.211 2.735h-1.165v3.215c0 .183.019.318.055.405.04.083.105.137.195.16.094.023.22.035.38.035h.565v.62c-.063.023-.16.043-.29.06a3.675 3.675 0 0 1-.475.025c-.356 0-.633-.048-.83-.145a.832.832 0 0 1-.415-.43 1.888 1.888 0 0 1-.115-.7v-3.245h-.84v-.675h.865l.225-1.505h.68v1.5h1.165v.68Zm1.775 2.125c0 .327.053.623.16.89.11.263.275.473.495.63.223.157.502.235.835.235.33 0 .613-.077.85-.23a1.03 1.03 0 0 0 .46-.665h.875a1.75 1.75 0 0 1-.42.885c-.217.24-.478.422-.785.545-.307.12-.627.18-.96.18-.483 0-.908-.105-1.275-.315a2.191 2.191 0 0 1-.86-.905c-.207-.393-.31-.865-.31-1.415 0-.543.093-1.02.28-1.43.187-.41.457-.73.81-.96.357-.23.785-.345 1.285-.345.487 0 .898.105 1.235.315.337.21.592.507.765.89.177.38.265.832.265 1.355v.34h-3.705Zm.005-.625h2.81c0-.297-.05-.563-.15-.8-.1-.24-.253-.428-.46-.565-.203-.14-.46-.21-.77-.21-.323 0-.592.078-.805.235a1.44 1.44 0 0 0-.475.595c-.103.24-.153.488-.15.745Zm4.893 2.995v-5.17h.89v.75c.143-.227.34-.425.59-.595.25-.17.575-.255.975-.255.187 0 .377.032.57.095.197.063.377.158.54.285.163.127.29.282.38.465a1.79 1.79 0 0 1 .65-.61c.273-.157.582-.235.925-.235.18 0 .368.028.565.085a1.47 1.47 0 0 1 .96.865c.107.243.16.557.16.94V252h-.93v-3.29c0-.313-.05-.555-.15-.725a.836.836 0 0 0-.395-.365 1.272 1.272 0 0 0-.515-.105c-.16 0-.33.032-.51.095s-.333.17-.46.32-.19.355-.19.615V252h-.92v-3.56a.789.789 0 0 0-.165-.51 1.01 1.01 0 0 0-.405-.31c-.16-.07-.32-.105-.48-.105-.177 0-.355.035-.535.105a1.08 1.08 0 0 0-.45.335c-.12.15-.18.347-.18.59V252h-.92Zm12.878-7.18-1.085 7.195-.57-.08 1.09-7.18.565.065Zm2.05 0-1.085 7.195-.57-.08 1.09-7.18.565.065Zm.42 4.27v.565h-4.945v-.565h4.945Zm.32-2.05v.565h-4.945v-.565h4.945Zm3.384-2.37c.783 0 1.406.315 1.87.945.466.627.7 1.555.7 2.785 0 1.223-.232 2.148-.695 2.775-.464.623-1.092.935-1.885.935-.79 0-1.417-.31-1.88-.93-.464-.623-.695-1.545-.695-2.765 0-.823.106-1.513.32-2.07.213-.557.513-.975.9-1.255.386-.28.841-.42 1.365-.42Zm0 6.64c.516 0 .906-.227 1.17-.68.266-.457.4-1.198.4-2.225 0-1.047-.135-1.8-.405-2.26-.267-.463-.657-.695-1.17-.695-.51 0-.904.233-1.18.7-.274.463-.41 1.215-.41 2.255 0 1.023.136 1.763.41 2.22.273.457.668.685 1.185.685Zm5.977-6.64c.784 0 1.407.315 1.87.945.467.627.7 1.555.7 2.785 0 1.223-.231 2.148-.695 2.775-.463.623-1.091.935-1.885.935-.79 0-1.416-.31-1.88-.93-.463-.623-.695-1.545-.695-2.765 0-.823.107-1.513.32-2.07.214-.557.514-.975.9-1.255.387-.28.842-.42 1.365-.42Zm0 6.64c.517 0 .907-.227 1.17-.68.267-.457.4-1.198.4-2.225 0-1.047-.135-1.8-.405-2.26-.266-.463-.656-.695-1.17-.695-.51 0-.903.233-1.18.7-.273.463-.41 1.215-.41 2.255 0 1.023.137 1.763.41 2.22.274.457.669.685 1.185.685Zm4.841.69v-5.755h-1.395v-.605c.434 0 .77-.032 1.01-.095s.41-.16.51-.29a.823.823 0 0 0 .17-.485h.66V252h-.955Z"/><path d="M250.126 252.13c-1.127 0-2.041-.225-2.743-.676-.702-.455-1.105-1.155-1.209-2.1l1.976-.039c.104.429.327.757.669.982.347.221.78.331 1.3.331.312 0 .587-.049.826-.149.242-.104.433-.243.572-.416a.961.961 0 0 0 .208-.605c0-.346-.111-.604-.332-.773-.221-.173-.561-.312-1.02-.416l-1.541-.331c-.715-.144-1.289-.427-1.722-.852-.429-.429-.648-1.003-.657-1.723-.004-.589.154-1.098.475-1.527.325-.433.764-.767 1.319-1.001.559-.234 1.185-.351 1.879-.351.71 0 1.323.128 1.839.383.52.252.919.592 1.196 1.021.282.425.418.895.41 1.41l-1.918.033c-.061-.416-.199-.743-.416-.982-.217-.238-.576-.357-1.079-.357-.26 0-.492.028-.695.084-.204.057-.38.137-.527.241-.147.1-.26.219-.338.357a.98.98 0 0 0-.11.468c0 .273.091.49.273.65.186.156.535.302 1.046.436l1.515.37c.853.204 1.469.553 1.846 1.047.381.494.572 1.094.572 1.8 0 .542-.15 1.014-.449 1.417-.295.403-.713.715-1.254.936-.542.222-1.179.332-1.911.332Zm-.813-10.875h1.645v1.69h-1.645v-1.69Zm-.032 10.296h1.638v1.691h-1.638v-1.691Zm5.732.449v-1.417c0-.477.089-.888.267-1.235.177-.351.411-.654.702-.91a5.56 5.56 0 0 1 .962-.683c.351-.195.702-.379 1.053-.552.351-.173.671-.347.962-.52.294-.178.531-.375.708-.592.178-.216.267-.472.267-.767 0-.377-.132-.684-.397-.923-.26-.238-.617-.357-1.072-.357-.473 0-.873.136-1.203.409-.329.273-.533.685-.611 1.235h-1.813a3.394 3.394 0 0 1 .416-1.625c.273-.489.68-.877 1.222-1.163.541-.286 1.222-.429 2.041-.429.702 0 1.306.119 1.813.357.512.239.906.57 1.183.995.278.425.416.921.416 1.488 0 .473-.086.88-.26 1.222a2.785 2.785 0 0 1-.689.878c-.286.243-.6.455-.942.637-.343.182-.685.351-1.027.507-.338.156-.65.316-.936.481-.286.16-.516.342-.689.546-.174.204-.26.448-.26.734v.085h4.79V252h-6.903Zm11.441.143a3.992 3.992 0 0 1-1.638-.338 3.199 3.199 0 0 1-1.241-.949 2.59 2.59 0 0 1-.54-1.443h1.807c.078.364.251.661.52.89.269.226.607.338 1.014.338.451 0 .845-.106 1.183-.318.342-.212.598-.55.767-1.014.173-.464.234-1.07.182-1.82-.121.23-.29.431-.507.604a2.4 2.4 0 0 1-.747.397 3.145 3.145 0 0 1-.956.136c-.637 0-1.202-.119-1.696-.357a2.828 2.828 0 0 1-1.157-1.027c-.278-.446-.416-.975-.416-1.586 0-.615.147-1.164.442-1.645a3.053 3.053 0 0 1 1.235-1.131c.528-.273 1.148-.409 1.859-.409.797 0 1.484.191 2.06.572.581.377 1.025.914 1.333 1.612.312.693.468 1.51.468 2.45 0 1.123-.161 2.059-.481 2.808-.317.746-.772 1.305-1.365 1.677-.594.369-1.303.553-2.126.553Zm.169-5.025c.264 0 .52-.058.767-.175.251-.121.457-.273.618-.455.16-.182.24-.371.24-.566.004-.42-.063-.78-.201-1.079a1.554 1.554 0 0 0-.572-.695 1.514 1.514 0 0 0-.852-.241 1.472 1.472 0 0 0-1.352.793 1.826 1.826 0 0 0-.201.871c0 .49.143.871.429 1.144.286.269.66.403 1.124.403Z"/></g><g filter="url(#g)"><rect x="83" y="276" width="204" height="40" rx="5" fill="#FBFCFE"/></g><g fill="#36536B"><path opacity=".7" d="M99.955 292.77h.925V300h-.925v-7.23Zm5.211 2.735h-1.165v3.215c0 .183.019.318.055.405.04.083.105.137.195.16.094.023.22.035.38.035h.565v.62c-.063.023-.16.043-.29.06a3.675 3.675 0 0 1-.475.025c-.356 0-.633-.048-.83-.145a.832.832 0 0 1-.415-.43 1.888 1.888 0 0 1-.115-.7v-3.245h-.84v-.675h.865l.225-1.505h.68v1.5h1.165v.68Zm1.775 2.125c0 .327.053.623.16.89.11.263.275.473.495.63.223.157.502.235.835.235.33 0 .613-.077.85-.23a1.03 1.03 0 0 0 .46-.665h.875a1.75 1.75 0 0 1-.42.885c-.217.24-.478.422-.785.545-.307.12-.627.18-.96.18-.483 0-.908-.105-1.275-.315a2.191 2.191 0 0 1-.86-.905c-.207-.393-.31-.865-.31-1.415 0-.543.093-1.02.28-1.43.187-.41.457-.73.81-.96.357-.23.785-.345 1.285-.345.487 0 .898.105 1.235.315.337.21.592.507.765.89.177.38.265.832.265 1.355v.34h-3.705Zm.005-.625h2.81c0-.297-.05-.563-.15-.8-.1-.24-.253-.428-.46-.565-.203-.14-.46-.21-.77-.21-.323 0-.592.078-.805.235a1.44 1.44 0 0 0-.475.595c-.103.24-.153.488-.15.745Zm4.893 2.995v-5.17h.89v.75c.143-.227.34-.425.59-.595.25-.17.575-.255.975-.255.187 0 .377.032.57.095.197.063.377.158.54.285.163.127.29.282.38.465a1.79 1.79 0 0 1 .65-.61c.273-.157.582-.235.925-.235.18 0 .368.028.565.085a1.47 1.47 0 0 1 .96.865c.107.243.16.557.16.94V300h-.93v-3.29c0-.313-.05-.555-.15-.725a.836.836 0 0 0-.395-.365 1.272 1.272 0 0 0-.515-.105c-.16 0-.33.032-.51.095s-.333.17-.46.32-.19.355-.19.615V300h-.92v-3.56a.789.789 0 0 0-.165-.51 1.01 1.01 0 0 0-.405-.31c-.16-.07-.32-.105-.48-.105-.177 0-.355.035-.535.105a1.08 1.08 0 0 0-.45.335c-.12.15-.18.347-.18.59V300h-.92Zm12.878-7.18-1.085 7.195-.57-.08 1.09-7.18.565.065Zm2.05 0-1.085 7.195-.57-.08 1.09-7.18.565.065Zm.42 4.27v.565h-4.945v-.565h4.945Zm.32-2.05v.565h-4.945v-.565h4.945Zm3.384-2.37c.783 0 1.406.315 1.87.945.466.627.7 1.555.7 2.785 0 1.223-.232 2.148-.695 2.775-.464.623-1.092.935-1.885.935-.79 0-1.417-.31-1.88-.93-.464-.623-.695-1.545-.695-2.765 0-.823.106-1.513.32-2.07.213-.557.513-.975.9-1.255.386-.28.841-.42 1.365-.42Zm0 6.64c.516 0 .906-.227 1.17-.68.266-.457.4-1.198.4-2.225 0-1.047-.135-1.8-.405-2.26-.267-.463-.657-.695-1.17-.695-.51 0-.904.233-1.18.7-.274.463-.41 1.215-.41 2.255 0 1.023.136 1.763.41 2.22.273.457.668.685 1.185.685Zm5.977-6.64c.784 0 1.407.315 1.87.945.467.627.7 1.555.7 2.785 0 1.223-.231 2.148-.695 2.775-.463.623-1.091.935-1.885.935-.79 0-1.416-.31-1.88-.93-.463-.623-.695-1.545-.695-2.765 0-.823.107-1.513.32-2.07.214-.557.514-.975.9-1.255.387-.28.842-.42 1.365-.42Zm0 6.64c.517 0 .907-.227 1.17-.68.267-.457.4-1.198.4-2.225 0-1.047-.135-1.8-.405-2.26-.266-.463-.656-.695-1.17-.695-.51 0-.903.233-1.18.7-.273.463-.41 1.215-.41 2.255 0 1.023.137 1.763.41 2.22.274.457.669.685 1.185.685Zm3.601.69V299.14c0-.37.069-.69.205-.96.14-.27.324-.505.55-.705.23-.203.48-.385.75-.545.274-.16.545-.313.815-.46a7.68 7.68 0 0 0 .75-.465c.227-.163.409-.347.545-.55.14-.207.21-.45.21-.73 0-.367-.13-.665-.39-.895-.256-.23-.605-.345-1.045-.345-.473 0-.853.133-1.14.4-.286.267-.448.622-.485 1.065h-.92c.01-.417.114-.797.31-1.14.197-.347.485-.623.865-.83.38-.207.849-.31 1.405-.31.484 0 .904.087 1.26.26.357.17.632.41.825.72.197.307.295.665.295 1.075 0 .373-.068.693-.205.96a2.286 2.286 0 0 1-.545.695 4.664 4.664 0 0 1-.735.52 26.39 26.39 0 0 1-.805.445c-.27.14-.516.288-.74.445a2.05 2.05 0 0 0-.54.53 1.24 1.24 0 0 0-.205.715v.145h3.815v.82h-4.845Z"/><path d="M244.335 300.13c-1.127 0-2.041-.225-2.743-.676-.702-.455-1.105-1.155-1.209-2.1l1.976-.039c.104.429.327.757.669.982.347.221.78.331 1.3.331.312 0 .588-.049.826-.149.243-.104.433-.243.572-.416a.955.955 0 0 0 .208-.605c0-.346-.111-.604-.332-.773-.221-.173-.561-.312-1.02-.416l-1.541-.331c-.715-.144-1.289-.427-1.722-.852-.429-.429-.648-1.003-.657-1.723-.004-.589.154-1.098.475-1.527.325-.433.765-.767 1.319-1.001.559-.234 1.186-.351 1.879-.351.711 0 1.324.128 1.839.383.52.252.919.592 1.196 1.021.282.425.419.895.41 1.41l-1.918.033c-.06-.416-.199-.743-.416-.982-.216-.238-.576-.357-1.079-.357-.26 0-.491.028-.695.084a1.705 1.705 0 0 0-.527.241c-.147.1-.26.219-.338.357a.991.991 0 0 0-.11.468c0 .273.091.49.273.65.186.156.535.302 1.046.436l1.515.37c.854.204 1.469.553 1.846 1.047.381.494.572 1.094.572 1.8 0 .542-.15 1.014-.449 1.417-.294.403-.712.715-1.254.936-.542.222-1.179.332-1.911.332Zm-.813-10.875h1.645v1.69h-1.645v-1.69Zm-.032 10.296h1.638v1.691h-1.638v-1.691Zm7.234.449v-7.04h-1.677v-1.072c.537 0 .971-.05 1.3-.15.334-.104.583-.251.748-.442.164-.195.262-.426.292-.695h1.261V300h-1.924Zm7.424-9.529c1.118 0 1.999.418 2.645 1.254.646.832.969 2.031.969 3.595 0 1.556-.319 2.749-.956 3.581-.637.828-1.523 1.242-2.658 1.242-1.14 0-2.031-.414-2.672-1.242-.637-.827-.955-2.019-.955-3.575 0-1.04.147-1.921.442-2.645.294-.724.712-1.272 1.254-1.645.542-.377 1.185-.565 1.931-.565Zm0 8.118c.559 0 .968-.249 1.228-.747.26-.503.39-1.341.39-2.516 0-1.2-.132-2.06-.396-2.58-.265-.52-.674-.78-1.229-.78s-.968.262-1.241.786c-.269.525-.403 1.383-.403 2.574 0 1.17.134 2.007.403 2.509.268.503.684.754 1.248.754Zm5.633-7.988h6.039l-.072 1.553h-4.465l-.182 2.269c.346-.195.676-.336.988-.423.316-.086.663-.13 1.04-.13.628 0 1.189.12 1.683.358.498.234.893.578 1.183 1.033.29.455.436 1.01.436 1.664 0 .663-.15 1.235-.449 1.716a2.936 2.936 0 0 1-1.274 1.112c-.546.26-1.194.39-1.943.39a5.008 5.008 0 0 1-1.716-.286 4.388 4.388 0 0 1-1.372-.78 3.396 3.396 0 0 1-.877-1.144l1.482-.878c.169.295.359.562.572.8.212.234.457.42.734.559.282.134.609.201.982.201.563 0 1.016-.149 1.358-.448.342-.299.514-.689.514-1.17 0-.303-.078-.574-.234-.813a1.59 1.59 0 0 0-.631-.572 2.037 2.037 0 0 0-.942-.208c-.191 0-.373.018-.546.052a1.882 1.882 0 0 0-.52.182 3.619 3.619 0 0 0-.579.377.395.395 0 0 1-.13.039.411.411 0 0 1-.13-.045l-1.378-.637.429-4.771Z"/></g><g filter="url(#h)"><rect x="83" y="324" width="204" height="40" rx="5" fill="#FBFCFE"/></g><g fill="#36536B"><path opacity=".7" d="M99.955 340.77h.925V348h-.925v-7.23Zm5.211 2.735h-1.165v3.215c0 .183.019.318.055.405.04.083.105.137.195.16.094.023.22.035.38.035h.565v.62c-.063.023-.16.043-.29.06a3.675 3.675 0 0 1-.475.025c-.356 0-.633-.048-.83-.145a.832.832 0 0 1-.415-.43 1.888 1.888 0 0 1-.115-.7v-3.245h-.84v-.675h.865l.225-1.505h.68v1.5h1.165v.68Zm1.775 2.125c0 .327.053.623.16.89.11.263.275.473.495.63.223.157.502.235.835.235.33 0 .613-.077.85-.23a1.03 1.03 0 0 0 .46-.665h.875a1.75 1.75 0 0 1-.42.885c-.217.24-.478.422-.785.545-.307.12-.627.18-.96.18-.483 0-.908-.105-1.275-.315a2.191 2.191 0 0 1-.86-.905c-.207-.393-.31-.865-.31-1.415 0-.543.093-1.02.28-1.43.187-.41.457-.73.81-.96.357-.23.785-.345 1.285-.345.487 0 .898.105 1.235.315.337.21.592.507.765.89.177.38.265.832.265 1.355v.34h-3.705Zm.005-.625h2.81c0-.297-.05-.563-.15-.8-.1-.24-.253-.428-.46-.565-.203-.14-.46-.21-.77-.21-.323 0-.592.078-.805.235a1.44 1.44 0 0 0-.475.595c-.103.24-.153.488-.15.745Zm4.893 2.995v-5.17h.89v.75c.143-.227.34-.425.59-.595.25-.17.575-.255.975-.255.187 0 .377.032.57.095.197.063.377.158.54.285.163.127.29.282.38.465a1.79 1.79 0 0 1 .65-.61c.273-.157.582-.235.925-.235.18 0 .368.028.565.085a1.47 1.47 0 0 1 .96.865c.107.243.16.557.16.94V348h-.93v-3.29c0-.313-.05-.555-.15-.725a.836.836 0 0 0-.395-.365 1.272 1.272 0 0 0-.515-.105c-.16 0-.33.032-.51.095s-.333.17-.46.32-.19.355-.19.615V348h-.92v-3.56a.789.789 0 0 0-.165-.51 1.01 1.01 0 0 0-.405-.31c-.16-.07-.32-.105-.48-.105-.177 0-.355.035-.535.105a1.08 1.08 0 0 0-.45.335c-.12.15-.18.347-.18.59V348h-.92Zm12.878-7.18-1.085 7.195-.57-.08 1.09-7.18.565.065Zm2.05 0-1.085 7.195-.57-.08 1.09-7.18.565.065Zm.42 4.27v.565h-4.945v-.565h4.945Zm.32-2.05v.565h-4.945v-.565h4.945Zm3.384-2.37c.783 0 1.406.315 1.87.945.466.627.7 1.555.7 2.785 0 1.223-.232 2.148-.695 2.775-.464.623-1.092.935-1.885.935-.79 0-1.417-.31-1.88-.93-.464-.623-.695-1.545-.695-2.765 0-.823.106-1.513.32-2.07.213-.557.513-.975.9-1.255.386-.28.841-.42 1.365-.42Zm0 6.64c.516 0 .906-.227 1.17-.68.266-.457.4-1.198.4-2.225 0-1.047-.135-1.8-.405-2.26-.267-.463-.657-.695-1.17-.695-.51 0-.904.233-1.18.7-.274.463-.41 1.215-.41 2.255 0 1.023.136 1.763.41 2.22.273.457.668.685 1.185.685Zm5.977-6.64c.784 0 1.407.315 1.87.945.467.627.7 1.555.7 2.785 0 1.223-.231 2.148-.695 2.775-.463.623-1.091.935-1.885.935-.79 0-1.416-.31-1.88-.93-.463-.623-.695-1.545-.695-2.765 0-.823.107-1.513.32-2.07.214-.557.514-.975.9-1.255.387-.28.842-.42 1.365-.42Zm0 6.64c.517 0 .907-.227 1.17-.68.267-.457.4-1.198.4-2.225 0-1.047-.135-1.8-.405-2.26-.266-.463-.656-.695-1.17-.695-.51 0-.903.233-1.18.7-.273.463-.41 1.215-.41 2.255 0 1.023.137 1.763.41 2.22.274.457.669.685 1.185.685Zm3.488-4.435c0-.467.113-.863.34-1.19.227-.33.528-.582.905-.755.38-.173.798-.26 1.255-.26.5 0 .942.073 1.325.22.383.143.683.353.9.63.217.277.325.615.325 1.015 0 .357-.113.68-.34.97-.227.287-.573.512-1.04.675.317.087.593.213.83.38s.42.372.55.615c.13.24.195.517.195.83a1.865 1.865 0 0 1-.79 1.555c-.25.18-.545.318-.885.415a4.08 4.08 0 0 1-1.11.135c-.497-.003-.935-.095-1.315-.275a2.175 2.175 0 0 1-.89-.755c-.217-.327-.333-.713-.35-1.16h.925c.07.45.253.795.55 1.035.297.24.668.36 1.115.36.353 0 .662-.055.925-.165.263-.113.467-.268.61-.465.143-.197.215-.427.215-.69 0-.29-.08-.535-.24-.735-.16-.2-.378-.352-.655-.455a2.612 2.612 0 0 0-.925-.165l-.65-.015v-.785l.62-.015c.317-.007.6-.067.85-.18.25-.117.447-.268.59-.455a.998.998 0 0 0 .22-.625c0-.2-.062-.385-.185-.555a1.265 1.265 0 0 0-.535-.415 2.049 2.049 0 0 0-.84-.155c-.26 0-.508.052-.745.155-.237.1-.432.255-.585.465-.153.21-.235.482-.245.815h-.92Z"/><path d="M244.386 348.13c-1.127 0-2.041-.225-2.743-.676-.702-.455-1.105-1.155-1.209-2.1l1.976-.039c.104.429.327.757.669.982.347.221.78.331 1.3.331.312 0 .587-.049.826-.149.242-.104.433-.243.572-.416a.961.961 0 0 0 .208-.605c0-.346-.111-.604-.332-.773-.221-.173-.561-.312-1.02-.416l-1.541-.331c-.715-.144-1.289-.427-1.722-.852-.429-.429-.648-1.003-.657-1.723-.004-.589.154-1.098.475-1.527.325-.433.765-.767 1.319-1.001.559-.234 1.185-.351 1.879-.351.71 0 1.324.128 1.839.383.52.252.919.592 1.196 1.021.282.425.418.895.41 1.41l-1.918.033c-.06-.416-.199-.743-.416-.982-.216-.238-.576-.357-1.079-.357-.26 0-.492.028-.695.084a1.705 1.705 0 0 0-.527.241c-.147.1-.26.219-.338.357a.991.991 0 0 0-.11.468c0 .273.091.49.273.65.186.156.535.302 1.046.436l1.515.37c.853.204 1.469.553 1.846 1.047.381.494.572 1.094.572 1.8 0 .542-.15 1.014-.449 1.417-.294.403-.713.715-1.254.936-.542.222-1.179.332-1.911.332Zm-.813-10.875h1.645v1.69h-1.645v-1.69Zm-.032 10.296h1.638v1.691h-1.638v-1.691Zm9.353-9.08c.646 0 1.222.102 1.729.305.511.204.914.503 1.209.897.295.39.442.871.442 1.443 0 .481-.132.891-.397 1.229a2.661 2.661 0 0 1-.975.78c.286.061.566.204.839.429.277.221.505.494.682.819.178.321.267.661.267 1.02 0 .559-.158 1.045-.475 1.456-.312.412-.754.731-1.326.956-.567.221-1.232.332-1.995.332-.754 0-1.415-.111-1.983-.332-.567-.225-1.009-.544-1.326-.956-.316-.411-.474-.897-.474-1.456 0-.359.089-.699.266-1.02a2.72 2.72 0 0 1 .676-.819 1.97 1.97 0 0 1 .845-.429 2.731 2.731 0 0 1-.981-.78c-.269-.338-.403-.748-.403-1.229 0-.572.147-1.053.442-1.443.299-.394.704-.693 1.215-.897a4.639 4.639 0 0 1 1.723-.305Zm0 3.919c.433 0 .789-.114 1.066-.344.282-.234.422-.557.422-.969 0-.407-.14-.73-.422-.968s-.637-.358-1.066-.358c-.425 0-.778.12-1.06.358-.281.238-.422.561-.422.968 0 .412.141.735.422.969.282.23.635.344 1.06.344Zm0 4.316c.555 0 .988-.123 1.3-.37.316-.251.474-.583.474-.995 0-.277-.071-.52-.214-.728a1.439 1.439 0 0 0-.611-.5 2.266 2.266 0 0 0-.949-.182c-.36 0-.672.061-.936.182a1.439 1.439 0 0 0-.611.5 1.254 1.254 0 0 0-.215.728c0 .412.159.744.475.995.316.247.745.37 1.287.37Zm6.503 1.294v-7.04h-1.677v-1.072c.537 0 .97-.05 1.3-.15.333-.104.582-.251.747-.442.165-.195.262-.426.293-.695h1.261V348h-1.924Zm7.423-9.529c1.118 0 2 .418 2.646 1.254.645.832.968 2.031.968 3.595 0 1.556-.318 2.749-.955 3.581-.637.828-1.524 1.242-2.659 1.242-1.14 0-2.03-.414-2.671-1.242-.637-.827-.956-2.019-.956-3.575 0-1.04.147-1.921.442-2.645.295-.724.713-1.272 1.255-1.645.541-.377 1.185-.565 1.93-.565Zm0 8.118c.559 0 .969-.249 1.229-.747.26-.503.39-1.341.39-2.516 0-1.2-.133-2.06-.397-2.58s-.674-.78-1.228-.78c-.555 0-.969.262-1.242.786-.269.525-.403 1.383-.403 2.574 0 1.17.134 2.007.403 2.509.269.503.685.754 1.248.754Z"/></g><g filter="url(#i)"><rect x="83" y="372" width="204" height="40" rx="5" fill="#FBFCFE"/></g><g fill="#36536B"><path opacity=".7" d="M99.955 388.77h.925V396h-.925v-7.23Zm5.211 2.735h-1.165v3.215c0 .183.019.318.055.405.04.083.105.137.195.16.094.023.22.035.38.035h.565v.62c-.063.023-.16.043-.29.06a3.675 3.675 0 0 1-.475.025c-.356 0-.633-.048-.83-.145a.832.832 0 0 1-.415-.43 1.888 1.888 0 0 1-.115-.7v-3.245h-.84v-.675h.865l.225-1.505h.68v1.5h1.165v.68Zm1.775 2.125c0 .327.053.623.16.89.11.263.275.473.495.63.223.157.502.235.835.235.33 0 .613-.077.85-.23a1.03 1.03 0 0 0 .46-.665h.875a1.75 1.75 0 0 1-.42.885c-.217.24-.478.422-.785.545-.307.12-.627.18-.96.18-.483 0-.908-.105-1.275-.315a2.191 2.191 0 0 1-.86-.905c-.207-.393-.31-.865-.31-1.415 0-.543.093-1.02.28-1.43.187-.41.457-.73.81-.96.357-.23.785-.345 1.285-.345.487 0 .898.105 1.235.315.337.21.592.507.765.89.177.38.265.832.265 1.355v.34h-3.705Zm.005-.625h2.81c0-.297-.05-.563-.15-.8-.1-.24-.253-.428-.46-.565-.203-.14-.46-.21-.77-.21-.323 0-.592.078-.805.235a1.44 1.44 0 0 0-.475.595c-.103.24-.153.488-.15.745Zm4.893 2.995v-5.17h.89v.75c.143-.227.34-.425.59-.595.25-.17.575-.255.975-.255.187 0 .377.032.57.095.197.063.377.158.54.285.163.127.29.282.38.465a1.79 1.79 0 0 1 .65-.61c.273-.157.582-.235.925-.235.18 0 .368.028.565.085a1.47 1.47 0 0 1 .96.865c.107.243.16.557.16.94V396h-.93v-3.29c0-.313-.05-.555-.15-.725a.836.836 0 0 0-.395-.365 1.272 1.272 0 0 0-.515-.105c-.16 0-.33.032-.51.095s-.333.17-.46.32-.19.355-.19.615V396h-.92v-3.56a.789.789 0 0 0-.165-.51 1.01 1.01 0 0 0-.405-.31c-.16-.07-.32-.105-.48-.105-.177 0-.355.035-.535.105a1.08 1.08 0 0 0-.45.335c-.12.15-.18.347-.18.59V396h-.92Zm12.878-7.18-1.085 7.195-.57-.08 1.09-7.18.565.065Zm2.05 0-1.085 7.195-.57-.08 1.09-7.18.565.065Zm.42 4.27v.565h-4.945v-.565h4.945Zm.32-2.05v.565h-4.945v-.565h4.945Zm3.384-2.37c.783 0 1.406.315 1.87.945.466.627.7 1.555.7 2.785 0 1.223-.232 2.148-.695 2.775-.464.623-1.092.935-1.885.935-.79 0-1.417-.31-1.88-.93-.464-.623-.695-1.545-.695-2.765 0-.823.106-1.513.32-2.07.213-.557.513-.975.9-1.255.386-.28.841-.42 1.365-.42Zm0 6.64c.516 0 .906-.227 1.17-.68.266-.457.4-1.198.4-2.225 0-1.047-.135-1.8-.405-2.26-.267-.463-.657-.695-1.17-.695-.51 0-.904.233-1.18.7-.274.463-.41 1.215-.41 2.255 0 1.023.136 1.763.41 2.22.273.457.668.685 1.185.685Zm5.977-6.64c.784 0 1.407.315 1.87.945.467.627.7 1.555.7 2.785 0 1.223-.231 2.148-.695 2.775-.463.623-1.091.935-1.885.935-.79 0-1.416-.31-1.88-.93-.463-.623-.695-1.545-.695-2.765 0-.823.107-1.513.32-2.07.214-.557.514-.975.9-1.255.387-.28.842-.42 1.365-.42Zm0 6.64c.517 0 .907-.227 1.17-.68.267-.457.4-1.198.4-2.225 0-1.047-.135-1.8-.405-2.26-.266-.463-.656-.695-1.17-.695-.51 0-.903.233-1.18.7-.273.463-.41 1.215-.41 2.255 0 1.023.137 1.763.41 2.22.274.457.669.685 1.185.685Zm6.797-6.54h.94v4.57h1.2v.815h-1.2V396h-.905v-1.845h-3.405v-.845l3.37-4.54Zm-2.485 4.57h2.5v-3.355l-2.5 3.355Z"/><path d="M236.196 396.13c-1.127 0-2.041-.225-2.743-.676-.702-.455-1.105-1.155-1.209-2.1l1.976-.039c.104.429.327.757.669.982.347.221.78.331 1.3.331.312 0 .587-.049.826-.149.242-.104.433-.243.572-.416a.961.961 0 0 0 .208-.605c0-.346-.111-.604-.332-.773-.221-.173-.561-.312-1.02-.416l-1.541-.331c-.715-.144-1.289-.427-1.722-.852-.429-.429-.648-1.003-.657-1.723-.004-.589.154-1.098.475-1.527.325-.433.765-.767 1.319-1.001.559-.234 1.185-.351 1.879-.351.71 0 1.324.128 1.839.383.52.252.919.592 1.196 1.021.282.425.418.895.41 1.41l-1.918.033c-.06-.416-.199-.743-.416-.982-.216-.238-.576-.357-1.079-.357-.26 0-.492.028-.695.084a1.705 1.705 0 0 0-.527.241c-.147.1-.26.219-.338.357a.991.991 0 0 0-.11.468c0 .273.091.49.273.65.186.156.535.302 1.046.436l1.515.37c.853.204 1.469.553 1.846 1.047.381.494.572 1.094.572 1.8 0 .542-.15 1.014-.449 1.417-.294.403-.713.715-1.254.936-.542.222-1.179.332-1.911.332Zm-.813-10.875h1.645v1.69h-1.645v-1.69Zm-.032 10.296h1.638v1.691h-1.638v-1.691Zm7.234.449v-7.04h-1.677v-1.072c.537 0 .97-.05 1.3-.15.333-.104.583-.251.747-.442.165-.195.262-.426.293-.695h1.261V396h-1.924Zm7.423-9.529c1.118 0 2 .418 2.646 1.254.646.832.968 2.031.968 3.595 0 1.556-.318 2.749-.955 3.581-.637.828-1.523 1.242-2.659 1.242-1.139 0-2.03-.414-2.671-1.242-.637-.827-.956-2.019-.956-3.575 0-1.04.148-1.921.442-2.645.295-.724.713-1.272 1.255-1.645.542-.377 1.185-.565 1.93-.565Zm0 8.118c.559 0 .969-.249 1.229-.747.26-.503.39-1.341.39-2.516 0-1.2-.132-2.06-.397-2.58-.264-.52-.673-.78-1.228-.78-.555 0-.969.262-1.242.786-.268.525-.403 1.383-.403 2.574 0 1.17.135 2.007.403 2.509.269.503.685.754 1.248.754Zm8.872-7.988h1.866v5.727h1.449v1.592h-1.449V396h-1.827l.007-2.08h-4.329v-1.56l4.283-5.759Zm-2.528 5.727h2.574v-3.446l-2.574 3.446Zm10.959-5.727h1.866v5.727h1.449v1.592h-1.449V396h-1.827l.007-2.08h-4.329v-1.56l4.283-5.759Zm-2.528 5.727h2.574v-3.446l-2.574 3.446Z"/></g><g><g filter="url(#j)"><rect x="83" y="420" width="204" height="40" rx="5" fill="#FBFCFE"/></g><g fill="#36536B"><path opacity=".7" d="M99.955 436.77h.925V444h-.925v-7.23Zm5.211 2.735h-1.165v3.215c0 .183.019.318.055.405.04.083.105.137.195.16.094.023.22.035.38.035h.565v.62c-.063.023-.16.043-.29.06a3.675 3.675 0 0 1-.475.025c-.356 0-.633-.048-.83-.145a.832.832 0 0 1-.415-.43 1.888 1.888 0 0 1-.115-.7v-3.245h-.84v-.675h.865l.225-1.505h.68v1.5h1.165v.68Zm1.775 2.125c0 .327.053.623.16.89.11.263.275.473.495.63.223.157.502.235.835.235.33 0 .613-.077.85-.23a1.03 1.03 0 0 0 .46-.665h.875a1.75 1.75 0 0 1-.42.885c-.217.24-.478.422-.785.545-.307.12-.627.18-.96.18-.483 0-.908-.105-1.275-.315a2.191 2.191 0 0 1-.86-.905c-.207-.393-.31-.865-.31-1.415 0-.543.093-1.02.28-1.43.187-.41.457-.73.81-.96.357-.23.785-.345 1.285-.345.487 0 .898.105 1.235.315.337.21.592.507.765.89.177.38.265.832.265 1.355v.34h-3.705Zm.005-.625h2.81c0-.297-.05-.563-.15-.8-.1-.24-.253-.428-.46-.565-.203-.14-.46-.21-.77-.21-.323 0-.592.078-.805.235a1.44 1.44 0 0 0-.475.595c-.103.24-.153.488-.15.745Zm4.893 2.995v-5.17h.89v.75c.143-.227.34-.425.59-.595.25-.17.575-.255.975-.255.187 0 .377.032.57.095.197.063.377.158.54.285.163.127.29.282.38.465a1.79 1.79 0 0 1 .65-.61c.273-.157.582-.235.925-.235.18 0 .368.028.565.085a1.47 1.47 0 0 1 .96.865c.107.243.16.557.16.94V444h-.93v-3.29c0-.313-.05-.555-.15-.725a.836.836 0 0 0-.395-.365 1.272 1.272 0 0 0-.515-.105c-.16 0-.33.032-.51.095s-.333.17-.46.32-.19.355-.19.615V444h-.92v-3.56a.789.789 0 0 0-.165-.51 1.01 1.01 0 0 0-.405-.31c-.16-.07-.32-.105-.48-.105-.177 0-.355.035-.535.105a1.08 1.08 0 0 0-.45.335c-.12.15-.18.347-.18.59V444h-.92Zm12.878-7.18-1.085 7.195-.57-.08 1.09-7.18.565.065Zm2.05 0-1.085 7.195-.57-.08 1.09-7.18.565.065Zm.42 4.27v.565h-4.945v-.565h4.945Zm.32-2.05v.565h-4.945v-.565h4.945Zm3.384-2.37c.783 0 1.406.315 1.87.945.466.627.7 1.555.7 2.785 0 1.223-.232 2.148-.695 2.775-.464.623-1.092.935-1.885.935-.79 0-1.417-.31-1.88-.93-.464-.623-.695-1.545-.695-2.765 0-.823.106-1.513.32-2.07.213-.557.513-.975.9-1.255.386-.28.841-.42 1.365-.42Zm0 6.64c.516 0 .906-.227 1.17-.68.266-.457.4-1.198.4-2.225 0-1.047-.135-1.8-.405-2.26-.267-.463-.657-.695-1.17-.695-.51 0-.904.233-1.18.7-.274.463-.41 1.215-.41 2.255 0 1.023.136 1.763.41 2.22.273.457.668.685 1.185.685Zm5.977-6.64c.784 0 1.407.315 1.87.945.467.627.7 1.555.7 2.785 0 1.223-.231 2.148-.695 2.775-.463.623-1.091.935-1.885.935-.79 0-1.416-.31-1.88-.93-.463-.623-.695-1.545-.695-2.765 0-.823.107-1.513.32-2.07.214-.557.514-.975.9-1.255.387-.28.842-.42 1.365-.42Zm0 6.64c.517 0 .907-.227 1.17-.68.267-.457.4-1.198.4-2.225 0-1.047-.135-1.8-.405-2.26-.266-.463-.656-.695-1.17-.695-.51 0-.903.233-1.18.7-.273.463-.41 1.215-.41 2.255 0 1.023.137 1.763.41 2.22.274.457.669.685 1.185.685Zm4.151-6.54h4.315l-.025.8h-3.5l-.185 2.335c.24-.223.502-.382.785-.475.287-.097.597-.145.93-.145.437 0 .839.09 1.205.27.37.177.667.44.89.79.224.347.335.777.335 1.29 0 .5-.108.935-.325 1.305a2.24 2.24 0 0 1-.915.865c-.393.203-.855.305-1.385.305-.446 0-.86-.078-1.24-.235a2.904 2.904 0 0 1-.98-.655 2.623 2.623 0 0 1-.595-.965l.8-.335c.12.273.27.517.45.73.184.213.4.38.65.5s.534.18.85.18c.514 0 .925-.148 1.235-.445.314-.3.47-.707.47-1.22a1.52 1.52 0 0 0-.815-1.395c-.246-.133-.52-.2-.82-.2-.196 0-.38.018-.55.055-.17.033-.338.1-.505.2a2.43 2.43 0 0 0-.525.455.115.115 0 0 1-.045.015l-.05-.02-.78-.245.325-3.76Z"/><path d="M250.037 444.13c-1.127 0-2.041-.225-2.743-.676-.702-.455-1.105-1.155-1.209-2.1l1.976-.039c.104.429.327.757.669.982.347.221.78.331 1.3.331.312 0 .587-.049.826-.149.242-.104.433-.243.572-.416a.961.961 0 0 0 .208-.605c0-.346-.111-.604-.332-.773-.221-.173-.561-.312-1.02-.416l-1.541-.331c-.715-.144-1.289-.427-1.722-.852-.429-.429-.648-1.003-.657-1.723-.004-.589.154-1.098.475-1.527.325-.433.765-.767 1.319-1.001.559-.234 1.185-.351 1.879-.351.71 0 1.324.128 1.839.383.52.252.919.592 1.196 1.021.282.425.418.895.41 1.41l-1.918.033c-.06-.416-.199-.743-.416-.982-.216-.238-.576-.357-1.079-.357-.26 0-.492.028-.695.084a1.705 1.705 0 0 0-.527.241c-.147.1-.26.219-.338.357a.991.991 0 0 0-.11.468c0 .273.091.49.273.65.186.156.535.302 1.046.436l1.515.37c.853.204 1.469.553 1.846 1.047.381.494.572 1.094.572 1.8 0 .542-.15 1.014-.449 1.417-.294.403-.713.715-1.254.936-.542.222-1.179.332-1.911.332Zm-.813-10.875h1.645v1.69h-1.645v-1.69Zm-.032 10.296h1.638v1.691h-1.638v-1.691Zm9.84-8.95h1.866v5.727h1.449v1.592h-1.449V444h-1.827l.007-2.08h-4.329v-1.56l4.283-5.759Zm-2.528 5.727h2.574v-3.446l-2.574 3.446Zm10.316-5.857c1.118 0 2 .418 2.646 1.254.645.832.968 2.031.968 3.595 0 1.556-.318 2.749-.955 3.581-.637.828-1.524 1.242-2.659 1.242-1.14 0-2.03-.414-2.671-1.242-.637-.827-.956-2.019-.956-3.575 0-1.04.147-1.921.442-2.645.295-.724.713-1.272 1.255-1.645.541-.377 1.185-.565 1.93-.565Zm0 8.118c.559 0 .969-.249 1.229-.747.26-.503.39-1.341.39-2.516 0-1.2-.133-2.06-.397-2.58s-.674-.78-1.228-.78c-.555 0-.969.262-1.242.786-.269.525-.403 1.383-.403 2.574 0 1.17.134 2.007.403 2.509.269.503.685.754 1.248.754Z"/></g></g><g><g filter="url(#k)"><rect x="83" y="468" width="204" height="40" rx="5" fill="#FBFCFE"/></g><g fill="#36536B"><path opacity=".7" d="M99.955 484.77h.925V492h-.925v-7.23Zm5.211 2.735h-1.165v3.215c0 .183.019.318.055.405.04.083.105.137.195.16.094.023.22.035.38.035h.565v.62c-.063.023-.16.043-.29.06a3.675 3.675 0 0 1-.475.025c-.356 0-.633-.048-.83-.145a.832.832 0 0 1-.415-.43 1.888 1.888 0 0 1-.115-.7v-3.245h-.84v-.675h.865l.225-1.505h.68v1.5h1.165v.68Zm1.775 2.125c0 .327.053.623.16.89.11.263.275.473.495.63.223.157.502.235.835.235.33 0 .613-.077.85-.23a1.03 1.03 0 0 0 .46-.665h.875a1.75 1.75 0 0 1-.42.885c-.217.24-.478.422-.785.545-.307.12-.627.18-.96.18-.483 0-.908-.105-1.275-.315a2.191 2.191 0 0 1-.86-.905c-.207-.393-.31-.865-.31-1.415 0-.543.093-1.02.28-1.43.187-.41.457-.73.81-.96.357-.23.785-.345 1.285-.345.487 0 .898.105 1.235.315.337.21.592.507.765.89.177.38.265.832.265 1.355v.34h-3.705Zm.005-.625h2.81c0-.297-.05-.563-.15-.8-.1-.24-.253-.428-.46-.565-.203-.14-.46-.21-.77-.21-.323 0-.592.078-.805.235a1.44 1.44 0 0 0-.475.595c-.103.24-.153.488-.15.745Zm4.893 2.995v-5.17h.89v.75c.143-.227.34-.425.59-.595.25-.17.575-.255.975-.255.187 0 .377.032.57.095.197.063.377.158.54.285.163.127.29.282.38.465a1.79 1.79 0 0 1 .65-.61c.273-.157.582-.235.925-.235.18 0 .368.028.565.085a1.47 1.47 0 0 1 .96.865c.107.243.16.557.16.94V492h-.93v-3.29c0-.313-.05-.555-.15-.725a.836.836 0 0 0-.395-.365 1.272 1.272 0 0 0-.515-.105c-.16 0-.33.032-.51.095s-.333.17-.46.32-.19.355-.19.615V492h-.92v-3.56a.789.789 0 0 0-.165-.51 1.01 1.01 0 0 0-.405-.31c-.16-.07-.32-.105-.48-.105-.177 0-.355.035-.535.105a1.08 1.08 0 0 0-.45.335c-.12.15-.18.347-.18.59V492h-.92Zm12.878-7.18-1.085 7.195-.57-.08 1.09-7.18.565.065Zm2.05 0-1.085 7.195-.57-.08 1.09-7.18.565.065Zm.42 4.27v.565h-4.945v-.565h4.945Zm.32-2.05v.565h-4.945v-.565h4.945Zm3.384-2.37c.783 0 1.406.315 1.87.945.466.627.7 1.555.7 2.785 0 1.223-.232 2.148-.695 2.775-.464.623-1.092.935-1.885.935-.79 0-1.417-.31-1.88-.93-.464-.623-.695-1.545-.695-2.765 0-.823.106-1.513.32-2.07.213-.557.513-.975.9-1.255.386-.28.841-.42 1.365-.42Zm0 6.64c.516 0 .906-.227 1.17-.68.266-.457.4-1.198.4-2.225 0-1.047-.135-1.8-.405-2.26-.267-.463-.657-.695-1.17-.695-.51 0-.904.233-1.18.7-.274.463-.41 1.215-.41 2.255 0 1.023.136 1.763.41 2.22.273.457.668.685 1.185.685Zm5.977-6.64c.784 0 1.407.315 1.87.945.467.627.7 1.555.7 2.785 0 1.223-.231 2.148-.695 2.775-.463.623-1.091.935-1.885.935-.79 0-1.416-.31-1.88-.93-.463-.623-.695-1.545-.695-2.765 0-.823.107-1.513.32-2.07.214-.557.514-.975.9-1.255.387-.28.842-.42 1.365-.42Zm0 6.64c.517 0 .907-.227 1.17-.68.267-.457.4-1.198.4-2.225 0-1.047-.135-1.8-.405-2.26-.266-.463-.656-.695-1.17-.695-.51 0-.903.233-1.18.7-.273.463-.41 1.215-.41 2.255 0 1.023.137 1.763.41 2.22.274.457.669.685 1.185.685Zm6.223-6.64c.4 0 .768.075 1.105.225.34.15.622.365.845.645.223.28.362.618.415 1.015h-.87a1.54 1.54 0 0 0-.525-.815c-.253-.2-.572-.3-.955-.3-.427 0-.783.122-1.07.365-.283.24-.49.593-.62 1.06-.13.463-.175 1.033-.135 1.71a1.76 1.76 0 0 1 .41-.64 2.055 2.055 0 0 1 1.45-.585c.477 0 .893.093 1.25.28.357.183.635.447.835.79.2.34.3.747.3 1.22 0 .483-.103.912-.31 1.285a2.18 2.18 0 0 1-.87.87c-.377.21-.822.315-1.335.315-.56 0-1.047-.145-1.46-.435-.41-.29-.728-.703-.955-1.24-.223-.54-.335-1.187-.335-1.94 0-.773.108-1.447.325-2.02.22-.573.54-1.017.96-1.33.42-.317.935-.475 1.545-.475Zm-.1 3.43c-.263 0-.517.063-.76.19-.24.123-.437.287-.59.49a1.11 1.11 0 0 0-.225.675c-.003.367.06.693.19.98.133.283.32.507.56.67.24.16.518.24.835.24.297 0 .56-.07.79-.21.23-.14.41-.335.54-.585.133-.25.2-.538.2-.865 0-.33-.06-.613-.18-.85a1.229 1.229 0 0 0-.52-.545c-.23-.127-.51-.19-.84-.19Z"/><path d="M232.996 492.13c-1.126 0-2.041-.225-2.743-.676-.702-.455-1.105-1.155-1.209-2.1l1.976-.039c.104.429.328.757.67.982.347.221.78.331 1.3.331.312 0 .587-.049.825-.149.243-.104.434-.243.572-.416a.955.955 0 0 0 .208-.605c0-.346-.11-.604-.331-.773-.221-.173-.561-.312-1.021-.416l-1.54-.331c-.715-.144-1.289-.427-1.723-.852-.429-.429-.647-1.003-.656-1.723-.004-.589.154-1.098.474-1.527.325-.433.765-.767 1.32-1.001.559-.234 1.185-.351 1.878-.351.711 0 1.324.128 1.84.383.52.252.919.592 1.196 1.021.282.425.418.895.409 1.41l-1.917.033c-.061-.416-.199-.743-.416-.982-.217-.238-.576-.357-1.079-.357-.26 0-.492.028-.696.084a1.699 1.699 0 0 0-.526.241c-.147.1-.26.219-.338.357a.98.98 0 0 0-.111.468c0 .273.091.49.273.65.187.156.536.302 1.047.436l1.514.37c.854.204 1.469.553 1.846 1.047.382.494.572 1.094.572 1.8 0 .542-.149 1.014-.448 1.417-.295.403-.713.715-1.255.936-.541.222-1.178.332-1.911.332Zm-.812-10.875h1.644v1.69h-1.644v-1.69Zm-.033 10.296h1.638v1.691h-1.638v-1.691Zm5.733.449v-1.417c0-.477.089-.888.267-1.235.177-.351.411-.654.702-.91a5.56 5.56 0 0 1 .962-.683c.351-.195.702-.379 1.053-.552.351-.173.671-.347.962-.52.294-.178.53-.375.708-.592.178-.216.267-.472.267-.767 0-.377-.133-.684-.397-.923-.26-.238-.617-.357-1.072-.357-.473 0-.874.136-1.203.409-.329.273-.533.685-.611 1.235h-1.813a3.394 3.394 0 0 1 .416-1.625c.273-.489.68-.877 1.222-1.163.541-.286 1.222-.429 2.041-.429.702 0 1.306.119 1.813.357.511.239.906.57 1.183.995.277.425.416.921.416 1.488 0 .473-.087.88-.26 1.222a2.785 2.785 0 0 1-.689.878c-.286.243-.6.455-.942.637-.343.182-.685.351-1.027.507-.338.156-.65.316-.936.481-.286.16-.516.342-.689.546-.174.204-.26.448-.26.734v.085h4.79V492h-6.903Zm8.971-9.399h6.039l-.072 1.553h-4.465l-.182 2.269c.346-.195.676-.336.988-.423.316-.086.663-.13 1.04-.13.628 0 1.189.12 1.683.358.498.234.893.578 1.183 1.033.29.455.436 1.01.436 1.664 0 .663-.15 1.235-.449 1.716a2.936 2.936 0 0 1-1.274 1.112c-.546.26-1.194.39-1.943.39a5.008 5.008 0 0 1-1.716-.286 4.388 4.388 0 0 1-1.372-.78 3.396 3.396 0 0 1-.877-1.144l1.482-.878c.169.295.359.562.572.8.212.234.457.42.734.559.282.134.609.201.982.201.563 0 1.016-.149 1.358-.448.342-.299.514-.689.514-1.17 0-.303-.078-.574-.234-.813a1.59 1.59 0 0 0-.631-.572 2.037 2.037 0 0 0-.942-.208c-.191 0-.373.018-.546.052a1.882 1.882 0 0 0-.52.182 3.619 3.619 0 0 0-.579.377.395.395 0 0 1-.13.039.411.411 0 0 1-.13-.045l-1.378-.637.429-4.771Zm11.637-.13a4.04 4.04 0 0 1 1.631.325c.498.212.904.522 1.216.929.316.403.489.889.52 1.456h-1.736c-.113-.394-.303-.693-.572-.897-.269-.208-.609-.312-1.02-.312-.451 0-.826.128-1.125.384-.299.256-.513.613-.643 1.072-.13.46-.165.995-.104 1.606a1.92 1.92 0 0 1 .546-.527c.221-.147.468-.26.741-.338.273-.078.556-.117.851-.117.637 0 1.194.12 1.671.358.476.234.849.568 1.118 1.001.268.433.403.94.403 1.521 0 .615-.152 1.166-.455 1.651a3.184 3.184 0 0 1-1.255 1.144c-.537.277-1.159.416-1.865.416-.798 0-1.487-.193-2.067-.579-.581-.385-1.027-.927-1.339-1.625-.308-.697-.462-1.516-.462-2.457 0-1.031.156-1.921.468-2.671.316-.75.769-1.326 1.359-1.729.589-.407 1.295-.611 2.119-.611Zm-.137 4.998c-.269 0-.529.061-.78.182a1.822 1.822 0 0 0-.611.455c-.156.182-.234.369-.234.559-.004.421.061.783.195 1.086.139.299.329.531.572.695.247.161.531.241.852.241.303 0 .576-.069.819-.208.247-.143.444-.34.591-.592.147-.251.221-.539.221-.864 0-.347-.071-.635-.214-.865a1.325 1.325 0 0 0-.585-.513 1.88 1.88 0 0 0-.826-.176Zm8.58-4.998c.59 0 1.134.108 1.632.325a2.96 2.96 0 0 1 1.215.929c.317.403.49.889.52 1.456h-1.735c-.113-.394-.303-.693-.572-.897-.269-.208-.609-.312-1.021-.312-.45 0-.825.128-1.124.384-.299.256-.514.613-.644 1.072-.13.46-.164.995-.104 1.606a1.92 1.92 0 0 1 .546-.527c.221-.147.468-.26.741-.338.273-.078.557-.117.852-.117.637 0 1.194.12 1.67.358.477.234.85.568 1.118 1.001.269.433.403.94.403 1.521 0 .615-.151 1.166-.455 1.651a3.18 3.18 0 0 1-1.254 1.144c-.537.277-1.159.416-1.866.416-.797 0-1.486-.193-2.067-.579-.58-.385-1.027-.927-1.339-1.625-.307-.697-.461-1.516-.461-2.457 0-1.031.156-1.921.468-2.671.316-.75.769-1.326 1.358-1.729.59-.407 1.296-.611 2.119-.611Zm-.136 4.998c-.269 0-.529.061-.78.182a1.822 1.822 0 0 0-.611.455c-.156.182-.234.369-.234.559-.004.421.061.783.195 1.086.139.299.329.531.572.695.247.161.531.241.851.241.304 0 .577-.069.819-.208.247-.143.445-.34.592-.592.147-.251.221-.539.221-.864 0-.347-.072-.635-.215-.865a1.325 1.325 0 0 0-.585-.513 1.872 1.872 0 0 0-.825-.176Z"/></g></g><g><g filter="url(#l)"><rect x="83" y="516" width="204" height="40" rx="5" fill="#FBFCFE"/></g><path d="M235.954 540.13c-1.126 0-2.041-.225-2.743-.676-.702-.455-1.105-1.155-1.209-2.1l1.976-.039c.104.429.328.757.67.982.347.221.78.331 1.3.331.312 0 .587-.049.825-.149.243-.104.434-.243.572-.416a.955.955 0 0 0 .208-.605c0-.346-.11-.604-.331-.773-.221-.173-.561-.312-1.021-.416l-1.54-.331c-.715-.144-1.289-.427-1.723-.852-.429-.429-.647-1.003-.656-1.723-.004-.589.154-1.098.474-1.527.325-.433.765-.767 1.32-1.001.559-.234 1.185-.351 1.878-.351.711 0 1.324.128 1.84.383.52.252.919.592 1.196 1.021.282.425.418.895.409 1.41l-1.917.033c-.061-.416-.199-.743-.416-.982-.217-.238-.576-.357-1.079-.357-.26 0-.492.028-.696.084a1.699 1.699 0 0 0-.526.241c-.147.1-.26.219-.338.357a.98.98 0 0 0-.111.468c0 .273.091.49.273.65.187.156.536.302 1.047.436l1.514.37c.854.204 1.469.553 1.846 1.047.382.494.572 1.094.572 1.8 0 .542-.149 1.014-.448 1.417-.295.403-.713.715-1.255.936-.541.222-1.178.332-1.911.332Zm-.812-10.875h1.644v1.69h-1.644v-1.69Zm-.033 10.296h1.638v1.691h-1.638v-1.691Zm9.841-8.95h1.866v5.727h1.449v1.592h-1.449V540h-1.827l.007-2.08h-4.329v-1.56l4.283-5.759Zm-2.528 5.727h2.574v-3.446l-2.574 3.446Zm8.353 3.672v-7.04h-1.677v-1.072c.537 0 .971-.05 1.3-.15.334-.104.583-.251.747-.442.165-.195.263-.426.293-.695h1.261V540h-1.924Zm7.248.143a3.992 3.992 0 0 1-1.638-.338 3.21 3.21 0 0 1-1.242-.949c-.32-.412-.5-.893-.539-1.443h1.807c.078.364.251.661.52.89.269.226.607.338 1.014.338.451 0 .845-.106 1.183-.318.342-.212.598-.55.767-1.014.173-.464.234-1.07.182-1.82-.121.23-.29.431-.507.604a2.406 2.406 0 0 1-.748.397 3.139 3.139 0 0 1-.955.136c-.637 0-1.203-.119-1.697-.357a2.84 2.84 0 0 1-1.157-1.027c-.277-.446-.416-.975-.416-1.586 0-.615.148-1.164.442-1.645a3.066 3.066 0 0 1 1.235-1.131c.529-.273 1.149-.409 1.859-.409.798 0 1.485.191 2.061.572.581.377 1.025.914 1.332 1.612.312.693.468 1.51.468 2.45 0 1.123-.16 2.059-.481 2.808-.316.746-.771 1.305-1.365 1.677-.593.369-1.302.553-2.125.553Zm.169-5.025a1.917 1.917 0 0 0 1.384-.63c.161-.182.241-.371.241-.566.004-.42-.063-.78-.202-1.079a1.548 1.548 0 0 0-.572-.695 1.509 1.509 0 0 0-.851-.241 1.47 1.47 0 0 0-1.352.793 1.827 1.827 0 0 0-.202.871c0 .49.143.871.429 1.144.286.269.661.403 1.125.403Zm8.262 5.025a3.992 3.992 0 0 1-1.638-.338 3.199 3.199 0 0 1-1.241-.949 2.59 2.59 0 0 1-.54-1.443h1.807c.078.364.251.661.52.89.269.226.607.338 1.014.338.451 0 .845-.106 1.183-.318.342-.212.598-.55.767-1.014.173-.464.234-1.07.182-1.82-.121.23-.29.431-.507.604a2.4 2.4 0 0 1-.747.397 3.145 3.145 0 0 1-.956.136c-.637 0-1.202-.119-1.696-.357a2.828 2.828 0 0 1-1.157-1.027c-.278-.446-.416-.975-.416-1.586 0-.615.147-1.164.442-1.645a3.053 3.053 0 0 1 1.235-1.131c.528-.273 1.148-.409 1.859-.409.797 0 1.484.191 2.06.572.581.377 1.025.914 1.333 1.612.312.693.468 1.51.468 2.45 0 1.123-.161 2.059-.481 2.808-.317.746-.772 1.305-1.365 1.677-.594.369-1.303.553-2.126.553Zm.169-5.025c.264 0 .52-.058.767-.175.251-.121.457-.273.618-.455.16-.182.24-.371.24-.566.004-.42-.063-.78-.201-1.079a1.554 1.554 0 0 0-.572-.695 1.514 1.514 0 0 0-.852-.241 1.472 1.472 0 0 0-1.352.793 1.826 1.826 0 0 0-.201.871c0 .49.143.871.429 1.144.286.269.66.403 1.124.403Z" fill="#36536B"/></g><path fill="#36536B" d="M68.074 67.445h233v114h-233z"/></g><g clip-path="url(#m)"><g filter="url(#n)"><rect x="83" y="148" width="204" height="56" rx="5" fill="#FBFCFE"/></g><path opacity=".7" d="M99.698 173.62v-.85h5.47v.85h-2.205V180h-.93v-6.38h-2.335Zm7.758 6.48c-.477 0-.894-.102-1.25-.305a2.08 2.08 0 0 1-.83-.905c-.197-.397-.295-.882-.295-1.455 0-.54.091-1.013.275-1.42.183-.407.451-.722.805-.945.356-.227.788-.34 1.295-.34.476 0 .89.105 1.24.315.353.207.626.512.82.915.193.403.29.895.29 1.475 0 .527-.09.99-.27 1.39-.177.4-.44.713-.79.94-.347.223-.777.335-1.29.335Zm0-.73c.31 0 .571-.078.785-.235a1.44 1.44 0 0 0 .485-.675c.11-.293.165-.642.165-1.045 0-.37-.049-.702-.145-.995a1.47 1.47 0 0 0-.465-.705c-.21-.173-.485-.26-.825-.26-.314 0-.579.078-.795.235a1.415 1.415 0 0 0-.495.67c-.11.293-.165.645-.165 1.055 0 .363.05.693.15.99.1.297.256.532.47.705.213.173.491.26.835.26Zm5.944-3.865h-1.165v3.215c0 .183.018.318.055.405.04.083.105.137.195.16.093.023.22.035.38.035h.565v.62c-.064.023-.16.043-.29.06a3.686 3.686 0 0 1-.475.025c-.357 0-.634-.048-.83-.145a.828.828 0 0 1-.415-.43 1.868 1.868 0 0 1-.115-.7v-3.245h-.84v-.675h.865l.225-1.505h.68v1.5h1.165v.68Zm2.642 4.595c-.333 0-.628-.058-.885-.175a1.433 1.433 0 0 1-.605-.515 1.47 1.47 0 0 1-.215-.81c0-.573.2-1 .6-1.28.4-.28 1.042-.43 1.925-.45l.925-.025v-.405c0-.317-.095-.567-.285-.75-.19-.187-.485-.28-.885-.28a1.518 1.518 0 0 0-.785.21c-.223.137-.368.36-.435.67h-.815c.02-.337.115-.62.285-.85.17-.233.407-.41.71-.53.307-.12.668-.18 1.085-.18.45 0 .823.063 1.12.19.3.127.523.313.67.56.15.247.225.55.225.91V180h-.79l-.065-.97c-.2.403-.455.683-.765.84-.307.153-.645.23-1.015.23Zm.28-.665c.173 0 .345-.032.515-.095a1.84 1.84 0 0 0 .475-.255c.143-.11.257-.232.34-.365a.807.807 0 0 0 .135-.42v-.885l-.77.015a4.092 4.092 0 0 0-.99.12c-.263.073-.462.188-.595.345-.13.157-.195.362-.195.615 0 .29.1.517.3.68.203.163.465.245.785.245Zm5.163.63c-.28 0-.507-.038-.68-.115a.957.957 0 0 1-.395-.31 1.17 1.17 0 0 1-.185-.445 3.016 3.016 0 0 1-.045-.525v-6.1h.91v6.01c0 .26.05.455.15.585.103.13.246.202.43.215l.28.005v.6a1.824 1.824 0 0 1-.24.055 1.144 1.144 0 0 1-.225.025Zm3.824 1.545v-6.78h.92l.01.9c.06-.107.137-.218.23-.335.097-.117.213-.225.35-.325.14-.1.302-.182.485-.245a1.98 1.98 0 0 1 .635-.095c.413 0 .777.095 1.09.285.317.187.563.473.74.86.177.387.265.877.265 1.47s-.087 1.095-.26 1.505c-.17.407-.417.717-.74.93-.323.213-.713.32-1.17.32a1.755 1.755 0 0 1-1.08-.35c-.13-.107-.24-.22-.33-.34a2.729 2.729 0 0 1-.215-.345v2.545h-.93Zm2.38-2.23a1.3 1.3 0 0 0 1.045-.485c.27-.327.405-.833.405-1.52 0-.59-.123-1.058-.37-1.405s-.607-.52-1.08-.52c-.48 0-.843.178-1.09.535-.247.353-.37.817-.37 1.39 0 .37.055.707.165 1.01.11.303.273.545.49.725.217.18.485.27.805.27Zm4.842.72c-.333 0-.628-.058-.885-.175a1.433 1.433 0 0 1-.605-.515 1.47 1.47 0 0 1-.215-.81c0-.573.2-1 .6-1.28.4-.28 1.042-.43 1.925-.45l.925-.025v-.405c0-.317-.095-.567-.285-.75-.19-.187-.485-.28-.885-.28a1.518 1.518 0 0 0-.785.21c-.223.137-.368.36-.435.67h-.815c.02-.337.115-.62.285-.85.17-.233.407-.41.71-.53.307-.12.668-.18 1.085-.18.45 0 .823.063 1.12.19.3.127.523.313.67.56.15.247.225.55.225.91V180h-.79l-.065-.97c-.2.403-.455.683-.765.84-.307.153-.645.23-1.015.23Zm.28-.665c.173 0 .345-.032.515-.095a1.84 1.84 0 0 0 .475-.255c.143-.11.257-.232.34-.365a.807.807 0 0 0 .135-.42v-.885l-.77.015a4.092 4.092 0 0 0-.99.12c-.263.073-.462.188-.595.345-.13.157-.195.362-.195.615 0 .29.1.517.3.68.203.163.465.245.785.245Zm4.202 2.215c-.304 0-.512-.022-.625-.065l-.17-.065v-.6l.525.01c.193.007.353-.007.48-.04a.89.89 0 0 0 .305-.135.636.636 0 0 0 .175-.19c.043-.07.078-.137.105-.2l.18-.49-2.02-5.045h.935l1.525 3.99 1.515-3.99h.905l-2.18 5.56c-.134.327-.284.582-.45.765a1.355 1.355 0 0 1-.55.385 1.9 1.9 0 0 1-.655.11Zm4.745-1.65v-5.17h.89v.75c.143-.227.34-.425.59-.595.25-.17.575-.255.975-.255.187 0 .377.032.57.095.197.063.377.158.54.285.163.127.29.282.38.465a1.79 1.79 0 0 1 .65-.61c.273-.157.582-.235.925-.235.18 0 .368.028.565.085a1.47 1.47 0 0 1 .96.865c.107.243.16.557.16.94V180h-.93v-3.29c0-.313-.05-.555-.15-.725a.836.836 0 0 0-.395-.365 1.272 1.272 0 0 0-.515-.105c-.16 0-.33.032-.51.095s-.333.17-.46.32-.19.355-.19.615V180h-.92v-3.56a.789.789 0 0 0-.165-.51 1.01 1.01 0 0 0-.405-.31c-.16-.07-.32-.105-.48-.105-.177 0-.355.035-.535.105a1.08 1.08 0 0 0-.45.335c-.12.15-.18.347-.18.59V180h-.92Zm9.235-2.37c0 .327.054.623.16.89.11.263.275.473.495.63.224.157.502.235.835.235.33 0 .614-.077.85-.23.24-.153.394-.375.46-.665h.875a1.75 1.75 0 0 1-.42.885c-.216.24-.478.422-.785.545-.306.12-.626.18-.96.18-.483 0-.908-.105-1.275-.315a2.198 2.198 0 0 1-.86-.905c-.206-.393-.31-.865-.31-1.415 0-.543.094-1.02.28-1.43.187-.41.457-.73.81-.96.357-.23.785-.345 1.285-.345.487 0 .899.105 1.235.315.337.21.592.507.765.89.177.38.265.832.265 1.355v.34h-3.705Zm.005-.625h2.81c0-.297-.05-.563-.15-.8-.1-.24-.253-.428-.46-.565-.203-.14-.46-.21-.77-.21-.323 0-.591.078-.805.235a1.44 1.44 0 0 0-.475.595c-.103.24-.153.488-.15.745Zm4.893 2.995v-5.17h.895v.75c.083-.143.198-.278.345-.405.15-.127.33-.228.54-.305.213-.077.458-.115.735-.115.327 0 .627.065.9.195.277.13.497.333.66.61.167.273.25.627.25 1.06V180h-.925v-3.29c0-.403-.107-.702-.32-.895-.21-.197-.483-.295-.82-.295-.233 0-.452.038-.655.115a1.123 1.123 0 0 0-.495.34.851.851 0 0 0-.19.57V180h-.92Zm8.077-4.495h-1.165v3.215c0 .183.019.318.055.405.04.083.105.137.195.16.094.023.22.035.38.035h.565v.62c-.063.023-.16.043-.29.06a3.675 3.675 0 0 1-.475.025c-.356 0-.633-.048-.83-.145a.832.832 0 0 1-.415-.43 1.888 1.888 0 0 1-.115-.7v-3.245h-.84v-.675h.865l.225-1.505h.68v1.5h1.165v.68Z" fill="#36536B"/><path d="M213.256 183.2c-1.734 0-3.14-.347-4.22-1.04-1.08-.7-1.7-1.777-1.86-3.23l3.04-.06c.16.66.503 1.163 1.03 1.51.533.34 1.2.51 2 .51.48 0 .903-.077 1.27-.23.373-.16.666-.373.88-.64.213-.273.32-.583.32-.93 0-.533-.17-.93-.51-1.19-.34-.267-.864-.48-1.57-.64l-2.37-.51c-1.1-.22-1.984-.657-2.65-1.31-.66-.66-.997-1.543-1.01-2.65-.007-.907.236-1.69.73-2.35.5-.667 1.176-1.18 2.03-1.54.86-.36 1.823-.54 2.89-.54 1.093 0 2.036.197 2.83.59.8.387 1.413.91 1.84 1.57a3.73 3.73 0 0 1 .63 2.17l-2.95.05c-.094-.64-.307-1.143-.64-1.51-.334-.367-.887-.55-1.66-.55-.4 0-.757.043-1.07.13-.314.087-.584.21-.81.37-.227.153-.4.337-.52.55-.114.213-.17.453-.17.72 0 .42.14.753.42 1 .286.24.823.463 1.61.67l2.33.57c1.313.313 2.26.85 2.84 1.61.586.76.88 1.683.88 2.77 0 .833-.23 1.56-.69 2.18-.454.62-1.097 1.1-1.93 1.44-.834.34-1.814.51-2.94.51Zm-1.25-16.73h2.53v2.6h-2.53v-2.6Zm-.05 15.84h2.52v2.6h-2.52v-2.6Zm13.879.91c-.9 0-1.74-.173-2.52-.52-.78-.347-1.417-.833-1.91-1.46-.493-.633-.77-1.373-.83-2.22h2.78c.12.56.387 1.017.8 1.37.413.347.933.52 1.56.52.693 0 1.3-.163 1.82-.49.527-.327.92-.847 1.18-1.56.267-.713.36-1.647.28-2.8a2.969 2.969 0 0 1-.78.93c-.327.26-.71.463-1.15.61-.44.14-.93.21-1.47.21-.98 0-1.85-.183-2.61-.55a4.354 4.354 0 0 1-1.78-1.58c-.427-.687-.64-1.5-.64-2.44 0-.947.227-1.79.68-2.53.453-.74 1.087-1.32 1.9-1.74.813-.42 1.767-.63 2.86-.63 1.227 0 2.283.293 3.17.88.893.58 1.577 1.407 2.05 2.48.48 1.067.72 2.323.72 3.77 0 1.727-.247 3.167-.74 4.32-.487 1.147-1.187 2.007-2.1 2.58-.913.567-2.003.85-3.27.85Zm.26-7.73c.407 0 .8-.09 1.18-.27.387-.187.703-.42.95-.7.247-.28.37-.57.37-.87.007-.647-.097-1.2-.31-1.66-.207-.467-.5-.823-.88-1.07-.373-.247-.81-.37-1.31-.37-.46 0-.87.107-1.23.32-.36.213-.643.513-.85.9-.207.387-.31.833-.31 1.34 0 .753.22 1.34.66 1.76.44.413 1.017.62 1.73.62Zm7.71 7.51V180.82c0-.733.137-1.367.41-1.9a4.622 4.622 0 0 1 1.08-1.4c.453-.4.947-.75 1.48-1.05.54-.3 1.08-.583 1.62-.85s1.033-.533 1.48-.8a4.182 4.182 0 0 0 1.09-.91c.273-.333.41-.727.41-1.18 0-.58-.203-1.053-.61-1.42-.4-.367-.95-.55-1.65-.55-.727 0-1.343.21-1.85.63-.507.42-.82 1.053-.94 1.9h-2.79c.013-.92.227-1.753.64-2.5.42-.753 1.047-1.35 1.88-1.79.833-.44 1.88-.66 3.14-.66 1.08 0 2.01.183 2.79.55.787.367 1.393.877 1.82 1.53.427.653.64 1.417.64 2.29 0 .727-.133 1.353-.4 1.88-.267.527-.62.977-1.06 1.35-.44.373-.923.7-1.45.98-.527.28-1.053.54-1.58.78-.52.24-1 .487-1.44.74a3.85 3.85 0 0 0-1.06.84c-.267.313-.4.69-.4 1.13v.13h7.37V183h-10.62Zm17.871-14.66c1.72 0 3.077.643 4.07 1.93.994 1.28 1.49 3.123 1.49 5.53 0 2.393-.49 4.23-1.47 5.51-.98 1.273-2.343 1.91-4.09 1.91-1.753 0-3.123-.637-4.11-1.91-.98-1.273-1.47-3.107-1.47-5.5 0-1.6.227-2.957.68-4.07.454-1.113 1.097-1.957 1.93-2.53.834-.58 1.824-.87 2.97-.87Zm0 12.49c.86 0 1.49-.383 1.89-1.15.4-.773.6-2.063.6-3.87 0-1.847-.203-3.17-.61-3.97-.406-.8-1.036-1.2-1.89-1.2-.853 0-1.49.403-1.91 1.21-.413.807-.62 2.127-.62 3.96 0 1.8.207 3.087.62 3.86.414.773 1.054 1.16 1.92 1.16Zm13.649-12.29h2.87v8.81h2.23v2.45h-2.23v3.2h-2.81l.01-3.2h-6.66v-2.4l6.59-8.86Zm-3.89 8.81h3.96v-5.3l-3.96 5.3Z" fill="#BA4270"/></g><g fill="#fff"><path fill-rule="evenodd" clip-rule="evenodd" d="M227.047 106.425v-2.081h-.768v2.081h.768Zm-53.124 16.007v-4.951h.04c.35.512.798.899 1.344 1.162a4.08 4.08 0 0 0 1.789.394c.768 0 1.438-.148 2.011-.445a4.258 4.258 0 0 0 1.434-1.192 5.136 5.136 0 0 0 .859-1.718 7.172 7.172 0 0 0 .283-2.021c0-.741-.094-1.452-.283-2.132a5.187 5.187 0 0 0-.869-1.789 4.373 4.373 0 0 0-1.475-1.233c-.593-.31-1.3-.465-2.122-.465-.647 0-1.24.128-1.779.384-.539.256-.983.667-1.334 1.233h-.04v-1.334h-2.728v14.107h2.87Zm2.405-5.538c-.459 0-.849-.094-1.173-.283a2.273 2.273 0 0 1-.778-.737 3.18 3.18 0 0 1-.424-1.061 5.776 5.776 0 0 1-.132-1.233c0-.431.041-.849.122-1.253.081-.404.219-.761.414-1.071.195-.31.451-.563.768-.758.317-.196.711-.293 1.182-.293.458 0 .846.097 1.162.293.317.195.576.451.779.768.202.316.347.677.434 1.081.088.404.131.815.131 1.233 0 .418-.04.829-.121 1.233a3.049 3.049 0 0 1-.414 1.061 2.287 2.287 0 0 1-.768.737c-.317.189-.711.283-1.182.283Zm11.93 1.86a6.512 6.512 0 0 1-1.9.283 5.14 5.14 0 0 1-1.394-.182 3.189 3.189 0 0 1-1.132-.566 2.637 2.637 0 0 1-.758-.97c-.182-.391-.273-.856-.273-1.395 0-.593.105-1.081.313-1.465.209-.384.479-.69.809-.92.33-.229.707-.4 1.132-.515.424-.114.852-.205 1.283-.273.431-.067.856-.121 1.273-.161a7.728 7.728 0 0 0 1.112-.182c.323-.081.579-.199.768-.354.188-.155.276-.381.263-.677 0-.31-.051-.556-.152-.738a1.115 1.115 0 0 0-.404-.424 1.584 1.584 0 0 0-.586-.202 4.766 4.766 0 0 0-.718-.051c-.566 0-1.01.121-1.334.364-.323.243-.512.647-.566 1.213h-2.869c.04-.674.208-1.233.505-1.678a3.43 3.43 0 0 1 1.132-1.071 4.95 4.95 0 0 1 1.546-.576 8.745 8.745 0 0 1 1.728-.172c.525 0 1.057.037 1.596.111a4.876 4.876 0 0 1 1.476.435c.444.215.808.515 1.091.899.283.384.424.893.424 1.526v5.437c0 .471.027.923.081 1.354.054.431.149.754.283.97h-2.91a4.16 4.16 0 0 1-.202-1.011 3.74 3.74 0 0 1-1.617.991Zm-.829-1.617c-.229 0-.451-.02-.667-.061a1.608 1.608 0 0 1-.565-.212 1.08 1.08 0 0 1-.384-.414 1.343 1.343 0 0 1-.142-.647c0-.269.047-.492.142-.667.094-.175.218-.32.373-.434.155-.115.337-.206.546-.273.209-.068.421-.122.637-.162.229-.04.458-.074.687-.101a9.27 9.27 0 0 0 .657-.101c.209-.04.404-.091.586-.152a1.28 1.28 0 0 0 .455-.252v1.071c0 .162-.017.377-.051.647a2.178 2.178 0 0 1-.273.798c-.148.263-.377.488-.687.677-.31.189-.748.283-1.314.283Zm11.122 4.749c-.552.364-1.32.546-2.304.546-.296 0-.589-.01-.879-.03-.289-.02-.583-.044-.879-.071v-2.365l.829.081c.283.027.566.034.849.02.377-.04.656-.188.838-.444.182-.256.273-.539.273-.849 0-.229-.04-.445-.121-.647l-3.658-9.802h3.052l2.364 7.155h.041l2.283-7.155h2.971l-4.365 11.742c-.31.849-.741 1.456-1.294 1.819Zm9.506-2.869c.498 0 .956-.061 1.374-.182.418-.122.791-.29 1.122-.506.33-.215.609-.461.838-.737a3.25 3.25 0 0 0 .526-.879h.04v.545c0 .216.017.415.051.596.033.182.097.341.192.475a.968.968 0 0 0 .414.324c.182.081.428.121.738.121.215 0 .424-.027.626-.081v-.647a3.614 3.614 0 0 1-.566.061c-.175 0-.31-.037-.404-.111a.607.607 0 0 1-.202-.293 1.513 1.513 0 0 1-.071-.404c-.006-.149-.01-.297-.01-.445v-6.043c0-.795-.286-1.438-.859-1.93-.572-.492-1.485-.738-2.738-.738s-2.22.287-2.901.859c-.68.573-1.047 1.432-1.101 2.577h.768c.054-.93.367-1.624.94-2.082.572-.458 1.324-.687 2.253-.687.526 0 .97.054 1.334.162.364.108.66.256.889.445.229.188.398.404.506.646.107.243.161.506.161.788 0 .364-.02.667-.06.91a1.045 1.045 0 0 1-.303.596c-.162.155-.401.276-.718.364-.317.088-.751.152-1.303.192l-1.193.101a12 12 0 0 0-1.303.202 3.935 3.935 0 0 0-1.233.475 2.758 2.758 0 0 0-.92.91c-.242.383-.364.879-.364 1.485 0 .997.303 1.735.91 2.213.606.478 1.462.718 2.567.718Zm-1.981-1.223c.485.37 1.152.556 2.001.556.876 0 1.569-.159 2.081-.475.512-.317.903-.681 1.173-1.092.269-.411.441-.808.515-1.192.074-.384.111-.644.111-.778v-1.94c-.188.229-.475.384-.859.464-.384.081-.812.142-1.283.182l-1.294.122c-.377.04-.754.097-1.131.171a3.288 3.288 0 0 0-1.021.374 2.096 2.096 0 0 0-.738.718c-.188.303-.283.697-.283 1.182 0 .768.243 1.337.728 1.708Zm9.889 4.699v-5.882h.04c.31.849.802 1.462 1.476 1.84.674.377 1.442.566 2.304.566.795 0 1.485-.135 2.071-.405a3.942 3.942 0 0 0 1.456-1.121c.384-.479.67-1.048.859-1.708.188-.66.282-1.388.282-2.183 0-.727-.094-1.421-.282-2.082a5.133 5.133 0 0 0-.859-1.738 4.196 4.196 0 0 0-1.456-1.192c-.586-.297-1.276-.445-2.071-.445-.566 0-1.068.088-1.506.263a4.028 4.028 0 0 0-1.122.657 3.556 3.556 0 0 0-.747.859c-.189.31-.324.593-.405.849h-.04v-2.385h-.768v14.107h.768Zm1.991-4.538c.492.263 1.101.395 1.829.395.674 0 1.256-.128 1.748-.384a3.47 3.47 0 0 0 1.213-1.031c.316-.431.552-.933.707-1.506a6.97 6.97 0 0 0 .232-1.829c0-.593-.074-1.175-.222-1.748a4.809 4.809 0 0 0-.687-1.536 3.537 3.537 0 0 0-1.203-1.091c-.491-.277-1.088-.415-1.788-.415-.687 0-1.273.135-1.758.404a3.41 3.41 0 0 0-1.183 1.072 4.52 4.52 0 0 0-.657 1.525 7.83 7.83 0 0 0-.202 1.789c0 .62.061 1.216.182 1.789.121.572.327 1.078.617 1.516.289.437.68.788 1.172 1.05Zm8.323-9.569h.768v10.388h-.768v-10.388Z"/><circle cx="154.09" cy="104.158" r="1.895" transform="rotate(45 154.09 104.158)"/><circle cx="158.556" cy="108.624" r="1.895" transform="rotate(45 158.556 108.624)"/><circle cx="163.022" cy="113.09" r="1.895" transform="rotate(45 163.022 113.09)"/><circle cx="149.624" cy="108.624" r="1.895" transform="rotate(45 149.624 108.624)"/><circle opacity=".5" cx="154.09" cy="113.09" r="1.895" transform="rotate(45 154.09 113.09)"/><circle opacity=".5" cx="158.556" cy="117.556" r="1.895" transform="rotate(45 158.556 117.556)"/><circle cx="145.158" cy="113.09" r="1.895" transform="rotate(45 145.158 113.09)"/><circle opacity=".5" cx="149.624" cy="117.556" r="1.895" transform="rotate(45 149.624 117.556)"/><circle opacity=".25" cx="154.09" cy="122.022" r="1.895" transform="rotate(45 154.09 122.022)"/></g></g><defs><filter id="a" x=".568" y=".569" width="417.65" height="658.861" filterUnits="userSpaceOnUse" color-interpolation-filters="sRGB"><feFlood flood-opacity="0" result="BackgroundImageFix"/><feColorMatrix in="SourceAlpha" values="0 0 0 0 0 0 0 0 0 0 0 0 0 0 0 0 0 0 127 0" result="hardAlpha"/><feOffset dx="25" dy="25"/><feGaussianBlur stdDeviation="40"/><feColorMatrix values="0 0 0 0 0.212302 0 0 0 0 0.32521 0 0 0 0 0.419299 0 0 0 0.300727 0"/><feBlend in2="BackgroundImageFix" result="effect1_dropShadow_0_4969"/><feBlend in="SourceGraphic" in2="effect1_dropShadow_0_4969" result="shape"/></filter><filter id="f" x="78" y="223" width="234" height="70" filterUnits="userSpaceOnUse" color-interpolation-filters="sRGB"><feFlood flood-opacity="0" result="BackgroundImageFix"/><feColorMatrix in="SourceAlpha" values="0 0 0 0 0 0 0 0 0 0 0 0 0 0 0 0 0 0 127 0" result="hardAlpha"/><feMorphology radius="10" in="SourceAlpha" result="effect1_dropShadow_0_4969"/><feOffset dx="10" dy="10"/><feGaussianBlur stdDeviation="12.5"/><feColorMatrix values="0 0 0 0 0.212302 0 0 0 0 0.32521 0 0 0 0 0.419299 0 0 0 0.25 0"/><feBlend in2="BackgroundImageFix" result="effect1_dropShadow_0_4969"/><feBlend in="SourceGraphic" in2="effect1_dropShadow_0_4969" result="shape"/></filter><filter id="g" x="78" y="271" width="234" height="70" filterUnits="userSpaceOnUse" color-interpolation-filters="sRGB"><feFlood flood-opacity="0" result="BackgroundImageFix"/><feColorMatrix in="SourceAlpha" values="0 0 0 0 0 0 0 0 0 0 0 0 0 0 0 0 0 0 127 0" result="hardAlpha"/><feMorphology radius="10" in="SourceAlpha" result="effect1_dropShadow_0_4969"/><feOffset dx="10" dy="10"/><feGaussianBlur stdDeviation="12.5"/><feColorMatrix values="0 0 0 0 0.212302 0 0 0 0 0.32521 0 0 0 0 0.419299 0 0 0 0.25 0"/><feBlend in2="BackgroundImageFix" result="effect1_dropShadow_0_4969"/><feBlend in="SourceGraphic" in2="effect1_dropShadow_0_4969" result="shape"/></filter><filter id="h" x="78" y="319" width="234" height="70" filterUnits="userSpaceOnUse" color-interpolation-filters="sRGB"><feFlood flood-opacity="0" result="BackgroundImageFix"/><feColorMatrix in="SourceAlpha" values="0 0 0 0 0 0 0 0 0 0 0 0 0 0 0 0 0 0 127 0" result="hardAlpha"/><feMorphology radius="10" in="SourceAlpha" result="effect1_dropShadow_0_4969"/><feOffset dx="10" dy="10"/><feGaussianBlur stdDeviation="12.5"/><feColorMatrix values="0 0 0 0 0.212302 0 0 0 0 0.32521 0 0 0 0 0.419299 0 0 0 0.25 0"/><feBlend in2="BackgroundImageFix" result="effect1_dropShadow_0_4969"/><feBlend in="SourceGraphic" in2="effect1_dropShadow_0_4969" result="shape"/></filter><filter id="i" x="78" y="367" width="234" height="70" filterUnits="userSpaceOnUse" color-interpolation-filters="sRGB"><feFlood flood-opacity="0" result="BackgroundImageFix"/><feColorMatrix in="SourceAlpha" values="0 0 0 0 0 0 0 0 0 0 0 0 0 0 0 0 0 0 127 0" result="hardAlpha"/><feMorphology radius="10" in="SourceAlpha" result="effect1_dropShadow_0_4969"/><feOffset dx="10" dy="10"/><feGaussianBlur stdDeviation="12.5"/><feColorMatrix values="0 0 0 0 0.212302 0 0 0 0 0.32521 0 0 0 0 0.419299 0 0 0 0.25 0"/><feBlend in2="BackgroundImageFix" result="effect1_dropShadow_0_4969"/><feBlend in="SourceGraphic" in2="effect1_dropShadow_0_4969" result="shape"/></filter><filter id="j" x="78" y="415" width="234" height="70" filterUnits="userSpaceOnUse" color-interpolation-filters="sRGB"><feFlood flood-opacity="0" result="BackgroundImageFix"/><feColorMatrix in="SourceAlpha" values="0 0 0 0 0 0 0 0 0 0 0 0 0 0 0 0 0 0 127 0" result="hardAlpha"/><feMorphology radius="10" in="SourceAlpha" result="effect1_dropShadow_0_4969"/><feOffset dx="10" dy="10"/><feGaussianBlur stdDeviation="12.5"/><feColorMatrix values="0 0 0 0 0.212302 0 0 0 0 0.32521 0 0 0 0 0.419299 0 0 0 0.25 0"/><feBlend in2="BackgroundImageFix" result="effect1_dropShadow_0_4969"/><feBlend in="SourceGraphic" in2="effect1_dropShadow_0_4969" result="shape"/></filter><filter id="k" x="78" y="463" width="234" height="70" filterUnits="userSpaceOnUse" color-interpolation-filters="sRGB"><feFlood flood-opacity="0" result="BackgroundImageFix"/><feColorMatrix in="SourceAlpha" values="0 0 0 0 0 0 0 0 0 0 0 0 0 0 0 0 0 0 127 0" result="hardAlpha"/><feMorphology radius="10" in="SourceAlpha" result="effect1_dropShadow_0_4969"/><feOffset dx="10" dy="10"/><feGaussianBlur stdDeviation="12.5"/><feColorMatrix values="0 0 0 0 0.212302 0 0 0 0 0.32521 0 0 0 0 0.419299 0 0 0 0.25 0"/><feBlend in2="BackgroundImageFix" result="effect1_dropShadow_0_4969"/><feBlend in="SourceGraphic" in2="effect1_dropShadow_0_4969" result="shape"/></filter><filter id="l" x="78" y="511" width="234" height="70" filterUnits="userSpaceOnUse" color-interpolation-filters="sRGB"><feFlood flood-opacity="0" result="BackgroundImageFix"/><feColorMatrix in="SourceAlpha" values="0 0 0 0 0 0 0 0 0 0 0 0 0 0 0 0 0 0 127 0" result="hardAlpha"/><feMorphology radius="10" in="SourceAlpha" result="effect1_dropShadow_0_4969"/><feOffset dx="10" dy="10"/><feGaussianBlur stdDeviation="12.5"/><feColorMatrix values="0 0 0 0 0.212302 0 0 0 0 0.32521 0 0 0 0 0.419299 0 0 0 0.25 0"/><feBlend in2="BackgroundImageFix" result="effect1_dropShadow_0_4969"/><feBlend in="SourceGraphic" in2="effect1_dropShadow_0_4969" result="shape"/></filter><filter id="n" x="78" y="143" width="234" height="86" filterUnits="userSpaceOnUse" color-interpolation-filters="sRGB"><feFlood flood-opacity="0" result="BackgroundImageFix"/><feColorMatrix in="SourceAlpha" values="0 0 0 0 0 0 0 0 0 0 0 0 0 0 0 0 0 0 127 0" result="hardAlpha"/><feMorphology radius="10" in="SourceAlpha" result="effect1_dropShadow_0_4969"/><feOffset dx="10" dy="10"/><feGaussianBlur stdDeviation="12.5"/><feColorMatrix values="0 0 0 0 0.212302 0 0 0 0 0.32521 0 0 0 0 0.419299 0 0 0 0.25 0"/><feBlend in2="BackgroundImageFix" result="effect1_dropShadow_0_4969"/><feBlend in="SourceGraphic" in2="effect1_dropShadow_0_4969" result="shape"/></filter><linearGradient id="b" x1="63.015" y1="55" x2="63.015" y2="67.324" gradientUnits="userSpaceOnUse"><stop stop-color="#454545"/><stop offset=".226" stop-color="#999"/><stop offset="1" stop-color="#fff"/></linearGradient><linearGradient id="c" x1="313.103" y1="140.747" x2="303.642" y2="140.747" gradientUnits="userSpaceOnUse"><stop stop-color="#fff" stop-opacity=".01"/><stop offset=".222" stop-color="#BABABA"/><stop offset=".547" stop-color="#fff" stop-opacity=".01"/><stop offset="1" stop-color="#fff" stop-opacity=".01"/></linearGradient><linearGradient id="d" x1="55.568" y1="140.487" x2="65.044" y2="140.487" gradientUnits="userSpaceOnUse"><stop stop-color="#fff" stop-opacity=".01"/><stop offset=".222" stop-color="#BABABA"/><stop offset=".547" stop-color="#fff" stop-opacity=".01"/><stop offset="1" stop-color="#fff" stop-opacity=".01"/></linearGradient><clipPath id="m"><path fill="#fff" transform="translate(83 148)" d="M0 0h204v56H0z"/></clipPath></defs></svg>