<svg width="40" height="40" fill="none" xmlns="http://www.w3.org/2000/svg"><path fill-rule="evenodd" clip-rule="evenodd" d="M8.371 17.762a3.498 3.498 0 0 1-2.434.988 3.52 3.52 0 0 1-3.515-3.516 3.52 3.52 0 0 1 3.515-3.515 3.52 3.52 0 0 1 3.516 3.515c0 .11-.015.217-.03.323l-.013.103 3.469 1.735a3.498 3.498 0 0 1 2.434-.989c.54 0 1.047.133 1.505.353l4.706-4.706a3.472 3.472 0 0 1-.352-1.506 3.52 3.52 0 0 1 3.515-3.516c.72 0 1.389.22 1.947.592l4.088-3.066a3.462 3.462 0 0 1-.175-1.041A3.52 3.52 0 0 1 34.062 0a3.52 3.52 0 0 1 3.516 3.516 3.52 3.52 0 0 1-3.516 3.515c-.72 0-1.388-.219-1.946-.591l-4.088 3.066c.103.33.175.676.175 1.04a3.52 3.52 0 0 1-3.515 3.517 3.473 3.473 0 0 1-1.506-.353l-4.706 4.706c.22.458.352.965.352 1.506a3.52 3.52 0 0 1-3.515 3.515 3.52 3.52 0 0 1-3.516-3.515c0-.11.014-.217.03-.323l.013-.103-3.469-1.734Zm29.207 19.894h1.25a1.171 1.171 0 1 1 0 2.344H1.172a1.171 1.171 0 1 1 0-2.344h1.25V24.61c0-.647.524-1.172 1.172-1.172H8.28c.648 0 1.172.525 1.172 1.172v13.047h2.344v-8.36c0-.647.524-1.171 1.172-1.171h4.687c.648 0 1.172.524 1.172 1.172v8.36h2.344V19.921c0-.648.524-1.172 1.172-1.172h4.687c.648 0 1.172.524 1.172 1.172v17.734h2.344V12.891c0-.648.524-1.172 1.172-1.172h4.687c.648 0 1.172.524 1.172 1.172v24.765Z" fill="#fff"/></svg>