<svg width="129" height="17" fill="none" xmlns="http://www.w3.org/2000/svg"><path fill-rule="evenodd" clip-rule="evenodd" d="M3.354 3.428C1.654 3.052.368 1.55 0 .047L21 0v.047c-.368 1.503-1.608 2.912-3.355 3.381h-5.238l-.276.094V17H8.87V3.522l-.276-.094H3.354Zm29.077-.01h12.517c1.762-.327 3.06-1.92 3.384-3.418H29c.37 1.499 1.669 3.044 3.43 3.419Zm93.185 0h-12.518c-1.715-.374-3.013-1.92-3.384-3.418H129c-.371 1.499-1.623 3.09-3.384 3.419ZM110.224 17V6.744h18.359V17h-3.245v-6.838h-11.869V17h-3.245Zm-9.875 0c1.623-.703 2.504-1.92 2.874-3.325H88.62V.047h-3.292V17h15.021ZM72.579 3.372h-11.59l.046 3.372h15.021V17h-19.24c.788-1.64 2.365-2.904 4.22-3.419H72.81V10.07H57.79V.047h18.359c-.371 1.452-1.808 2.81-3.57 3.325Zm-27.63 6.744H32.43C30.669 9.74 29.37 8.196 29 6.697h19.332c-.324 1.499-1.622 3.09-3.384 3.419ZM32.43 17h12.517c1.762-.328 3.06-1.92 3.384-3.419H29c.37 1.499 1.669 3.091 3.43 3.419Z" fill="#fff"/></svg>